G04 Layer: TopPasteMaskLayer*
G04 EasyEDA v6.4.7, 2020-11-07T10:37:38+03:00*
G04 1389fe0e608b4a92a316d8f3135ec2f9,c683d62568ac4463b913f09dc326db1e,10*
G04 Gerber Generator version 0.2*
G04 Scale: 100 percent, Rotated: No, Reflected: No *
G04 Dimensions in millimeters *
G04 leading zeros omitted , absolute positions ,3 integer and 3 decimal *
%FSLAX33Y33*%
%MOMM*%
G90*
D02*

%ADD12C,0.499999*%
%ADD20R,0.999998X1.550010*%
%ADD21R,1.160018X1.450010*%
%ADD22R,1.550010X0.999998*%
%ADD23R,1.399997X1.150010*%

%LPD*%
G54D12*
G01X19922Y3885D02*
G01X19002Y4804D01*
G01X20488Y4450D02*
G01X19568Y5369D01*
G01X21053Y5016D02*
G01X20134Y5935D01*
G01X21619Y5582D02*
G01X20700Y6501D01*
G01X22184Y6147D02*
G01X21265Y7066D01*
G01X22750Y6713D02*
G01X21831Y7632D01*
G01X23316Y7279D02*
G01X22397Y8198D01*
G01X23881Y7844D02*
G01X22962Y8763D01*
G01X24447Y8410D02*
G01X23528Y9329D01*
G01X25013Y8975D02*
G01X24094Y9895D01*
G01X25578Y9541D02*
G01X24659Y10461D01*
G01X24659Y12652D02*
G01X25578Y13572D01*
G01X24094Y13218D02*
G01X25013Y14138D01*
G01X23528Y13784D02*
G01X24447Y14703D01*
G01X22962Y14350D02*
G01X23881Y15269D01*
G01X22397Y14915D02*
G01X23316Y15834D01*
G01X21831Y15481D02*
G01X22750Y16400D01*
G01X21265Y16047D02*
G01X22184Y16966D01*
G01X20700Y16612D02*
G01X21619Y17531D01*
G01X20134Y17178D02*
G01X21053Y18097D01*
G01X19568Y17744D02*
G01X20488Y18663D01*
G01X19002Y18309D02*
G01X19922Y19228D01*
G01X16811Y18309D02*
G01X15891Y19228D01*
G01X16245Y17744D02*
G01X15325Y18663D01*
G01X15679Y17178D02*
G01X14760Y18097D01*
G01X15113Y16612D02*
G01X14194Y17531D01*
G01X14548Y16047D02*
G01X13629Y16966D01*
G01X13982Y15481D02*
G01X13063Y16400D01*
G01X13416Y14915D02*
G01X12497Y15834D01*
G01X12851Y14350D02*
G01X11932Y15269D01*
G01X12285Y13784D02*
G01X11366Y14703D01*
G01X11719Y13218D02*
G01X10800Y14138D01*
G01X11154Y12652D02*
G01X10235Y13572D01*
G01X10235Y9541D02*
G01X11154Y10461D01*
G01X10800Y8975D02*
G01X11719Y9895D01*
G01X11366Y8410D02*
G01X12285Y9329D01*
G01X11932Y7844D02*
G01X12851Y8763D01*
G01X12497Y7279D02*
G01X13416Y8198D01*
G01X13063Y6713D02*
G01X13982Y7632D01*
G01X13629Y6147D02*
G01X14548Y7066D01*
G01X14194Y5582D02*
G01X15113Y6501D01*
G01X14760Y5016D02*
G01X15679Y5935D01*
G01X15325Y4450D02*
G01X16245Y5369D01*
G01X15891Y3885D02*
G01X16811Y4804D01*
G36*
G01X42619Y17771D02*
G01X44120Y17771D01*
G01X44120Y16772D01*
G01X42619Y16772D01*
G01X42619Y17771D01*
G37*
G36*
G01X34620Y17771D02*
G01X36120Y17771D01*
G01X36120Y16772D01*
G01X34620Y16772D01*
G01X34620Y17771D01*
G37*
G36*
G01X34367Y7938D02*
G01X35667Y7938D01*
G01X35667Y6539D01*
G01X34367Y6539D01*
G01X34367Y7938D01*
G37*
G36*
G01X36468Y7938D02*
G01X37768Y7938D01*
G01X37768Y6539D01*
G01X36468Y6539D01*
G01X36468Y7938D01*
G37*
G36*
G01X34367Y5144D02*
G01X35667Y5144D01*
G01X35667Y3745D01*
G01X34367Y3745D01*
G01X34367Y5144D01*
G37*
G36*
G01X36468Y5144D02*
G01X37768Y5144D01*
G01X37768Y3745D01*
G01X36468Y3745D01*
G01X36468Y5144D01*
G37*
G36*
G01X34367Y10732D02*
G01X35667Y10732D01*
G01X35667Y9333D01*
G01X34367Y9333D01*
G01X34367Y10732D01*
G37*
G36*
G01X36468Y10732D02*
G01X37768Y10732D01*
G01X37768Y9333D01*
G01X36468Y9333D01*
G01X36468Y10732D01*
G37*
G36*
G01X34367Y13526D02*
G01X35667Y13526D01*
G01X35667Y12127D01*
G01X34367Y12127D01*
G01X34367Y13526D01*
G37*
G36*
G01X36468Y13526D02*
G01X37768Y13526D01*
G01X37768Y12127D01*
G01X36468Y12127D01*
G01X36468Y13526D01*
G37*
G54D20*
G01X29701Y12192D03*
G01X27702Y12192D03*
G36*
G01X27202Y19317D02*
G01X28202Y19317D01*
G01X28202Y17766D01*
G01X27202Y17766D01*
G01X27202Y19317D01*
G37*
G36*
G01X29201Y19317D02*
G01X30201Y19317D01*
G01X30201Y17766D01*
G01X29201Y17766D01*
G01X29201Y19317D01*
G37*
G36*
G01X26978Y5550D02*
G01X28139Y5550D01*
G01X28139Y4101D01*
G01X26978Y4101D01*
G01X26978Y5550D01*
G37*
G36*
G01X29010Y5550D02*
G01X30171Y5550D01*
G01X30171Y4101D01*
G01X29010Y4101D01*
G01X29010Y5550D01*
G37*
G54D21*
G01X29591Y7366D03*
G01X27559Y7366D03*
G54D22*
G01X32385Y14367D03*
G01X32385Y16366D03*
G54D23*
G01X27601Y14566D03*
G36*
G01X30502Y15592D02*
G01X29464Y15591D01*
G01X29102Y15970D01*
G01X29102Y16742D01*
G01X30502Y16742D01*
G01X30502Y15592D01*
G37*
G01X29802Y14566D03*
G01X27601Y16167D03*
M00*
M02*
