G04 Layer: BottomSolderMaskLayer*
G04 EasyEDA v6.4.7, 2020-11-07T10:37:38+03:00*
G04 1389fe0e608b4a92a316d8f3135ec2f9,c683d62568ac4463b913f09dc326db1e,10*
G04 Gerber Generator version 0.2*
G04 Scale: 100 percent, Rotated: No, Reflected: No *
G04 Dimensions in millimeters *
G04 leading zeros omitted , absolute positions ,3 integer and 3 decimal *
%FSLAX33Y33*%
%MOMM*%
G90*
D02*

%ADD38C,1.778000*%
%ADD39R,1.778000X1.778000*%
%ADD46C,3.703193*%
%ADD47C,1.803197*%

%LPD*%
G36*
G01X10820Y9187D02*
G01X10820Y11170D01*
G01X14325Y11170D01*
G01X14325Y9187D01*
G01X10820Y9187D01*
G37*
G36*
G01X10820Y4577D02*
G01X10820Y6560D01*
G01X14325Y6560D01*
G01X14325Y4577D01*
G01X10820Y4577D01*
G37*
G54D38*
G01X40513Y21590D03*
G01X37973Y21590D03*
G01X35433Y21590D03*
G01X32893Y21590D03*
G01X30353Y21590D03*
G01X27813Y21590D03*
G01X25273Y21590D03*
G01X22733Y21590D03*
G01X20193Y21590D03*
G01X17653Y21590D03*
G01X15113Y21590D03*
G01X12573Y21590D03*
G01X10033Y21590D03*
G01X7493Y21590D03*
G36*
G01X4064Y20701D02*
G01X4064Y22479D01*
G01X5842Y22479D01*
G01X5842Y20701D01*
G01X4064Y20701D01*
G37*
G01X40513Y1524D03*
G01X37973Y1524D03*
G01X35433Y1524D03*
G01X32893Y1524D03*
G01X30353Y1524D03*
G01X27813Y1524D03*
G01X25273Y1524D03*
G01X22733Y1524D03*
G01X20193Y1524D03*
G01X17653Y1524D03*
G01X15113Y1524D03*
G01X12573Y1524D03*
G01X10033Y1524D03*
G01X7493Y1524D03*
G36*
G01X4064Y635D02*
G01X4064Y2413D01*
G01X5842Y2413D01*
G01X5842Y635D01*
G01X4064Y635D01*
G37*
G01X40767Y11176D03*
G01X43307Y11176D03*
G01X40767Y8636D03*
G01X43307Y8636D03*
G01X40767Y6096D03*
G54D39*
G01X43307Y6096D03*
G36*
G01X8191Y4526D02*
G01X8191Y5887D01*
G01X9842Y5887D01*
G01X9842Y4526D01*
G01X8191Y4526D01*
G37*
G36*
G01X8191Y6558D02*
G01X8191Y7919D01*
G01X9842Y7919D01*
G01X9842Y6558D01*
G01X8191Y6558D01*
G37*
G36*
G01X12971Y14744D02*
G01X12971Y16497D01*
G01X14175Y16497D01*
G01X14175Y14744D01*
G01X12971Y14744D01*
G37*
G36*
G01X10970Y14744D02*
G01X10970Y16497D01*
G01X12174Y16497D01*
G01X12174Y14744D01*
G01X10970Y14744D01*
G37*
G36*
G01X12971Y12331D02*
G01X12971Y14084D01*
G01X14175Y14084D01*
G01X14175Y12331D01*
G01X12971Y12331D01*
G37*
G36*
G01X10970Y12331D02*
G01X10970Y14084D01*
G01X12174Y14084D01*
G01X12174Y12331D01*
G01X10970Y12331D01*
G37*
G36*
G01X26718Y3949D02*
G01X26718Y5702D01*
G01X27922Y5702D01*
G01X27922Y3949D01*
G01X26718Y3949D01*
G37*
G36*
G01X28719Y3949D02*
G01X28719Y5702D01*
G01X29923Y5702D01*
G01X29923Y3949D01*
G01X28719Y3949D01*
G37*
G36*
G01X5473Y4620D02*
G01X5473Y5824D01*
G01X7226Y5824D01*
G01X7226Y4620D01*
G01X5473Y4620D01*
G37*
G36*
G01X5473Y6621D02*
G01X5473Y7825D01*
G01X7226Y7825D01*
G01X7226Y6621D01*
G01X5473Y6621D01*
G37*
G36*
G01X28719Y6616D02*
G01X28719Y8369D01*
G01X29923Y8369D01*
G01X29923Y6616D01*
G01X28719Y6616D01*
G37*
G36*
G01X26718Y6616D02*
G01X26718Y8369D01*
G01X27922Y8369D01*
G01X27922Y6616D01*
G01X26718Y6616D01*
G37*
G36*
G01X24528Y3949D02*
G01X24528Y5702D01*
G01X25732Y5702D01*
G01X25732Y3949D01*
G01X24528Y3949D01*
G37*
G36*
G01X22527Y3949D02*
G01X22527Y5702D01*
G01X23731Y5702D01*
G01X23731Y3949D01*
G01X22527Y3949D01*
G37*
G36*
G01X28719Y9156D02*
G01X28719Y10909D01*
G01X29923Y10909D01*
G01X29923Y9156D01*
G01X28719Y9156D01*
G37*
G36*
G01X26718Y9156D02*
G01X26718Y10909D01*
G01X27922Y10909D01*
G01X27922Y9156D01*
G01X26718Y9156D01*
G37*
G36*
G01X28719Y11823D02*
G01X28719Y13576D01*
G01X29923Y13576D01*
G01X29923Y11823D01*
G01X28719Y11823D01*
G37*
G36*
G01X26718Y11823D02*
G01X26718Y13576D01*
G01X27922Y13576D01*
G01X27922Y11823D01*
G01X26718Y11823D01*
G37*
G54D46*
G01X2614Y5536D03*
G01X2614Y17576D03*
G54D47*
G01X4784Y10306D03*
G01X4784Y12806D03*
G01X6784Y12806D03*
G01X6784Y10306D03*
M00*
M02*
