G04 Layer: TopSolderMaskLayer*
G04 EasyEDA v6.4.7, 2020-11-07T10:37:38+03:00*
G04 1389fe0e608b4a92a316d8f3135ec2f9,c683d62568ac4463b913f09dc326db1e,10*
G04 Gerber Generator version 0.2*
G04 Scale: 100 percent, Rotated: No, Reflected: No *
G04 Dimensions in millimeters *
G04 leading zeros omitted , absolute positions ,3 integer and 3 decimal *
%FSLAX33Y33*%
%MOMM*%
G90*
D02*

%ADD37C,0.703199*%
%ADD38C,1.778000*%
%ADD39R,1.778000X1.778000*%
%ADD46C,3.703193*%
%ADD47C,1.803197*%

%LPD*%
G54D37*
G01X19922Y3885D02*
G01X19002Y4804D01*
G01X20488Y4450D02*
G01X19568Y5369D01*
G01X21053Y5016D02*
G01X20134Y5935D01*
G01X21619Y5582D02*
G01X20700Y6501D01*
G01X22184Y6147D02*
G01X21265Y7066D01*
G01X22750Y6713D02*
G01X21831Y7632D01*
G01X23316Y7279D02*
G01X22397Y8198D01*
G01X23881Y7844D02*
G01X22962Y8763D01*
G01X24447Y8410D02*
G01X23528Y9329D01*
G01X25013Y8975D02*
G01X24094Y9895D01*
G01X25578Y9541D02*
G01X24659Y10461D01*
G01X24659Y12652D02*
G01X25578Y13572D01*
G01X24094Y13218D02*
G01X25013Y14138D01*
G01X23528Y13784D02*
G01X24447Y14703D01*
G01X22962Y14350D02*
G01X23881Y15269D01*
G01X22397Y14915D02*
G01X23316Y15834D01*
G01X21831Y15481D02*
G01X22750Y16400D01*
G01X21265Y16047D02*
G01X22184Y16966D01*
G01X20700Y16612D02*
G01X21619Y17531D01*
G01X20134Y17178D02*
G01X21053Y18097D01*
G01X19568Y17744D02*
G01X20488Y18663D01*
G01X19002Y18309D02*
G01X19922Y19228D01*
G01X16811Y18309D02*
G01X15891Y19228D01*
G01X16245Y17744D02*
G01X15325Y18663D01*
G01X15679Y17178D02*
G01X14760Y18097D01*
G01X15113Y16612D02*
G01X14194Y17531D01*
G01X14548Y16047D02*
G01X13629Y16966D01*
G01X13982Y15481D02*
G01X13063Y16400D01*
G01X13416Y14915D02*
G01X12497Y15834D01*
G01X12851Y14350D02*
G01X11932Y15269D01*
G01X12285Y13784D02*
G01X11366Y14703D01*
G01X11719Y13218D02*
G01X10800Y14138D01*
G01X11154Y12652D02*
G01X10235Y13572D01*
G01X10235Y9541D02*
G01X11154Y10461D01*
G01X10800Y8975D02*
G01X11719Y9895D01*
G01X11366Y8410D02*
G01X12285Y9329D01*
G01X11932Y7844D02*
G01X12851Y8763D01*
G01X12497Y7279D02*
G01X13416Y8198D01*
G01X13063Y6713D02*
G01X13982Y7632D01*
G01X13629Y6147D02*
G01X14548Y7066D01*
G01X14194Y5582D02*
G01X15113Y6501D01*
G01X14760Y5016D02*
G01X15679Y5935D01*
G01X15325Y4450D02*
G01X16245Y5369D01*
G01X15891Y3885D02*
G01X16811Y4804D01*
G54D38*
G01X40513Y21590D03*
G01X37973Y21590D03*
G01X35433Y21590D03*
G01X32893Y21590D03*
G01X30353Y21590D03*
G01X27813Y21590D03*
G01X25273Y21590D03*
G01X22733Y21590D03*
G01X20193Y21590D03*
G01X17653Y21590D03*
G01X15113Y21590D03*
G01X12573Y21590D03*
G01X10033Y21590D03*
G01X7493Y21590D03*
G36*
G01X4064Y20701D02*
G01X4064Y22479D01*
G01X5842Y22479D01*
G01X5842Y20701D01*
G01X4064Y20701D01*
G37*
G01X40513Y1524D03*
G01X37973Y1524D03*
G01X35433Y1524D03*
G01X32893Y1524D03*
G01X30353Y1524D03*
G01X27813Y1524D03*
G01X25273Y1524D03*
G01X22733Y1524D03*
G01X20193Y1524D03*
G01X17653Y1524D03*
G01X15113Y1524D03*
G01X12573Y1524D03*
G01X10033Y1524D03*
G01X7493Y1524D03*
G36*
G01X4064Y635D02*
G01X4064Y2413D01*
G01X5842Y2413D01*
G01X5842Y635D01*
G01X4064Y635D01*
G37*
G36*
G01X42519Y16670D02*
G01X42519Y17873D01*
G01X44221Y17873D01*
G01X44221Y16670D01*
G01X42519Y16670D01*
G37*
G36*
G01X34518Y16670D02*
G01X34518Y17873D01*
G01X36220Y17873D01*
G01X36220Y16670D01*
G01X34518Y16670D01*
G37*
G01X40767Y11176D03*
G01X43307Y11176D03*
G01X40767Y8636D03*
G01X43307Y8636D03*
G01X40767Y6096D03*
G54D39*
G01X43307Y6096D03*
G36*
G01X34267Y6436D02*
G01X34267Y8039D01*
G01X35770Y8039D01*
G01X35770Y6436D01*
G01X34267Y6436D01*
G37*
G36*
G01X36367Y6436D02*
G01X36367Y8039D01*
G01X37871Y8039D01*
G01X37871Y6436D01*
G01X36367Y6436D01*
G37*
G36*
G01X34267Y3642D02*
G01X34267Y5245D01*
G01X35770Y5245D01*
G01X35770Y3642D01*
G01X34267Y3642D01*
G37*
G36*
G01X36367Y3642D02*
G01X36367Y5245D01*
G01X37871Y5245D01*
G01X37871Y3642D01*
G01X36367Y3642D01*
G37*
G36*
G01X34267Y9230D02*
G01X34267Y10833D01*
G01X35770Y10833D01*
G01X35770Y9230D01*
G01X34267Y9230D01*
G37*
G36*
G01X36367Y9230D02*
G01X36367Y10833D01*
G01X37871Y10833D01*
G01X37871Y9230D01*
G01X36367Y9230D01*
G37*
G36*
G01X34267Y12024D02*
G01X34267Y13627D01*
G01X35770Y13627D01*
G01X35770Y12024D01*
G01X34267Y12024D01*
G37*
G36*
G01X36367Y12024D02*
G01X36367Y13627D01*
G01X37871Y13627D01*
G01X37871Y12024D01*
G01X36367Y12024D01*
G37*
G36*
G01X29100Y11315D02*
G01X29100Y13068D01*
G01X30304Y13068D01*
G01X30304Y11315D01*
G01X29100Y11315D01*
G37*
G36*
G01X27099Y11315D02*
G01X27099Y13068D01*
G01X28303Y13068D01*
G01X28303Y11315D01*
G01X27099Y11315D01*
G37*
G36*
G01X27099Y17665D02*
G01X27099Y19418D01*
G01X28303Y19418D01*
G01X28303Y17665D01*
G01X27099Y17665D01*
G37*
G36*
G01X29100Y17665D02*
G01X29100Y19418D01*
G01X30304Y19418D01*
G01X30304Y17665D01*
G01X29100Y17665D01*
G37*
G36*
G01X26878Y4000D02*
G01X26878Y5651D01*
G01X28239Y5651D01*
G01X28239Y4000D01*
G01X26878Y4000D01*
G37*
G36*
G01X28910Y4000D02*
G01X28910Y5651D01*
G01X30271Y5651D01*
G01X30271Y4000D01*
G01X28910Y4000D01*
G37*
G36*
G01X28910Y6540D02*
G01X28910Y8191D01*
G01X30271Y8191D01*
G01X30271Y6540D01*
G01X28910Y6540D01*
G37*
G36*
G01X26878Y6540D02*
G01X26878Y8191D01*
G01X28239Y8191D01*
G01X28239Y6540D01*
G01X26878Y6540D01*
G37*
G36*
G01X31508Y13764D02*
G01X31508Y14968D01*
G01X33261Y14968D01*
G01X33261Y13764D01*
G01X31508Y13764D01*
G37*
G36*
G01X31508Y15765D02*
G01X31508Y16969D01*
G01X33261Y16969D01*
G01X33261Y15765D01*
G01X31508Y15765D01*
G37*
G36*
G01X26799Y13891D02*
G01X26799Y15242D01*
G01X28404Y15242D01*
G01X28404Y13891D01*
G01X26799Y13891D01*
G37*
G36*
G01X29420Y15491D02*
G01X29001Y15930D01*
G01X29001Y16842D01*
G01X30604Y16842D01*
G01X30604Y15491D01*
G01X29420Y15491D01*
G37*
G36*
G01X29001Y13891D02*
G01X29001Y15242D01*
G01X30604Y15242D01*
G01X30604Y13891D01*
G01X29001Y13891D01*
G37*
G36*
G01X26799Y15491D02*
G01X26799Y16842D01*
G01X28404Y16842D01*
G01X28404Y15491D01*
G01X26799Y15491D01*
G37*
G54D46*
G01X2614Y5536D03*
G01X2614Y17576D03*
G54D47*
G01X4784Y10306D03*
G01X4784Y12806D03*
G01X6784Y12806D03*
G01X6784Y10306D03*
M00*
M02*
