G04 Layer: BottomPasteMaskLayer*
G04 EasyEDA v6.4.7, 2020-11-07T10:37:38+03:00*
G04 1389fe0e608b4a92a316d8f3135ec2f9,c683d62568ac4463b913f09dc326db1e,10*
G04 Gerber Generator version 0.2*
G04 Scale: 100 percent, Rotated: No, Reflected: No *
G04 Dimensions in millimeters *
G04 leading zeros omitted , absolute positions ,3 integer and 3 decimal *
%FSLAX33Y33*%
%MOMM*%
G90*
D02*


%LPD*%
G36*
G01X10922Y11068D02*
G01X10922Y9288D01*
G01X14223Y9288D01*
G01X14223Y11068D01*
G01X10922Y11068D01*
G37*
G36*
G01X10922Y6459D02*
G01X10922Y4679D01*
G01X14223Y4679D01*
G01X14223Y6459D01*
G01X10922Y6459D01*
G37*
G36*
G01X9741Y4626D02*
G01X9741Y5787D01*
G01X8292Y5787D01*
G01X8292Y4626D01*
G01X9741Y4626D01*
G37*
G36*
G01X9741Y6658D02*
G01X9741Y7819D01*
G01X8292Y7819D01*
G01X8292Y6658D01*
G01X9741Y6658D01*
G37*
G36*
G01X13072Y14845D02*
G01X14072Y14845D01*
G01X14072Y16396D01*
G01X13072Y16396D01*
G01X13072Y14845D01*
G37*
G36*
G01X11073Y14845D02*
G01X12073Y14845D01*
G01X12073Y16396D01*
G01X11073Y16396D01*
G01X11073Y14845D01*
G37*
G36*
G01X13072Y12432D02*
G01X14072Y12432D01*
G01X14072Y13983D01*
G01X13072Y13983D01*
G01X13072Y12432D01*
G37*
G36*
G01X11073Y12432D02*
G01X12073Y12432D01*
G01X12073Y13983D01*
G01X11073Y13983D01*
G01X11073Y12432D01*
G37*
G36*
G01X27821Y5601D02*
G01X26821Y5601D01*
G01X26821Y4050D01*
G01X27821Y4050D01*
G01X27821Y5601D01*
G37*
G36*
G01X29820Y5601D02*
G01X28820Y5601D01*
G01X28820Y4050D01*
G01X29820Y4050D01*
G01X29820Y5601D01*
G37*
G36*
G01X5574Y5723D02*
G01X5574Y4723D01*
G01X7125Y4723D01*
G01X7125Y5723D01*
G01X5574Y5723D01*
G37*
G36*
G01X5574Y7722D02*
G01X5574Y6722D01*
G01X7125Y6722D01*
G01X7125Y7722D01*
G01X5574Y7722D01*
G37*
G36*
G01X28820Y6717D02*
G01X29820Y6717D01*
G01X29820Y8268D01*
G01X28820Y8268D01*
G01X28820Y6717D01*
G37*
G36*
G01X26821Y6717D02*
G01X27821Y6717D01*
G01X27821Y8268D01*
G01X26821Y8268D01*
G01X26821Y6717D01*
G37*
G36*
G01X24629Y4050D02*
G01X25629Y4050D01*
G01X25629Y5601D01*
G01X24629Y5601D01*
G01X24629Y4050D01*
G37*
G36*
G01X22630Y4050D02*
G01X23630Y4050D01*
G01X23630Y5601D01*
G01X22630Y5601D01*
G01X22630Y4050D01*
G37*
G36*
G01X28820Y9257D02*
G01X29820Y9257D01*
G01X29820Y10808D01*
G01X28820Y10808D01*
G01X28820Y9257D01*
G37*
G36*
G01X26821Y9257D02*
G01X27821Y9257D01*
G01X27821Y10808D01*
G01X26821Y10808D01*
G01X26821Y9257D01*
G37*
G36*
G01X28820Y11924D02*
G01X29820Y11924D01*
G01X29820Y13475D01*
G01X28820Y13475D01*
G01X28820Y11924D01*
G37*
G36*
G01X26821Y11924D02*
G01X27821Y11924D01*
G01X27821Y13475D01*
G01X26821Y13475D01*
G01X26821Y11924D01*
G37*
M00*
M02*
