;Layer: Drill PTH
;EasyEDA v6.4.7, 2020-11-07T10:37:38+03:00
;1389fe0e608b4a92a316d8f3135ec2f9,c683d62568ac4463b913f09dc326db1e,10
;Gerber Generator version 0.2
M48
METRIC,LZ,000.000
;Holesize 1 = 0.305 METRIC
T01C0.305
;Holesize 2 = 0.889 METRIC
T02C0.889
;Holesize 3 = 1.000 METRIC
T03C1.000
;Holesize 4 = 2.501 METRIC
T04C2.501
%
G05
G90
T01
X+017653Y+014478
X+019177Y+012319
X+021209Y+019304
X+021844Y+018796
X+017018Y+008255
X+016637Y+016510
X+021844Y+013462
X+033782Y+007112
X+033401Y+010033
X+033401Y+012700
X+032004Y+018186
X+025908Y+014478
X+012192Y+003556
X+016256Y+006604
X+033147Y+004445
X+017145Y+011811
X+019304Y+008890
X+018542Y+008763
X+020447Y+015367
X+038735Y+011176
X+009144Y+013081
X+021336Y+011049
X+023987Y+006607
X+030861Y+004191
X+016002Y+007366
X+018796Y+011049
X+025654Y+008255
X+022225Y+010414
X+019558Y+014224
X+017907Y+019558
X+038735Y+007747
X+009398Y+008763
X+017272Y+003937
X+014478Y+004191
X+014986Y+008636
X+018415Y+010287
X+017145Y+010922
X+016002Y+009652
X+025908Y+006858
X+030988Y+006096
T02
X+040513Y+021590
X+037973Y+021590
X+035433Y+021590
X+032893Y+021590
X+030353Y+021590
X+027813Y+021590
X+025273Y+021590
X+022733Y+021590
X+020193Y+021590
X+017653Y+021590
X+015113Y+021590
X+012573Y+021590
X+010033Y+021590
X+007493Y+021590
X+004953Y+021590
X+040513Y+001524
X+037973Y+001524
X+035433Y+001524
X+032893Y+001524
X+030353Y+001524
X+027813Y+001524
X+025273Y+001524
X+022733Y+001524
X+020193Y+001524
X+017653Y+001524
X+015113Y+001524
X+012573Y+001524
X+010033Y+001524
X+007493Y+001524
X+004953Y+001524
X+040767Y+011176
X+043307Y+011176
X+040767Y+008636
X+043307Y+008636
X+040767Y+006096
X+043307Y+006096
T03
X+004784Y+010307
X+004784Y+012807
X+006784Y+012807
X+006784Y+010307
T04
X+002614Y+005536
X+002614Y+017577
M30
