G04 Layer: BottomLayer*
G04 EasyEDA v6.4.7, 2020-11-07T10:37:38+03:00*
G04 1389fe0e608b4a92a316d8f3135ec2f9,c683d62568ac4463b913f09dc326db1e,10*
G04 Gerber Generator version 0.2*
G04 Scale: 100 percent, Rotated: No, Reflected: No *
G04 Dimensions in millimeters *
G04 leading zeros omitted , absolute positions ,3 integer and 3 decimal *
%FSLAX33Y33*%
%MOMM*%
G90*
D02*

%ADD10C,0.254000*%
%ADD11C,0.399999*%
%ADD12C,0.499999*%
%ADD14C,0.599999*%
%ADD15C,0.609600*%
%ADD16C,0.700024*%
%ADD17C,0.649986*%
%ADD24C,1.574800*%
%ADD25R,1.574800X1.574800*%
%ADD26C,3.499993*%
%ADD27C,1.599997*%
%ADD28C,0.899998*%

%LPD*%
G36*
G01X42579Y22857D02*
G01X2378Y22857D01*
G01X2363Y22856D01*
G01X2349Y22853D01*
G01X2336Y22848D01*
G01X2323Y22841D01*
G01X2311Y22832D01*
G01X2301Y22822D01*
G01X2293Y22810D01*
G01X2286Y22798D01*
G01X2280Y22784D01*
G01X2277Y22770D01*
G01X2276Y22755D01*
G01X2277Y22741D01*
G01X2280Y22726D01*
G01X2286Y22713D01*
G01X2293Y22700D01*
G01X2302Y22688D01*
G01X2312Y22678D01*
G01X2324Y22669D01*
G01X2367Y22641D01*
G01X2409Y22611D01*
G01X2450Y22580D01*
G01X2490Y22546D01*
G01X2527Y22512D01*
G01X2564Y22475D01*
G01X2599Y22437D01*
G01X2633Y22398D01*
G01X2665Y22358D01*
G01X2695Y22316D01*
G01X2724Y22273D01*
G01X2750Y22229D01*
G01X2776Y22184D01*
G01X2799Y22138D01*
G01X2820Y22091D01*
G01X2839Y22043D01*
G01X2857Y21995D01*
G01X2872Y21946D01*
G01X2885Y21896D01*
G01X2897Y21846D01*
G01X2906Y21795D01*
G01X2914Y21744D01*
G01X2919Y21693D01*
G01X2922Y21641D01*
G01X2923Y21590D01*
G01X2922Y21538D01*
G01X2919Y21487D01*
G01X2914Y21436D01*
G01X2907Y21385D01*
G01X2897Y21335D01*
G01X2886Y21285D01*
G01X2873Y21235D01*
G01X2858Y21187D01*
G01X2840Y21138D01*
G01X2821Y21091D01*
G01X2800Y21044D01*
G01X2777Y20998D01*
G01X2752Y20953D01*
G01X2726Y20909D01*
G01X2698Y20867D01*
G01X2668Y20825D01*
G01X2636Y20785D01*
G01X2603Y20746D01*
G01X2568Y20708D01*
G01X2532Y20672D01*
G01X2494Y20637D01*
G01X2455Y20604D01*
G01X2415Y20572D01*
G01X2373Y20542D01*
G01X2331Y20514D01*
G01X2287Y20488D01*
G01X2242Y20463D01*
G01X2196Y20440D01*
G01X2149Y20419D01*
G01X2102Y20400D01*
G01X2053Y20382D01*
G01X2005Y20367D01*
G01X1955Y20354D01*
G01X1905Y20343D01*
G01X1855Y20333D01*
G01X1804Y20326D01*
G01X1753Y20321D01*
G01X1702Y20318D01*
G01X1651Y20317D01*
G01X1599Y20318D01*
G01X1547Y20321D01*
G01X1495Y20327D01*
G01X1444Y20334D01*
G01X1392Y20343D01*
G01X1342Y20355D01*
G01X1292Y20369D01*
G01X1242Y20384D01*
G01X1193Y20402D01*
G01X1145Y20422D01*
G01X1098Y20443D01*
G01X1052Y20467D01*
G01X1006Y20492D01*
G01X962Y20519D01*
G01X919Y20548D01*
G01X877Y20579D01*
G01X836Y20612D01*
G01X797Y20646D01*
G01X759Y20681D01*
G01X723Y20718D01*
G01X688Y20757D01*
G01X655Y20797D01*
G01X623Y20838D01*
G01X593Y20881D01*
G01X565Y20925D01*
G01X540Y20969D01*
G01X515Y21015D01*
G01X492Y21062D01*
G01X472Y21110D01*
G01X453Y21158D01*
G01X447Y21172D01*
G01X438Y21186D01*
G01X428Y21197D01*
G01X416Y21207D01*
G01X403Y21215D01*
G01X388Y21221D01*
G01X373Y21224D01*
G01X358Y21225D01*
G01X343Y21224D01*
G01X329Y21221D01*
G01X315Y21216D01*
G01X303Y21210D01*
G01X291Y21201D01*
G01X281Y21190D01*
G01X272Y21179D01*
G01X265Y21166D01*
G01X260Y21153D01*
G01X257Y21138D01*
G01X256Y21124D01*
G01X256Y1989D01*
G01X257Y1975D01*
G01X260Y1960D01*
G01X265Y1947D01*
G01X272Y1934D01*
G01X281Y1923D01*
G01X291Y1912D01*
G01X303Y1903D01*
G01X315Y1897D01*
G01X329Y1892D01*
G01X343Y1889D01*
G01X358Y1888D01*
G01X373Y1889D01*
G01X388Y1892D01*
G01X403Y1898D01*
G01X416Y1906D01*
G01X428Y1916D01*
G01X438Y1927D01*
G01X447Y1941D01*
G01X453Y1955D01*
G01X472Y2003D01*
G01X492Y2051D01*
G01X515Y2098D01*
G01X540Y2144D01*
G01X565Y2188D01*
G01X593Y2232D01*
G01X623Y2275D01*
G01X655Y2316D01*
G01X688Y2356D01*
G01X723Y2395D01*
G01X759Y2432D01*
G01X797Y2467D01*
G01X836Y2501D01*
G01X877Y2534D01*
G01X919Y2565D01*
G01X962Y2594D01*
G01X1006Y2621D01*
G01X1052Y2646D01*
G01X1098Y2670D01*
G01X1145Y2691D01*
G01X1193Y2711D01*
G01X1242Y2729D01*
G01X1292Y2744D01*
G01X1342Y2758D01*
G01X1392Y2770D01*
G01X1444Y2779D01*
G01X1495Y2786D01*
G01X1547Y2792D01*
G01X1599Y2795D01*
G01X1651Y2796D01*
G01X1702Y2795D01*
G01X1753Y2792D01*
G01X1804Y2787D01*
G01X1855Y2780D01*
G01X1905Y2770D01*
G01X1955Y2759D01*
G01X2005Y2746D01*
G01X2053Y2731D01*
G01X2102Y2713D01*
G01X2149Y2694D01*
G01X2196Y2673D01*
G01X2242Y2650D01*
G01X2287Y2625D01*
G01X2331Y2599D01*
G01X2373Y2571D01*
G01X2415Y2541D01*
G01X2455Y2509D01*
G01X2494Y2476D01*
G01X2532Y2441D01*
G01X2568Y2405D01*
G01X2603Y2367D01*
G01X2636Y2328D01*
G01X2668Y2288D01*
G01X2698Y2246D01*
G01X2726Y2204D01*
G01X2752Y2160D01*
G01X2777Y2115D01*
G01X2800Y2069D01*
G01X2821Y2022D01*
G01X2840Y1975D01*
G01X2858Y1926D01*
G01X2873Y1878D01*
G01X2886Y1828D01*
G01X2897Y1778D01*
G01X2907Y1728D01*
G01X2914Y1677D01*
G01X2919Y1626D01*
G01X2922Y1575D01*
G01X2923Y1524D01*
G01X2922Y1472D01*
G01X2919Y1420D01*
G01X2914Y1369D01*
G01X2906Y1318D01*
G01X2897Y1267D01*
G01X2885Y1217D01*
G01X2872Y1167D01*
G01X2857Y1118D01*
G01X2839Y1070D01*
G01X2820Y1022D01*
G01X2799Y975D01*
G01X2776Y929D01*
G01X2750Y884D01*
G01X2724Y840D01*
G01X2695Y797D01*
G01X2665Y755D01*
G01X2633Y715D01*
G01X2599Y676D01*
G01X2564Y638D01*
G01X2527Y601D01*
G01X2490Y567D01*
G01X2450Y533D01*
G01X2409Y502D01*
G01X2367Y472D01*
G01X2324Y444D01*
G01X2312Y435D01*
G01X2302Y425D01*
G01X2293Y413D01*
G01X2286Y400D01*
G01X2280Y387D01*
G01X2277Y372D01*
G01X2276Y358D01*
G01X2277Y343D01*
G01X2280Y329D01*
G01X2286Y315D01*
G01X2293Y303D01*
G01X2301Y291D01*
G01X2311Y281D01*
G01X2323Y272D01*
G01X2336Y265D01*
G01X2349Y260D01*
G01X2363Y257D01*
G01X2378Y256D01*
G01X5940Y256D01*
G01X5955Y257D01*
G01X5969Y260D01*
G01X5983Y265D01*
G01X5995Y272D01*
G01X6007Y281D01*
G01X6017Y291D01*
G01X6026Y303D01*
G01X6033Y315D01*
G01X6038Y329D01*
G01X6041Y343D01*
G01X6042Y358D01*
G01X6041Y373D01*
G01X6037Y389D01*
G01X6031Y404D01*
G01X6022Y418D01*
G01X6012Y429D01*
G01X5960Y482D01*
G01X5948Y492D01*
G01X5934Y500D01*
G01X5919Y506D01*
G01X5904Y511D01*
G01X5888Y512D01*
G01X5874Y511D01*
G01X5859Y508D01*
G01X5846Y502D01*
G01X5821Y493D01*
G01X5794Y485D01*
G01X5767Y481D01*
G01X5740Y480D01*
G01X4165Y480D01*
G01X4141Y481D01*
G01X4118Y484D01*
G01X4095Y489D01*
G01X4073Y497D01*
G01X4051Y506D01*
G01X4030Y518D01*
G01X4011Y531D01*
G01X3992Y547D01*
G01X3976Y563D01*
G01X3960Y582D01*
G01X3947Y601D01*
G01X3935Y622D01*
G01X3926Y644D01*
G01X3918Y666D01*
G01X3913Y689D01*
G01X3910Y712D01*
G01X3909Y736D01*
G01X3909Y2311D01*
G01X3910Y2335D01*
G01X3913Y2358D01*
G01X3918Y2381D01*
G01X3926Y2403D01*
G01X3935Y2425D01*
G01X3947Y2446D01*
G01X3960Y2465D01*
G01X3976Y2484D01*
G01X3992Y2500D01*
G01X4011Y2516D01*
G01X4030Y2529D01*
G01X4051Y2541D01*
G01X4073Y2550D01*
G01X4095Y2558D01*
G01X4118Y2563D01*
G01X4141Y2566D01*
G01X4165Y2567D01*
G01X5740Y2567D01*
G01X5767Y2566D01*
G01X5794Y2562D01*
G01X5821Y2554D01*
G01X5846Y2545D01*
G01X5859Y2540D01*
G01X5874Y2536D01*
G01X5888Y2535D01*
G01X5904Y2536D01*
G01X5919Y2541D01*
G01X5934Y2547D01*
G01X5948Y2555D01*
G01X5960Y2565D01*
G01X6586Y3192D01*
G01X6609Y3212D01*
G01X6632Y3231D01*
G01X6657Y3248D01*
G01X6683Y3262D01*
G01X6711Y3275D01*
G01X6739Y3285D01*
G01X6768Y3293D01*
G01X6798Y3299D01*
G01X6828Y3303D01*
G01X6858Y3304D01*
G01X7037Y3304D01*
G01X7054Y3305D01*
G01X7069Y3309D01*
G01X7084Y3315D01*
G01X7097Y3323D01*
G01X7109Y3334D01*
G01X8095Y4320D01*
G01X8106Y4332D01*
G01X8114Y4345D01*
G01X8120Y4360D01*
G01X8123Y4375D01*
G01X8125Y4391D01*
G01X8124Y4406D01*
G01X8121Y4420D01*
G01X8115Y4434D01*
G01X8109Y4447D01*
G01X8100Y4458D01*
G01X8085Y4477D01*
G01X8073Y4495D01*
G01X8061Y4516D01*
G01X8052Y4537D01*
G01X8045Y4559D01*
G01X8040Y4582D01*
G01X8037Y4605D01*
G01X8036Y4627D01*
G01X8036Y5786D01*
G01X8037Y5809D01*
G01X8041Y5833D01*
G01X8046Y5856D01*
G01X8053Y5878D01*
G01X8063Y5900D01*
G01X8075Y5921D01*
G01X8088Y5940D01*
G01X8103Y5958D01*
G01X8120Y5975D01*
G01X8138Y5990D01*
G01X8157Y6004D01*
G01X8178Y6015D01*
G01X8200Y6025D01*
G01X8222Y6033D01*
G01X8245Y6038D01*
G01X8269Y6041D01*
G01X8293Y6042D01*
G01X9740Y6042D01*
G01X9764Y6041D01*
G01X9788Y6038D01*
G01X9811Y6033D01*
G01X9833Y6025D01*
G01X9855Y6015D01*
G01X9876Y6004D01*
G01X9895Y5990D01*
G01X9913Y5975D01*
G01X9930Y5958D01*
G01X9945Y5940D01*
G01X9958Y5921D01*
G01X9970Y5900D01*
G01X9980Y5878D01*
G01X9987Y5856D01*
G01X9992Y5833D01*
G01X9996Y5809D01*
G01X9997Y5786D01*
G01X9997Y4627D01*
G01X9996Y4604D01*
G01X9992Y4580D01*
G01X9987Y4557D01*
G01X9980Y4535D01*
G01X9970Y4513D01*
G01X9958Y4492D01*
G01X9945Y4473D01*
G01X9930Y4455D01*
G01X9913Y4438D01*
G01X9895Y4423D01*
G01X9876Y4409D01*
G01X9855Y4398D01*
G01X9833Y4388D01*
G01X9811Y4380D01*
G01X9788Y4375D01*
G01X9764Y4372D01*
G01X9740Y4371D01*
G01X9274Y4371D01*
G01X9257Y4370D01*
G01X9242Y4366D01*
G01X9227Y4360D01*
G01X9214Y4352D01*
G01X9201Y4341D01*
G01X7589Y2728D01*
G01X7578Y2716D01*
G01X7570Y2703D01*
G01X7564Y2688D01*
G01X7561Y2673D01*
G01X7559Y2657D01*
G01X7560Y2642D01*
G01X7563Y2628D01*
G01X7568Y2615D01*
G01X7575Y2602D01*
G01X7584Y2590D01*
G01X7594Y2580D01*
G01X7605Y2572D01*
G01X7618Y2564D01*
G01X7632Y2559D01*
G01X7646Y2556D01*
G01X7673Y2552D01*
G01X7690Y2550D01*
G01X7706Y2552D01*
G01X7722Y2555D01*
G01X7736Y2561D01*
G01X7750Y2569D01*
G01X7762Y2580D01*
G01X8623Y3441D01*
G01X8648Y3464D01*
G01X8673Y3485D01*
G01X8701Y3506D01*
G01X8728Y3524D01*
G01X8758Y3540D01*
G01X8788Y3555D01*
G01X8819Y3568D01*
G01X8851Y3579D01*
G01X8883Y3588D01*
G01X8916Y3595D01*
G01X8949Y3600D01*
G01X8983Y3603D01*
G01X9017Y3604D01*
G01X9887Y3604D01*
G01X9903Y3605D01*
G01X9918Y3609D01*
G01X9933Y3615D01*
G01X9947Y3624D01*
G01X9959Y3634D01*
G01X10711Y4386D01*
G01X10721Y4398D01*
G01X10729Y4412D01*
G01X10736Y4427D01*
G01X10740Y4442D01*
G01X10741Y4458D01*
G01X10739Y4474D01*
G01X10735Y4491D01*
G01X10728Y4506D01*
G01X10719Y4520D01*
G01X10705Y4540D01*
G01X10693Y4561D01*
G01X10683Y4583D01*
G01X10675Y4607D01*
G01X10670Y4630D01*
G01X10666Y4654D01*
G01X10665Y4678D01*
G01X10665Y6459D01*
G01X10666Y6483D01*
G01X10670Y6506D01*
G01X10675Y6529D01*
G01X10682Y6551D01*
G01X10692Y6573D01*
G01X10704Y6594D01*
G01X10717Y6613D01*
G01X10732Y6631D01*
G01X10749Y6648D01*
G01X10767Y6663D01*
G01X10786Y6677D01*
G01X10807Y6688D01*
G01X10829Y6698D01*
G01X10851Y6706D01*
G01X10874Y6711D01*
G01X10898Y6714D01*
G01X10922Y6715D01*
G01X14224Y6715D01*
G01X14247Y6714D01*
G01X14271Y6711D01*
G01X14294Y6706D01*
G01X14316Y6698D01*
G01X14338Y6688D01*
G01X14359Y6677D01*
G01X14378Y6663D01*
G01X14396Y6648D01*
G01X14413Y6631D01*
G01X14428Y6613D01*
G01X14441Y6594D01*
G01X14453Y6573D01*
G01X14463Y6551D01*
G01X14470Y6529D01*
G01X14475Y6506D01*
G01X14479Y6483D01*
G01X14480Y6459D01*
G01X14480Y4678D01*
G01X14479Y4654D01*
G01X14475Y4631D01*
G01X14470Y4608D01*
G01X14463Y4586D01*
G01X14453Y4564D01*
G01X14441Y4543D01*
G01X14428Y4524D01*
G01X14413Y4505D01*
G01X14396Y4489D01*
G01X14378Y4473D01*
G01X14359Y4460D01*
G01X14338Y4449D01*
G01X14316Y4439D01*
G01X14294Y4431D01*
G01X14271Y4426D01*
G01X14247Y4423D01*
G01X14224Y4422D01*
G01X13501Y4422D01*
G01X13486Y4421D01*
G01X13472Y4418D01*
G01X13458Y4412D01*
G01X13446Y4405D01*
G01X13434Y4397D01*
G01X13424Y4387D01*
G01X13415Y4375D01*
G01X13408Y4362D01*
G01X13403Y4348D01*
G01X13400Y4335D01*
G01X13399Y4320D01*
G01X13401Y4304D01*
G01X13404Y4289D01*
G01X13410Y4274D01*
G01X13418Y4260D01*
G01X13429Y4248D01*
G01X13789Y3888D01*
G01X13801Y3878D01*
G01X13815Y3869D01*
G01X13830Y3863D01*
G01X13845Y3859D01*
G01X13861Y3858D01*
G01X16364Y3858D01*
G01X16380Y3859D01*
G01X16395Y3863D01*
G01X16410Y3869D01*
G01X16424Y3878D01*
G01X16436Y3888D01*
G01X16748Y4201D01*
G01X16765Y4223D01*
G01X16784Y4253D01*
G01X16805Y4283D01*
G01X16827Y4311D01*
G01X16851Y4338D01*
G01X16877Y4364D01*
G01X16904Y4387D01*
G01X16933Y4409D01*
G01X16963Y4429D01*
G01X16994Y4448D01*
G01X17026Y4464D01*
G01X17060Y4478D01*
G01X17094Y4490D01*
G01X17128Y4500D01*
G01X17164Y4508D01*
G01X17199Y4514D01*
G01X17235Y4517D01*
G01X17272Y4518D01*
G01X17308Y4517D01*
G01X17345Y4514D01*
G01X17381Y4507D01*
G01X17417Y4499D01*
G01X17452Y4489D01*
G01X17487Y4477D01*
G01X17520Y4462D01*
G01X17553Y4445D01*
G01X17585Y4426D01*
G01X17615Y4405D01*
G01X17629Y4397D01*
G01X17644Y4391D01*
G01X17660Y4387D01*
G01X17675Y4386D01*
G01X17690Y4387D01*
G01X17704Y4390D01*
G01X17718Y4395D01*
G01X17730Y4402D01*
G01X17742Y4410D01*
G01X17752Y4421D01*
G01X17761Y4432D01*
G01X17768Y4446D01*
G01X17773Y4459D01*
G01X17776Y4473D01*
G01X17777Y4488D01*
G01X17777Y5132D01*
G01X17776Y5149D01*
G01X17772Y5164D01*
G01X17766Y5179D01*
G01X17758Y5192D01*
G01X17747Y5204D01*
G01X16888Y6063D01*
G01X16876Y6074D01*
G01X16863Y6082D01*
G01X16848Y6088D01*
G01X16833Y6092D01*
G01X16816Y6093D01*
G01X16510Y6093D01*
G01X16490Y6091D01*
G01X16471Y6085D01*
G01X16436Y6072D01*
G01X16401Y6061D01*
G01X16365Y6053D01*
G01X16329Y6047D01*
G01X16293Y6043D01*
G01X16256Y6042D01*
G01X16221Y6043D01*
G01X16188Y6046D01*
G01X16154Y6051D01*
G01X16121Y6058D01*
G01X16088Y6068D01*
G01X16056Y6079D01*
G01X16025Y6091D01*
G01X15994Y6107D01*
G01X15965Y6123D01*
G01X15936Y6142D01*
G01X15910Y6162D01*
G01X15883Y6183D01*
G01X15835Y6231D01*
G01X15814Y6258D01*
G01X15794Y6284D01*
G01X15775Y6313D01*
G01X15759Y6342D01*
G01X15743Y6373D01*
G01X15731Y6404D01*
G01X15720Y6436D01*
G01X15710Y6469D01*
G01X15703Y6502D01*
G01X15698Y6536D01*
G01X15695Y6569D01*
G01X15694Y6604D01*
G01X15695Y6641D01*
G01X15699Y6677D01*
G01X15705Y6714D01*
G01X15713Y6750D01*
G01X15724Y6785D01*
G01X15728Y6801D01*
G01X15730Y6818D01*
G01X15728Y6834D01*
G01X15725Y6850D01*
G01X15718Y6865D01*
G01X15709Y6879D01*
G01X15698Y6892D01*
G01X15686Y6902D01*
G01X15658Y6922D01*
G01X15632Y6943D01*
G01X15606Y6967D01*
G01X15583Y6992D01*
G01X15561Y7018D01*
G01X15541Y7045D01*
G01X15522Y7073D01*
G01X15505Y7103D01*
G01X15490Y7134D01*
G01X15477Y7165D01*
G01X15466Y7197D01*
G01X15456Y7230D01*
G01X15449Y7264D01*
G01X15444Y7297D01*
G01X15441Y7331D01*
G01X15440Y7366D01*
G01X15441Y7400D01*
G01X15444Y7433D01*
G01X15449Y7467D01*
G01X15456Y7500D01*
G01X15466Y7533D01*
G01X15477Y7565D01*
G01X15489Y7596D01*
G01X15505Y7627D01*
G01X15521Y7656D01*
G01X15540Y7685D01*
G01X15560Y7711D01*
G01X15581Y7738D01*
G01X15629Y7786D01*
G01X15656Y7807D01*
G01X15682Y7827D01*
G01X15711Y7846D01*
G01X15740Y7862D01*
G01X15771Y7878D01*
G01X15802Y7890D01*
G01X15834Y7901D01*
G01X15867Y7911D01*
G01X15900Y7918D01*
G01X15934Y7923D01*
G01X15967Y7926D01*
G01X16002Y7927D01*
G01X16037Y7926D01*
G01X16072Y7922D01*
G01X16106Y7917D01*
G01X16140Y7910D01*
G01X16174Y7900D01*
G01X16207Y7888D01*
G01X16239Y7874D01*
G01X16271Y7858D01*
G01X16301Y7840D01*
G01X16330Y7821D01*
G01X16358Y7799D01*
G01X16384Y7776D01*
G01X16396Y7767D01*
G01X16409Y7759D01*
G01X16423Y7754D01*
G01X16438Y7750D01*
G01X16453Y7749D01*
G01X16492Y7749D01*
G01X16506Y7750D01*
G01X16520Y7753D01*
G01X16534Y7758D01*
G01X16547Y7765D01*
G01X16558Y7774D01*
G01X16568Y7784D01*
G01X16577Y7796D01*
G01X16584Y7808D01*
G01X16589Y7822D01*
G01X16592Y7836D01*
G01X16593Y7851D01*
G01X16592Y7867D01*
G01X16588Y7883D01*
G01X16581Y7898D01*
G01X16572Y7913D01*
G01X16551Y7943D01*
G01X16531Y7974D01*
G01X16514Y8006D01*
G01X16499Y8040D01*
G01X16486Y8074D01*
G01X16475Y8109D01*
G01X16467Y8145D01*
G01X16461Y8181D01*
G01X16457Y8218D01*
G01X16456Y8255D01*
G01X16457Y8289D01*
G01X16460Y8323D01*
G01X16465Y8356D01*
G01X16472Y8390D01*
G01X16482Y8422D01*
G01X16493Y8455D01*
G01X16506Y8486D01*
G01X16521Y8517D01*
G01X16538Y8546D01*
G01X16557Y8575D01*
G01X16577Y8602D01*
G01X16599Y8628D01*
G01X16622Y8653D01*
G01X16647Y8676D01*
G01X16674Y8698D01*
G01X16701Y8718D01*
G01X16730Y8737D01*
G01X16759Y8753D01*
G01X16790Y8768D01*
G01X16822Y8781D01*
G01X16854Y8791D01*
G01X16887Y8801D01*
G01X16920Y8807D01*
G01X16954Y8812D01*
G01X16969Y8815D01*
G01X16982Y8820D01*
G01X16996Y8827D01*
G01X17008Y8835D01*
G01X17019Y8845D01*
G01X17028Y8857D01*
G01X17035Y8870D01*
G01X17040Y8884D01*
G01X17043Y8899D01*
G01X17044Y8913D01*
G01X17043Y8929D01*
G01X17039Y8944D01*
G01X17033Y8959D01*
G01X17025Y8973D01*
G01X17014Y8985D01*
G01X13853Y12146D01*
G01X13841Y12157D01*
G01X13827Y12165D01*
G01X13813Y12171D01*
G01X13797Y12175D01*
G01X13781Y12176D01*
G01X13073Y12176D01*
G01X13049Y12177D01*
G01X13026Y12181D01*
G01X13003Y12186D01*
G01X12980Y12194D01*
G01X12959Y12203D01*
G01X12938Y12215D01*
G01X12918Y12228D01*
G01X12900Y12243D01*
G01X12883Y12260D01*
G01X12868Y12278D01*
G01X12855Y12298D01*
G01X12843Y12319D01*
G01X12834Y12340D01*
G01X12826Y12363D01*
G01X12821Y12386D01*
G01X12817Y12409D01*
G01X12816Y12433D01*
G01X12816Y13982D01*
G01X12817Y14006D01*
G01X12821Y14029D01*
G01X12826Y14052D01*
G01X12834Y14075D01*
G01X12843Y14097D01*
G01X12855Y14117D01*
G01X12868Y14137D01*
G01X12883Y14155D01*
G01X12900Y14172D01*
G01X12918Y14187D01*
G01X12938Y14200D01*
G01X12959Y14212D01*
G01X12980Y14221D01*
G01X13003Y14229D01*
G01X13026Y14234D01*
G01X13049Y14238D01*
G01X13073Y14239D01*
G01X13928Y14239D01*
G01X13943Y14240D01*
G01X13957Y14243D01*
G01X13971Y14248D01*
G01X13984Y14255D01*
G01X13995Y14264D01*
G01X14006Y14274D01*
G01X14014Y14285D01*
G01X14021Y14298D01*
G01X14026Y14312D01*
G01X14029Y14326D01*
G01X14030Y14340D01*
G01X14029Y14356D01*
G01X14025Y14372D01*
G01X14019Y14387D01*
G01X14011Y14400D01*
G01X14000Y14412D01*
G01X13853Y14559D01*
G01X13841Y14570D01*
G01X13827Y14578D01*
G01X13813Y14584D01*
G01X13797Y14588D01*
G01X13781Y14589D01*
G01X13073Y14589D01*
G01X13049Y14590D01*
G01X13026Y14594D01*
G01X13003Y14599D01*
G01X12980Y14607D01*
G01X12959Y14616D01*
G01X12938Y14628D01*
G01X12918Y14641D01*
G01X12900Y14656D01*
G01X12883Y14673D01*
G01X12868Y14691D01*
G01X12855Y14711D01*
G01X12843Y14732D01*
G01X12834Y14753D01*
G01X12826Y14776D01*
G01X12821Y14799D01*
G01X12817Y14822D01*
G01X12816Y14846D01*
G01X12816Y16395D01*
G01X12817Y16419D01*
G01X12821Y16442D01*
G01X12826Y16465D01*
G01X12834Y16488D01*
G01X12843Y16510D01*
G01X12855Y16530D01*
G01X12868Y16550D01*
G01X12883Y16568D01*
G01X12900Y16585D01*
G01X12918Y16600D01*
G01X12938Y16613D01*
G01X12959Y16625D01*
G01X12980Y16634D01*
G01X13003Y16642D01*
G01X13026Y16647D01*
G01X13049Y16651D01*
G01X13073Y16652D01*
G01X14074Y16652D01*
G01X14098Y16651D01*
G01X14121Y16647D01*
G01X14144Y16642D01*
G01X14166Y16634D01*
G01X14188Y16625D01*
G01X14209Y16613D01*
G01X14228Y16600D01*
G01X14246Y16585D01*
G01X14263Y16568D01*
G01X14278Y16550D01*
G01X14292Y16530D01*
G01X14303Y16510D01*
G01X14313Y16488D01*
G01X14321Y16465D01*
G01X14326Y16442D01*
G01X14329Y16419D01*
G01X14330Y16395D01*
G01X14330Y15210D01*
G01X14331Y15193D01*
G01X14335Y15178D01*
G01X14341Y15163D01*
G01X14349Y15150D01*
G01X14360Y15137D01*
G01X15003Y14495D01*
G01X15023Y14472D01*
G01X15042Y14449D01*
G01X15059Y14424D01*
G01X15073Y14398D01*
G01X15086Y14370D01*
G01X15096Y14342D01*
G01X15104Y14313D01*
G01X15110Y14283D01*
G01X15114Y14253D01*
G01X15115Y14224D01*
G01X15115Y12647D01*
G01X15116Y12630D01*
G01X15120Y12615D01*
G01X15126Y12600D01*
G01X15134Y12587D01*
G01X15145Y12575D01*
G01X17909Y9811D01*
G01X17921Y9800D01*
G01X17934Y9792D01*
G01X17949Y9786D01*
G01X17964Y9782D01*
G01X17981Y9781D01*
G01X18796Y9781D01*
G01X18825Y9780D01*
G01X18855Y9776D01*
G01X18885Y9770D01*
G01X18914Y9762D01*
G01X18942Y9752D01*
G01X18970Y9739D01*
G01X18996Y9725D01*
G01X19021Y9708D01*
G01X19044Y9689D01*
G01X19067Y9669D01*
G01X19255Y9480D01*
G01X19267Y9470D01*
G01X19280Y9462D01*
G01X19294Y9456D01*
G01X19309Y9452D01*
G01X19323Y9450D01*
G01X19358Y9448D01*
G01X19392Y9444D01*
G01X19426Y9437D01*
G01X19459Y9429D01*
G01X19492Y9418D01*
G01X19524Y9406D01*
G01X19555Y9391D01*
G01X19586Y9375D01*
G01X19615Y9356D01*
G01X19643Y9337D01*
G01X19670Y9315D01*
G01X19695Y9291D01*
G01X19719Y9267D01*
G01X19741Y9241D01*
G01X19762Y9213D01*
G01X19781Y9184D01*
G01X19798Y9154D01*
G01X19814Y9124D01*
G01X19827Y9092D01*
G01X19838Y9059D01*
G01X19848Y9026D01*
G01X19855Y8992D01*
G01X19861Y8958D01*
G01X19864Y8924D01*
G01X19865Y8890D01*
G01X19864Y8853D01*
G01X19860Y8816D01*
G01X19854Y8780D01*
G01X19846Y8745D01*
G01X19835Y8710D01*
G01X19822Y8675D01*
G01X19807Y8642D01*
G01X19790Y8610D01*
G01X19783Y8593D01*
G01X19778Y8576D01*
G01X19776Y8559D01*
G01X19777Y8544D01*
G01X19781Y8530D01*
G01X19786Y8517D01*
G01X19793Y8504D01*
G01X19801Y8492D01*
G01X19812Y8482D01*
G01X19823Y8473D01*
G01X19836Y8466D01*
G01X19850Y8461D01*
G01X19863Y8458D01*
G01X19878Y8457D01*
G01X20955Y8457D01*
G01X20987Y8456D01*
G01X21020Y8453D01*
G01X21052Y8447D01*
G01X21083Y8438D01*
G01X21114Y8428D01*
G01X21144Y8416D01*
G01X21173Y8401D01*
G01X21201Y8385D01*
G01X21228Y8366D01*
G01X21254Y8345D01*
G01X21277Y8323D01*
G01X23293Y6308D01*
G01X23305Y6298D01*
G01X23319Y6289D01*
G01X23333Y6283D01*
G01X23349Y6279D01*
G01X23364Y6278D01*
G01X23379Y6279D01*
G01X23393Y6282D01*
G01X23407Y6288D01*
G01X23419Y6294D01*
G01X23431Y6303D01*
G01X23441Y6313D01*
G01X23450Y6325D01*
G01X23457Y6337D01*
G01X23462Y6351D01*
G01X23465Y6365D01*
G01X23466Y6379D01*
G01X23465Y6397D01*
G01X23460Y6415D01*
G01X23448Y6452D01*
G01X23438Y6490D01*
G01X23432Y6529D01*
G01X23427Y6568D01*
G01X23426Y6608D01*
G01X23427Y6644D01*
G01X23430Y6680D01*
G01X23437Y6715D01*
G01X23445Y6751D01*
G01X23448Y6777D01*
G01X23447Y6792D01*
G01X23443Y6808D01*
G01X23437Y6823D01*
G01X23428Y6837D01*
G01X23418Y6848D01*
G01X23406Y6859D01*
G01X23392Y6867D01*
G01X23377Y6873D01*
G01X23349Y6884D01*
G01X23321Y6896D01*
G01X23295Y6911D01*
G01X23269Y6928D01*
G01X23246Y6947D01*
G01X23223Y6967D01*
G01X19555Y10635D01*
G01X19543Y10646D01*
G01X19530Y10654D01*
G01X19515Y10660D01*
G01X19500Y10664D01*
G01X19483Y10665D01*
G01X19247Y10665D01*
G01X19232Y10664D01*
G01X19217Y10660D01*
G01X19203Y10655D01*
G01X19190Y10647D01*
G01X19178Y10638D01*
G01X19152Y10615D01*
G01X19124Y10593D01*
G01X19095Y10574D01*
G01X19065Y10556D01*
G01X19033Y10540D01*
G01X19001Y10526D01*
G01X18968Y10514D01*
G01X18934Y10504D01*
G01X18900Y10497D01*
G01X18866Y10492D01*
G01X18831Y10488D01*
G01X18796Y10487D01*
G01X18761Y10488D01*
G01X18728Y10491D01*
G01X18694Y10496D01*
G01X18661Y10503D01*
G01X18628Y10513D01*
G01X18596Y10524D01*
G01X18565Y10536D01*
G01X18534Y10552D01*
G01X18505Y10568D01*
G01X18476Y10587D01*
G01X18450Y10607D01*
G01X18423Y10628D01*
G01X18375Y10676D01*
G01X18354Y10703D01*
G01X18334Y10729D01*
G01X18315Y10758D01*
G01X18299Y10787D01*
G01X18283Y10818D01*
G01X18271Y10849D01*
G01X18260Y10881D01*
G01X18250Y10914D01*
G01X18243Y10947D01*
G01X18238Y10981D01*
G01X18235Y11014D01*
G01X18234Y11049D01*
G01X18236Y11091D01*
G01X18241Y11133D01*
G01X18249Y11176D01*
G01X18251Y11198D01*
G01X18250Y11213D01*
G01X18247Y11227D01*
G01X18242Y11241D01*
G01X18235Y11253D01*
G01X18227Y11265D01*
G01X18216Y11275D01*
G01X18205Y11284D01*
G01X18192Y11291D01*
G01X18178Y11296D01*
G01X18164Y11299D01*
G01X18150Y11300D01*
G01X17399Y11300D01*
G01X17379Y11298D01*
G01X17360Y11292D01*
G01X17325Y11279D01*
G01X17290Y11268D01*
G01X17254Y11260D01*
G01X17218Y11254D01*
G01X17182Y11250D01*
G01X17145Y11249D01*
G01X17110Y11250D01*
G01X17077Y11253D01*
G01X17043Y11258D01*
G01X17010Y11265D01*
G01X16977Y11275D01*
G01X16945Y11286D01*
G01X16914Y11298D01*
G01X16884Y11313D01*
G01X16854Y11330D01*
G01X16826Y11348D01*
G01X16799Y11369D01*
G01X16795Y11371D01*
G01X16770Y11391D01*
G01X16746Y11412D01*
G01X16725Y11436D01*
G01X16705Y11461D01*
G01X16703Y11465D01*
G01X16682Y11492D01*
G01X16664Y11520D01*
G01X16647Y11550D01*
G01X16632Y11580D01*
G01X16620Y11611D01*
G01X16609Y11643D01*
G01X16599Y11676D01*
G01X16592Y11709D01*
G01X16587Y11743D01*
G01X16584Y11776D01*
G01X16583Y11811D01*
G01X16584Y11847D01*
G01X16588Y11883D01*
G01X16594Y11919D01*
G01X16602Y11954D01*
G01X16613Y11989D01*
G01X16625Y12023D01*
G01X16640Y12057D01*
G01X16646Y12071D01*
G01X16649Y12086D01*
G01X16650Y12101D01*
G01X16649Y12117D01*
G01X16645Y12133D01*
G01X16639Y12147D01*
G01X16631Y12161D01*
G01X16620Y12173D01*
G01X15476Y13317D01*
G01X15456Y13340D01*
G01X15437Y13363D01*
G01X15420Y13388D01*
G01X15406Y13414D01*
G01X15393Y13442D01*
G01X15383Y13470D01*
G01X15375Y13499D01*
G01X15369Y13529D01*
G01X15365Y13559D01*
G01X15364Y13589D01*
G01X15364Y18340D01*
G01X15363Y18357D01*
G01X15359Y18372D01*
G01X15353Y18387D01*
G01X15345Y18400D01*
G01X15334Y18412D01*
G01X13967Y19779D01*
G01X13955Y19790D01*
G01X13942Y19798D01*
G01X13927Y19804D01*
G01X13912Y19808D01*
G01X13895Y19809D01*
G01X8890Y19809D01*
G01X8860Y19810D01*
G01X8830Y19814D01*
G01X8800Y19820D01*
G01X8771Y19828D01*
G01X8743Y19838D01*
G01X8715Y19851D01*
G01X8689Y19865D01*
G01X8664Y19882D01*
G01X8641Y19901D01*
G01X8618Y19921D01*
G01X7955Y20585D01*
G01X7943Y20595D01*
G01X7929Y20603D01*
G01X7915Y20609D01*
G01X7899Y20613D01*
G01X7883Y20614D01*
G01X7866Y20613D01*
G01X7849Y20608D01*
G01X7799Y20592D01*
G01X7750Y20578D01*
G01X7699Y20566D01*
G01X7647Y20557D01*
G01X7596Y20551D01*
G01X7544Y20547D01*
G01X7493Y20546D01*
G01X7446Y20547D01*
G01X7399Y20550D01*
G01X7352Y20555D01*
G01X7306Y20562D01*
G01X7260Y20572D01*
G01X7215Y20583D01*
G01X7170Y20597D01*
G01X7126Y20612D01*
G01X7082Y20629D01*
G01X7039Y20649D01*
G01X6998Y20670D01*
G01X6957Y20693D01*
G01X6917Y20718D01*
G01X6879Y20745D01*
G01X6842Y20773D01*
G01X6806Y20803D01*
G01X6771Y20835D01*
G01X6738Y20868D01*
G01X6706Y20903D01*
G01X6676Y20939D01*
G01X6648Y20976D01*
G01X6621Y21014D01*
G01X6596Y21054D01*
G01X6573Y21095D01*
G01X6552Y21136D01*
G01X6532Y21179D01*
G01X6515Y21223D01*
G01X6500Y21267D01*
G01X6486Y21312D01*
G01X6475Y21357D01*
G01X6465Y21403D01*
G01X6458Y21449D01*
G01X6453Y21496D01*
G01X6450Y21543D01*
G01X6449Y21590D01*
G01X6450Y21636D01*
G01X6453Y21683D01*
G01X6458Y21730D01*
G01X6465Y21776D01*
G01X6475Y21822D01*
G01X6486Y21867D01*
G01X6500Y21912D01*
G01X6515Y21956D01*
G01X6532Y22000D01*
G01X6552Y22043D01*
G01X6573Y22084D01*
G01X6596Y22125D01*
G01X6621Y22165D01*
G01X6648Y22203D01*
G01X6676Y22240D01*
G01X6706Y22276D01*
G01X6738Y22311D01*
G01X6771Y22344D01*
G01X6806Y22376D01*
G01X6842Y22406D01*
G01X6879Y22434D01*
G01X6917Y22461D01*
G01X6957Y22486D01*
G01X6998Y22509D01*
G01X7039Y22530D01*
G01X7082Y22550D01*
G01X7126Y22567D01*
G01X7170Y22582D01*
G01X7215Y22596D01*
G01X7260Y22607D01*
G01X7306Y22617D01*
G01X7352Y22624D01*
G01X7399Y22629D01*
G01X7446Y22632D01*
G01X7493Y22633D01*
G01X7539Y22632D01*
G01X7586Y22629D01*
G01X7633Y22624D01*
G01X7679Y22617D01*
G01X7725Y22607D01*
G01X7770Y22596D01*
G01X7815Y22582D01*
G01X7859Y22567D01*
G01X7903Y22550D01*
G01X7946Y22530D01*
G01X7987Y22509D01*
G01X8028Y22486D01*
G01X8068Y22461D01*
G01X8106Y22434D01*
G01X8143Y22406D01*
G01X8179Y22376D01*
G01X8214Y22344D01*
G01X8247Y22311D01*
G01X8279Y22276D01*
G01X8309Y22240D01*
G01X8337Y22203D01*
G01X8364Y22165D01*
G01X8389Y22125D01*
G01X8412Y22084D01*
G01X8433Y22043D01*
G01X8453Y22000D01*
G01X8470Y21956D01*
G01X8485Y21912D01*
G01X8499Y21867D01*
G01X8510Y21822D01*
G01X8520Y21776D01*
G01X8527Y21730D01*
G01X8532Y21683D01*
G01X8535Y21636D01*
G01X8536Y21590D01*
G01X8535Y21538D01*
G01X8531Y21486D01*
G01X8525Y21435D01*
G01X8516Y21383D01*
G01X8504Y21332D01*
G01X8490Y21283D01*
G01X8474Y21233D01*
G01X8469Y21216D01*
G01X8468Y21199D01*
G01X8469Y21183D01*
G01X8473Y21167D01*
G01X8479Y21153D01*
G01X8487Y21139D01*
G01X8497Y21127D01*
G01X9019Y20606D01*
G01X9031Y20595D01*
G01X9044Y20587D01*
G01X9059Y20581D01*
G01X9074Y20577D01*
G01X9091Y20576D01*
G01X9339Y20576D01*
G01X9354Y20577D01*
G01X9368Y20580D01*
G01X9381Y20585D01*
G01X9394Y20592D01*
G01X9406Y20601D01*
G01X9416Y20611D01*
G01X9432Y20635D01*
G01X9437Y20649D01*
G01X9440Y20663D01*
G01X9441Y20678D01*
G01X9440Y20693D01*
G01X9436Y20708D01*
G01X9430Y20723D01*
G01X9422Y20736D01*
G01X9412Y20748D01*
G01X9401Y20758D01*
G01X9363Y20788D01*
G01X9327Y20820D01*
G01X9292Y20853D01*
G01X9259Y20888D01*
G01X9228Y20925D01*
G01X9198Y20962D01*
G01X9170Y21001D01*
G01X9144Y21042D01*
G01X9120Y21083D01*
G01X9097Y21126D01*
G01X9077Y21169D01*
G01X9059Y21214D01*
G01X9042Y21259D01*
G01X9028Y21305D01*
G01X9016Y21351D01*
G01X9006Y21398D01*
G01X8999Y21446D01*
G01X8993Y21493D01*
G01X8990Y21541D01*
G01X8989Y21590D01*
G01X8990Y21636D01*
G01X8993Y21683D01*
G01X8998Y21730D01*
G01X9005Y21776D01*
G01X9015Y21822D01*
G01X9026Y21867D01*
G01X9040Y21912D01*
G01X9055Y21956D01*
G01X9072Y22000D01*
G01X9092Y22043D01*
G01X9113Y22084D01*
G01X9136Y22125D01*
G01X9161Y22165D01*
G01X9188Y22203D01*
G01X9216Y22240D01*
G01X9246Y22276D01*
G01X9278Y22311D01*
G01X9311Y22344D01*
G01X9346Y22376D01*
G01X9382Y22406D01*
G01X9419Y22434D01*
G01X9457Y22461D01*
G01X9497Y22486D01*
G01X9538Y22509D01*
G01X9579Y22530D01*
G01X9622Y22550D01*
G01X9666Y22567D01*
G01X9710Y22582D01*
G01X9755Y22596D01*
G01X9800Y22607D01*
G01X9846Y22617D01*
G01X9892Y22624D01*
G01X9939Y22629D01*
G01X9986Y22632D01*
G01X10033Y22633D01*
G01X10079Y22632D01*
G01X10126Y22629D01*
G01X10173Y22624D01*
G01X10219Y22617D01*
G01X10265Y22607D01*
G01X10310Y22596D01*
G01X10355Y22582D01*
G01X10399Y22567D01*
G01X10443Y22550D01*
G01X10486Y22530D01*
G01X10527Y22509D01*
G01X10568Y22486D01*
G01X10608Y22461D01*
G01X10646Y22434D01*
G01X10683Y22406D01*
G01X10719Y22376D01*
G01X10754Y22344D01*
G01X10787Y22311D01*
G01X10819Y22276D01*
G01X10849Y22240D01*
G01X10877Y22203D01*
G01X10904Y22165D01*
G01X10929Y22125D01*
G01X10952Y22084D01*
G01X10973Y22043D01*
G01X10993Y22000D01*
G01X11010Y21956D01*
G01X11025Y21912D01*
G01X11039Y21867D01*
G01X11050Y21822D01*
G01X11060Y21776D01*
G01X11067Y21730D01*
G01X11072Y21683D01*
G01X11075Y21636D01*
G01X11076Y21590D01*
G01X11075Y21541D01*
G01X11072Y21493D01*
G01X11066Y21446D01*
G01X11059Y21398D01*
G01X11049Y21351D01*
G01X11037Y21305D01*
G01X11023Y21259D01*
G01X11006Y21214D01*
G01X10988Y21169D01*
G01X10968Y21126D01*
G01X10945Y21083D01*
G01X10921Y21042D01*
G01X10895Y21001D01*
G01X10867Y20962D01*
G01X10837Y20925D01*
G01X10806Y20888D01*
G01X10773Y20853D01*
G01X10738Y20820D01*
G01X10702Y20788D01*
G01X10664Y20758D01*
G01X10653Y20748D01*
G01X10643Y20736D01*
G01X10635Y20723D01*
G01X10629Y20708D01*
G01X10625Y20693D01*
G01X10624Y20678D01*
G01X10625Y20663D01*
G01X10628Y20649D01*
G01X10633Y20635D01*
G01X10649Y20611D01*
G01X10659Y20601D01*
G01X10671Y20592D01*
G01X10684Y20585D01*
G01X10697Y20580D01*
G01X10711Y20577D01*
G01X10726Y20576D01*
G01X11879Y20576D01*
G01X11894Y20577D01*
G01X11908Y20580D01*
G01X11921Y20585D01*
G01X11934Y20592D01*
G01X11946Y20601D01*
G01X11956Y20611D01*
G01X11972Y20635D01*
G01X11977Y20649D01*
G01X11980Y20663D01*
G01X11981Y20678D01*
G01X11980Y20693D01*
G01X11976Y20708D01*
G01X11970Y20723D01*
G01X11962Y20736D01*
G01X11952Y20748D01*
G01X11941Y20758D01*
G01X11903Y20788D01*
G01X11867Y20820D01*
G01X11832Y20853D01*
G01X11799Y20888D01*
G01X11768Y20925D01*
G01X11738Y20962D01*
G01X11710Y21001D01*
G01X11684Y21042D01*
G01X11660Y21083D01*
G01X11637Y21126D01*
G01X11617Y21169D01*
G01X11599Y21214D01*
G01X11582Y21259D01*
G01X11568Y21305D01*
G01X11556Y21351D01*
G01X11546Y21398D01*
G01X11539Y21446D01*
G01X11533Y21493D01*
G01X11530Y21541D01*
G01X11529Y21590D01*
G01X11530Y21636D01*
G01X11533Y21683D01*
G01X11538Y21730D01*
G01X11545Y21776D01*
G01X11555Y21822D01*
G01X11566Y21867D01*
G01X11580Y21912D01*
G01X11595Y21956D01*
G01X11612Y22000D01*
G01X11632Y22043D01*
G01X11653Y22084D01*
G01X11676Y22125D01*
G01X11701Y22165D01*
G01X11728Y22203D01*
G01X11756Y22240D01*
G01X11786Y22276D01*
G01X11818Y22311D01*
G01X11851Y22344D01*
G01X11886Y22376D01*
G01X11922Y22406D01*
G01X11959Y22434D01*
G01X11997Y22461D01*
G01X12037Y22486D01*
G01X12078Y22509D01*
G01X12119Y22530D01*
G01X12162Y22550D01*
G01X12206Y22567D01*
G01X12250Y22582D01*
G01X12295Y22596D01*
G01X12340Y22607D01*
G01X12386Y22617D01*
G01X12432Y22624D01*
G01X12479Y22629D01*
G01X12526Y22632D01*
G01X12573Y22633D01*
G01X12619Y22632D01*
G01X12666Y22629D01*
G01X12713Y22624D01*
G01X12759Y22617D01*
G01X12805Y22607D01*
G01X12850Y22596D01*
G01X12895Y22582D01*
G01X12939Y22567D01*
G01X12983Y22550D01*
G01X13026Y22530D01*
G01X13067Y22509D01*
G01X13108Y22486D01*
G01X13148Y22461D01*
G01X13186Y22434D01*
G01X13223Y22406D01*
G01X13259Y22376D01*
G01X13294Y22344D01*
G01X13327Y22311D01*
G01X13359Y22276D01*
G01X13389Y22240D01*
G01X13417Y22203D01*
G01X13444Y22165D01*
G01X13469Y22125D01*
G01X13492Y22084D01*
G01X13513Y22043D01*
G01X13533Y22000D01*
G01X13550Y21956D01*
G01X13565Y21912D01*
G01X13579Y21867D01*
G01X13590Y21822D01*
G01X13600Y21776D01*
G01X13607Y21730D01*
G01X13612Y21683D01*
G01X13615Y21636D01*
G01X13616Y21590D01*
G01X13615Y21541D01*
G01X13612Y21493D01*
G01X13606Y21446D01*
G01X13599Y21398D01*
G01X13589Y21351D01*
G01X13577Y21305D01*
G01X13563Y21259D01*
G01X13546Y21214D01*
G01X13528Y21169D01*
G01X13508Y21126D01*
G01X13485Y21083D01*
G01X13461Y21042D01*
G01X13435Y21001D01*
G01X13407Y20962D01*
G01X13377Y20925D01*
G01X13346Y20888D01*
G01X13313Y20853D01*
G01X13278Y20820D01*
G01X13242Y20788D01*
G01X13204Y20758D01*
G01X13193Y20748D01*
G01X13183Y20736D01*
G01X13175Y20723D01*
G01X13169Y20708D01*
G01X13165Y20693D01*
G01X13164Y20678D01*
G01X13165Y20663D01*
G01X13168Y20649D01*
G01X13173Y20635D01*
G01X13189Y20611D01*
G01X13199Y20601D01*
G01X13211Y20592D01*
G01X13224Y20585D01*
G01X13237Y20580D01*
G01X13251Y20577D01*
G01X13266Y20576D01*
G01X14097Y20576D01*
G01X14126Y20575D01*
G01X14156Y20571D01*
G01X14186Y20565D01*
G01X14215Y20557D01*
G01X14243Y20547D01*
G01X14271Y20534D01*
G01X14297Y20520D01*
G01X14322Y20503D01*
G01X14345Y20484D01*
G01X14368Y20464D01*
G01X16019Y18813D01*
G01X16039Y18790D01*
G01X16058Y18767D01*
G01X16075Y18742D01*
G01X16089Y18716D01*
G01X16102Y18688D01*
G01X16112Y18660D01*
G01X16120Y18631D01*
G01X16126Y18601D01*
G01X16130Y18571D01*
G01X16131Y18542D01*
G01X16131Y17035D01*
G01X16132Y17021D01*
G01X16135Y17007D01*
G01X16140Y16993D01*
G01X16147Y16980D01*
G01X16156Y16969D01*
G01X16166Y16959D01*
G01X16178Y16950D01*
G01X16190Y16943D01*
G01X16204Y16938D01*
G01X16218Y16935D01*
G01X16233Y16934D01*
G01X16249Y16935D01*
G01X16265Y16939D01*
G01X16280Y16946D01*
G01X16295Y16955D01*
G01X16325Y16976D01*
G01X16356Y16996D01*
G01X16388Y17013D01*
G01X16422Y17028D01*
G01X16456Y17041D01*
G01X16491Y17052D01*
G01X16527Y17060D01*
G01X16563Y17066D01*
G01X16600Y17070D01*
G01X16637Y17071D01*
G01X16679Y17069D01*
G01X16721Y17064D01*
G01X16764Y17056D01*
G01X16786Y17054D01*
G01X16801Y17055D01*
G01X16815Y17058D01*
G01X16829Y17063D01*
G01X16841Y17070D01*
G01X16853Y17078D01*
G01X16863Y17089D01*
G01X16872Y17100D01*
G01X16879Y17113D01*
G01X16884Y17127D01*
G01X16887Y17141D01*
G01X16888Y17155D01*
G01X16888Y20840D01*
G01X16887Y20854D01*
G01X16884Y20868D01*
G01X16879Y20882D01*
G01X16872Y20895D01*
G01X16863Y20906D01*
G01X16834Y20942D01*
G01X16806Y20979D01*
G01X16779Y21017D01*
G01X16754Y21057D01*
G01X16731Y21098D01*
G01X16711Y21139D01*
G01X16691Y21182D01*
G01X16674Y21225D01*
G01X16659Y21269D01*
G01X16646Y21314D01*
G01X16634Y21359D01*
G01X16625Y21404D01*
G01X16618Y21450D01*
G01X16613Y21497D01*
G01X16610Y21543D01*
G01X16609Y21590D01*
G01X16610Y21636D01*
G01X16613Y21683D01*
G01X16618Y21730D01*
G01X16625Y21776D01*
G01X16635Y21822D01*
G01X16646Y21867D01*
G01X16660Y21912D01*
G01X16675Y21956D01*
G01X16692Y22000D01*
G01X16712Y22043D01*
G01X16733Y22084D01*
G01X16756Y22125D01*
G01X16781Y22165D01*
G01X16808Y22203D01*
G01X16836Y22240D01*
G01X16866Y22276D01*
G01X16898Y22311D01*
G01X16931Y22344D01*
G01X16966Y22376D01*
G01X17002Y22406D01*
G01X17039Y22434D01*
G01X17077Y22461D01*
G01X17117Y22486D01*
G01X17158Y22509D01*
G01X17199Y22530D01*
G01X17242Y22550D01*
G01X17286Y22567D01*
G01X17330Y22582D01*
G01X17375Y22596D01*
G01X17420Y22607D01*
G01X17466Y22617D01*
G01X17512Y22624D01*
G01X17559Y22629D01*
G01X17606Y22632D01*
G01X17653Y22633D01*
G01X17699Y22632D01*
G01X17746Y22629D01*
G01X17793Y22624D01*
G01X17839Y22617D01*
G01X17885Y22607D01*
G01X17930Y22596D01*
G01X17975Y22582D01*
G01X18019Y22567D01*
G01X18063Y22550D01*
G01X18106Y22530D01*
G01X18147Y22509D01*
G01X18188Y22486D01*
G01X18228Y22461D01*
G01X18266Y22434D01*
G01X18303Y22406D01*
G01X18339Y22376D01*
G01X18374Y22344D01*
G01X18407Y22311D01*
G01X18439Y22276D01*
G01X18469Y22240D01*
G01X18497Y22203D01*
G01X18524Y22165D01*
G01X18549Y22125D01*
G01X18572Y22084D01*
G01X18593Y22043D01*
G01X18613Y22000D01*
G01X18630Y21956D01*
G01X18645Y21912D01*
G01X18659Y21867D01*
G01X18670Y21822D01*
G01X18680Y21776D01*
G01X18687Y21730D01*
G01X18692Y21683D01*
G01X18695Y21636D01*
G01X18696Y21590D01*
G01X18695Y21543D01*
G01X18692Y21496D01*
G01X18687Y21449D01*
G01X18680Y21403D01*
G01X18671Y21357D01*
G01X18659Y21312D01*
G01X18646Y21267D01*
G01X18630Y21223D01*
G01X18613Y21180D01*
G01X18593Y21137D01*
G01X18572Y21095D01*
G01X18549Y21055D01*
G01X18524Y21015D01*
G01X18497Y20976D01*
G01X18469Y20939D01*
G01X18439Y20903D01*
G01X18407Y20869D01*
G01X18374Y20836D01*
G01X18340Y20804D01*
G01X18304Y20774D01*
G01X18267Y20745D01*
G01X18229Y20719D01*
G01X18189Y20694D01*
G01X18148Y20671D01*
G01X18106Y20649D01*
G01X18064Y20630D01*
G01X18020Y20613D01*
G01X17976Y20597D01*
G01X17931Y20584D01*
G01X17886Y20572D01*
G01X17840Y20562D01*
G01X17794Y20555D01*
G01X17747Y20550D01*
G01X17733Y20548D01*
G01X17719Y20543D01*
G01X17705Y20536D01*
G01X17693Y20527D01*
G01X17681Y20517D01*
G01X17672Y20505D01*
G01X17665Y20492D01*
G01X17660Y20479D01*
G01X17656Y20464D01*
G01X17655Y20449D01*
G01X17655Y15314D01*
G01X17656Y15297D01*
G01X17660Y15282D01*
G01X17666Y15267D01*
G01X17674Y15254D01*
G01X17685Y15242D01*
G01X17924Y15003D01*
G01X17947Y14977D01*
G01X17968Y14949D01*
G01X17979Y14936D01*
G01X17991Y14925D01*
G01X18018Y14904D01*
G01X18044Y14880D01*
G01X18068Y14855D01*
G01X18090Y14829D01*
G01X18111Y14802D01*
G01X18130Y14773D01*
G01X18147Y14743D01*
G01X18163Y14712D01*
G01X18176Y14680D01*
G01X18187Y14648D01*
G01X18197Y14614D01*
G01X18204Y14581D01*
G01X18210Y14547D01*
G01X18213Y14512D01*
G01X18214Y14478D01*
G01X18213Y14442D01*
G01X18209Y14406D01*
G01X18204Y14371D01*
G01X18196Y14336D01*
G01X18186Y14302D01*
G01X18174Y14269D01*
G01X18159Y14236D01*
G01X18143Y14204D01*
G01X18124Y14174D01*
G01X18104Y14144D01*
G01X18082Y14116D01*
G01X18058Y14090D01*
G01X18033Y14064D01*
G01X18006Y14041D01*
G01X17978Y14020D01*
G01X17948Y14000D01*
G01X17917Y13982D01*
G01X17903Y13974D01*
G01X17892Y13963D01*
G01X17882Y13951D01*
G01X17874Y13938D01*
G01X17868Y13923D01*
G01X17864Y13908D01*
G01X17863Y13893D01*
G01X17864Y13878D01*
G01X17867Y13864D01*
G01X17872Y13851D01*
G01X17879Y13838D01*
G01X17888Y13826D01*
G01X17898Y13816D01*
G01X17910Y13807D01*
G01X17922Y13800D01*
G01X17936Y13795D01*
G01X17950Y13792D01*
G01X17964Y13791D01*
G01X21340Y13791D01*
G01X21354Y13792D01*
G01X21369Y13795D01*
G01X21382Y13800D01*
G01X21395Y13807D01*
G01X21407Y13816D01*
G01X21417Y13827D01*
G01X21440Y13852D01*
G01X21465Y13876D01*
G01X21491Y13899D01*
G01X21519Y13920D01*
G01X21548Y13939D01*
G01X21578Y13956D01*
G01X21609Y13972D01*
G01X21641Y13985D01*
G01X21673Y13996D01*
G01X21706Y14006D01*
G01X21740Y14013D01*
G01X21774Y14019D01*
G01X21809Y14022D01*
G01X21844Y14023D01*
G01X21878Y14022D01*
G01X21911Y14019D01*
G01X21945Y14014D01*
G01X21978Y14007D01*
G01X22011Y13997D01*
G01X22043Y13986D01*
G01X22074Y13974D01*
G01X22105Y13958D01*
G01X22134Y13942D01*
G01X22163Y13923D01*
G01X22189Y13903D01*
G01X22216Y13882D01*
G01X22264Y13834D01*
G01X22285Y13807D01*
G01X22305Y13781D01*
G01X22324Y13752D01*
G01X22340Y13723D01*
G01X22356Y13692D01*
G01X22368Y13661D01*
G01X22379Y13629D01*
G01X22389Y13596D01*
G01X22396Y13563D01*
G01X22401Y13529D01*
G01X22404Y13496D01*
G01X22405Y13462D01*
G01X22404Y13426D01*
G01X22400Y13391D01*
G01X22395Y13357D01*
G01X22388Y13323D01*
G01X22377Y13289D01*
G01X22374Y13274D01*
G01X22373Y13258D01*
G01X22374Y13243D01*
G01X22377Y13229D01*
G01X22382Y13216D01*
G01X22389Y13203D01*
G01X22398Y13191D01*
G01X22408Y13181D01*
G01X22420Y13172D01*
G01X22432Y13165D01*
G01X22445Y13160D01*
G01X22460Y13157D01*
G01X22474Y13156D01*
G01X26461Y13156D01*
G01X26475Y13157D01*
G01X26490Y13160D01*
G01X26503Y13165D01*
G01X26516Y13172D01*
G01X26528Y13181D01*
G01X26538Y13191D01*
G01X26547Y13203D01*
G01X26554Y13216D01*
G01X26559Y13229D01*
G01X26562Y13243D01*
G01X26563Y13258D01*
G01X26563Y13474D01*
G01X26564Y13498D01*
G01X26567Y13521D01*
G01X26572Y13544D01*
G01X26580Y13567D01*
G01X26590Y13589D01*
G01X26601Y13609D01*
G01X26615Y13629D01*
G01X26630Y13647D01*
G01X26647Y13664D01*
G01X26665Y13679D01*
G01X26684Y13692D01*
G01X26705Y13704D01*
G01X26727Y13713D01*
G01X26749Y13721D01*
G01X26772Y13726D01*
G01X26795Y13730D01*
G01X26819Y13731D01*
G01X27820Y13731D01*
G01X27844Y13730D01*
G01X27867Y13726D01*
G01X27890Y13721D01*
G01X27913Y13713D01*
G01X27934Y13704D01*
G01X27955Y13692D01*
G01X27975Y13679D01*
G01X27993Y13664D01*
G01X28010Y13647D01*
G01X28025Y13629D01*
G01X28038Y13609D01*
G01X28050Y13589D01*
G01X28059Y13567D01*
G01X28067Y13544D01*
G01X28072Y13521D01*
G01X28076Y13498D01*
G01X28077Y13474D01*
G01X28077Y11925D01*
G01X28076Y11901D01*
G01X28072Y11878D01*
G01X28067Y11855D01*
G01X28059Y11832D01*
G01X28050Y11811D01*
G01X28038Y11790D01*
G01X28025Y11770D01*
G01X28010Y11752D01*
G01X27993Y11735D01*
G01X27975Y11720D01*
G01X27955Y11707D01*
G01X27934Y11695D01*
G01X27913Y11686D01*
G01X27890Y11678D01*
G01X27867Y11673D01*
G01X27844Y11669D01*
G01X27820Y11668D01*
G01X26819Y11668D01*
G01X26795Y11669D01*
G01X26772Y11673D01*
G01X26749Y11678D01*
G01X26727Y11686D01*
G01X26705Y11695D01*
G01X26684Y11707D01*
G01X26665Y11720D01*
G01X26647Y11735D01*
G01X26630Y11752D01*
G01X26615Y11770D01*
G01X26601Y11790D01*
G01X26590Y11811D01*
G01X26580Y11832D01*
G01X26572Y11855D01*
G01X26567Y11878D01*
G01X26564Y11901D01*
G01X26563Y11925D01*
G01X26563Y12141D01*
G01X26562Y12156D01*
G01X26559Y12170D01*
G01X26554Y12183D01*
G01X26547Y12196D01*
G01X26538Y12208D01*
G01X26528Y12218D01*
G01X26516Y12227D01*
G01X26503Y12234D01*
G01X26490Y12239D01*
G01X26475Y12242D01*
G01X26461Y12243D01*
G01X20929Y12243D01*
G01X20914Y12242D01*
G01X20900Y12239D01*
G01X20886Y12234D01*
G01X20874Y12227D01*
G01X20862Y12218D01*
G01X20852Y12208D01*
G01X20843Y12196D01*
G01X20836Y12183D01*
G01X20831Y12170D01*
G01X20828Y12156D01*
G01X20827Y12141D01*
G01X20829Y12125D01*
G01X20832Y12110D01*
G01X20838Y12095D01*
G01X20846Y12082D01*
G01X20857Y12070D01*
G01X21287Y11639D01*
G01X21299Y11629D01*
G01X21312Y11621D01*
G01X21326Y11615D01*
G01X21341Y11611D01*
G01X21355Y11609D01*
G01X21392Y11607D01*
G01X21428Y11602D01*
G01X21464Y11595D01*
G01X21499Y11585D01*
G01X21534Y11574D01*
G01X21567Y11560D01*
G01X21600Y11544D01*
G01X21631Y11526D01*
G01X21662Y11505D01*
G01X21691Y11483D01*
G01X21718Y11459D01*
G01X21730Y11450D01*
G01X21743Y11442D01*
G01X21757Y11437D01*
G01X21772Y11433D01*
G01X21787Y11432D01*
G01X26177Y11432D01*
G01X26207Y11431D01*
G01X26237Y11427D01*
G01X26266Y11421D01*
G01X26295Y11413D01*
G01X26324Y11403D01*
G01X26351Y11390D01*
G01X26377Y11376D01*
G01X26402Y11359D01*
G01X26426Y11340D01*
G01X26448Y11320D01*
G01X26681Y11087D01*
G01X26692Y11077D01*
G01X26706Y11068D01*
G01X26721Y11062D01*
G01X26737Y11059D01*
G01X26752Y11058D01*
G01X26771Y11059D01*
G01X26795Y11063D01*
G01X26819Y11064D01*
G01X27820Y11064D01*
G01X27844Y11063D01*
G01X27867Y11059D01*
G01X27890Y11054D01*
G01X27913Y11046D01*
G01X27934Y11037D01*
G01X27955Y11025D01*
G01X27975Y11012D01*
G01X27993Y10997D01*
G01X28010Y10980D01*
G01X28025Y10962D01*
G01X28038Y10942D01*
G01X28050Y10922D01*
G01X28059Y10900D01*
G01X28067Y10877D01*
G01X28072Y10854D01*
G01X28076Y10831D01*
G01X28077Y10807D01*
G01X28077Y9258D01*
G01X28076Y9234D01*
G01X28072Y9211D01*
G01X28067Y9188D01*
G01X28059Y9165D01*
G01X28050Y9144D01*
G01X28038Y9123D01*
G01X28025Y9103D01*
G01X28010Y9085D01*
G01X27993Y9068D01*
G01X27975Y9053D01*
G01X27955Y9040D01*
G01X27934Y9028D01*
G01X27913Y9019D01*
G01X27890Y9011D01*
G01X27867Y9006D01*
G01X27844Y9002D01*
G01X27820Y9001D01*
G01X26819Y9001D01*
G01X26795Y9002D01*
G01X26772Y9006D01*
G01X26749Y9011D01*
G01X26727Y9019D01*
G01X26705Y9028D01*
G01X26684Y9040D01*
G01X26665Y9053D01*
G01X26647Y9068D01*
G01X26630Y9085D01*
G01X26615Y9103D01*
G01X26601Y9123D01*
G01X26590Y9144D01*
G01X26580Y9165D01*
G01X26572Y9188D01*
G01X26567Y9211D01*
G01X26564Y9234D01*
G01X26563Y9258D01*
G01X26563Y10078D01*
G01X26562Y10094D01*
G01X26558Y10109D01*
G01X26552Y10124D01*
G01X26544Y10138D01*
G01X26533Y10150D01*
G01X26048Y10635D01*
G01X26036Y10646D01*
G01X26022Y10654D01*
G01X26007Y10660D01*
G01X25992Y10664D01*
G01X25976Y10665D01*
G01X24031Y10665D01*
G01X24016Y10664D01*
G01X24002Y10661D01*
G01X23988Y10656D01*
G01X23976Y10649D01*
G01X23964Y10640D01*
G01X23954Y10630D01*
G01X23945Y10618D01*
G01X23938Y10606D01*
G01X23933Y10592D01*
G01X23930Y10578D01*
G01X23929Y10563D01*
G01X23930Y10548D01*
G01X23934Y10532D01*
G01X23940Y10517D01*
G01X23949Y10503D01*
G01X23959Y10492D01*
G01X25605Y8845D01*
G01X25617Y8835D01*
G01X25630Y8827D01*
G01X25644Y8821D01*
G01X25659Y8817D01*
G01X25673Y8815D01*
G01X25708Y8813D01*
G01X25742Y8809D01*
G01X25776Y8802D01*
G01X25809Y8794D01*
G01X25842Y8783D01*
G01X25874Y8771D01*
G01X25905Y8756D01*
G01X25936Y8740D01*
G01X25965Y8721D01*
G01X25993Y8702D01*
G01X26020Y8680D01*
G01X26045Y8656D01*
G01X26069Y8632D01*
G01X26091Y8606D01*
G01X26112Y8578D01*
G01X26131Y8549D01*
G01X26148Y8519D01*
G01X26164Y8489D01*
G01X26177Y8457D01*
G01X26188Y8424D01*
G01X26198Y8391D01*
G01X26205Y8357D01*
G01X26211Y8323D01*
G01X26214Y8289D01*
G01X26215Y8255D01*
G01X26214Y8220D01*
G01X26211Y8185D01*
G01X26205Y8151D01*
G01X26198Y8118D01*
G01X26188Y8084D01*
G01X26177Y8052D01*
G01X26164Y8020D01*
G01X26158Y8007D01*
G01X26155Y7992D01*
G01X26154Y7978D01*
G01X26155Y7963D01*
G01X26158Y7949D01*
G01X26164Y7935D01*
G01X26170Y7923D01*
G01X26179Y7911D01*
G01X26189Y7901D01*
G01X26201Y7892D01*
G01X26214Y7885D01*
G01X26227Y7880D01*
G01X26241Y7877D01*
G01X26256Y7876D01*
G01X26461Y7876D01*
G01X26475Y7877D01*
G01X26490Y7880D01*
G01X26503Y7885D01*
G01X26516Y7892D01*
G01X26528Y7901D01*
G01X26538Y7911D01*
G01X26547Y7923D01*
G01X26554Y7935D01*
G01X26559Y7949D01*
G01X26562Y7963D01*
G01X26563Y7978D01*
G01X26563Y8267D01*
G01X26564Y8291D01*
G01X26567Y8314D01*
G01X26572Y8337D01*
G01X26580Y8360D01*
G01X26590Y8382D01*
G01X26601Y8402D01*
G01X26615Y8422D01*
G01X26630Y8440D01*
G01X26647Y8457D01*
G01X26665Y8472D01*
G01X26684Y8485D01*
G01X26705Y8497D01*
G01X26727Y8506D01*
G01X26749Y8514D01*
G01X26772Y8519D01*
G01X26795Y8523D01*
G01X26819Y8524D01*
G01X27820Y8524D01*
G01X27844Y8523D01*
G01X27867Y8519D01*
G01X27890Y8514D01*
G01X27913Y8506D01*
G01X27934Y8497D01*
G01X27955Y8485D01*
G01X27975Y8472D01*
G01X27993Y8457D01*
G01X28010Y8440D01*
G01X28025Y8422D01*
G01X28038Y8402D01*
G01X28050Y8382D01*
G01X28059Y8360D01*
G01X28067Y8337D01*
G01X28072Y8314D01*
G01X28076Y8291D01*
G01X28077Y8267D01*
G01X28077Y6718D01*
G01X28076Y6692D01*
G01X28072Y6668D01*
G01X28065Y6643D01*
G01X28057Y6620D01*
G01X28051Y6600D01*
G01X28049Y6581D01*
G01X28050Y6566D01*
G01X28053Y6552D01*
G01X28058Y6538D01*
G01X28065Y6526D01*
G01X28074Y6514D01*
G01X28084Y6504D01*
G01X28096Y6495D01*
G01X28109Y6488D01*
G01X28122Y6483D01*
G01X28137Y6480D01*
G01X28151Y6479D01*
G01X28490Y6479D01*
G01X28504Y6480D01*
G01X28519Y6483D01*
G01X28532Y6488D01*
G01X28545Y6495D01*
G01X28557Y6504D01*
G01X28567Y6514D01*
G01X28576Y6526D01*
G01X28583Y6538D01*
G01X28588Y6552D01*
G01X28591Y6566D01*
G01X28592Y6581D01*
G01X28590Y6600D01*
G01X28584Y6620D01*
G01X28576Y6643D01*
G01X28569Y6668D01*
G01X28565Y6692D01*
G01X28564Y6718D01*
G01X28564Y8267D01*
G01X28565Y8291D01*
G01X28569Y8314D01*
G01X28574Y8337D01*
G01X28582Y8360D01*
G01X28591Y8382D01*
G01X28603Y8402D01*
G01X28616Y8422D01*
G01X28631Y8440D01*
G01X28648Y8457D01*
G01X28666Y8472D01*
G01X28686Y8485D01*
G01X28707Y8497D01*
G01X28728Y8506D01*
G01X28751Y8514D01*
G01X28774Y8519D01*
G01X28797Y8523D01*
G01X28821Y8524D01*
G01X29822Y8524D01*
G01X29846Y8523D01*
G01X29869Y8519D01*
G01X29892Y8514D01*
G01X29914Y8506D01*
G01X29936Y8497D01*
G01X29957Y8485D01*
G01X29976Y8472D01*
G01X29994Y8457D01*
G01X30011Y8440D01*
G01X30026Y8422D01*
G01X30040Y8402D01*
G01X30051Y8382D01*
G01X30061Y8360D01*
G01X30069Y8337D01*
G01X30074Y8314D01*
G01X30077Y8291D01*
G01X30078Y8267D01*
G01X30078Y7978D01*
G01X30079Y7963D01*
G01X30082Y7949D01*
G01X30087Y7935D01*
G01X30094Y7923D01*
G01X30103Y7911D01*
G01X30113Y7901D01*
G01X30125Y7892D01*
G01X30138Y7885D01*
G01X30151Y7880D01*
G01X30166Y7877D01*
G01X30180Y7876D01*
G01X33401Y7876D01*
G01X33430Y7875D01*
G01X33460Y7871D01*
G01X33490Y7865D01*
G01X33519Y7857D01*
G01X33547Y7847D01*
G01X33575Y7834D01*
G01X33601Y7820D01*
G01X33626Y7803D01*
G01X33649Y7784D01*
G01X33672Y7764D01*
G01X33733Y7702D01*
G01X33745Y7692D01*
G01X33758Y7684D01*
G01X33772Y7678D01*
G01X33787Y7674D01*
G01X33801Y7672D01*
G01X33836Y7670D01*
G01X33870Y7666D01*
G01X33904Y7659D01*
G01X33937Y7651D01*
G01X33970Y7640D01*
G01X34002Y7628D01*
G01X34033Y7613D01*
G01X34064Y7597D01*
G01X34093Y7578D01*
G01X34121Y7559D01*
G01X34148Y7537D01*
G01X34173Y7513D01*
G01X34197Y7489D01*
G01X34219Y7463D01*
G01X34240Y7435D01*
G01X34259Y7406D01*
G01X34276Y7376D01*
G01X34292Y7346D01*
G01X34305Y7314D01*
G01X34316Y7281D01*
G01X34326Y7248D01*
G01X34333Y7214D01*
G01X34339Y7180D01*
G01X34342Y7146D01*
G01X34343Y7112D01*
G01X34342Y7077D01*
G01X34339Y7044D01*
G01X34334Y7010D01*
G01X34327Y6977D01*
G01X34317Y6944D01*
G01X34306Y6912D01*
G01X34294Y6881D01*
G01X34278Y6850D01*
G01X34262Y6821D01*
G01X34243Y6792D01*
G01X34223Y6766D01*
G01X34202Y6739D01*
G01X34154Y6691D01*
G01X34127Y6670D01*
G01X34101Y6650D01*
G01X34072Y6631D01*
G01X34043Y6615D01*
G01X34012Y6599D01*
G01X33981Y6587D01*
G01X33949Y6576D01*
G01X33916Y6566D01*
G01X33883Y6559D01*
G01X33849Y6554D01*
G01X33816Y6551D01*
G01X33782Y6550D01*
G01X33747Y6551D01*
G01X33713Y6554D01*
G01X33678Y6560D01*
G01X33645Y6567D01*
G01X33612Y6577D01*
G01X33579Y6588D01*
G01X33547Y6601D01*
G01X33516Y6617D01*
G01X33487Y6634D01*
G01X33458Y6653D01*
G01X33430Y6674D01*
G01X33404Y6696D01*
G01X33379Y6720D01*
G01X33356Y6745D01*
G01X33334Y6772D01*
G01X33314Y6800D01*
G01X33296Y6830D01*
G01X33280Y6860D01*
G01X33265Y6891D01*
G01X33253Y6923D01*
G01X33242Y6956D01*
G01X33233Y6990D01*
G01X33227Y7023D01*
G01X33224Y7037D01*
G01X33219Y7051D01*
G01X33212Y7063D01*
G01X33203Y7074D01*
G01X33193Y7085D01*
G01X33181Y7093D01*
G01X33168Y7100D01*
G01X33155Y7105D01*
G01X33141Y7108D01*
G01X33127Y7109D01*
G01X30180Y7109D01*
G01X30166Y7108D01*
G01X30151Y7105D01*
G01X30138Y7100D01*
G01X30125Y7093D01*
G01X30113Y7084D01*
G01X30103Y7074D01*
G01X30094Y7062D01*
G01X30087Y7050D01*
G01X30082Y7036D01*
G01X30079Y7022D01*
G01X30078Y7007D01*
G01X30078Y6718D01*
G01X30077Y6692D01*
G01X30073Y6668D01*
G01X30067Y6643D01*
G01X30058Y6620D01*
G01X30053Y6600D01*
G01X30051Y6581D01*
G01X30052Y6566D01*
G01X30055Y6552D01*
G01X30060Y6538D01*
G01X30067Y6526D01*
G01X30076Y6514D01*
G01X30086Y6504D01*
G01X30097Y6495D01*
G01X30110Y6488D01*
G01X30124Y6483D01*
G01X30138Y6480D01*
G01X30152Y6479D01*
G01X30506Y6479D01*
G01X30522Y6480D01*
G01X30538Y6484D01*
G01X30553Y6490D01*
G01X30566Y6498D01*
G01X30578Y6509D01*
G01X30603Y6532D01*
G01X30630Y6555D01*
G01X30659Y6575D01*
G01X30688Y6594D01*
G01X30719Y6611D01*
G01X30750Y6626D01*
G01X30782Y6640D01*
G01X30815Y6651D01*
G01X30849Y6660D01*
G01X30883Y6668D01*
G01X30918Y6673D01*
G01X30952Y6676D01*
G01X30988Y6677D01*
G01X31023Y6676D01*
G01X31058Y6673D01*
G01X31092Y6668D01*
G01X31127Y6660D01*
G01X31161Y6651D01*
G01X31194Y6639D01*
G01X31226Y6626D01*
G01X31258Y6611D01*
G01X31288Y6593D01*
G01X31318Y6574D01*
G01X31346Y6553D01*
G01X31373Y6531D01*
G01X31423Y6481D01*
G01X31445Y6454D01*
G01X31466Y6426D01*
G01X31485Y6396D01*
G01X31503Y6366D01*
G01X31518Y6334D01*
G01X31531Y6302D01*
G01X31543Y6269D01*
G01X31552Y6235D01*
G01X31560Y6200D01*
G01X31565Y6166D01*
G01X31568Y6131D01*
G01X31569Y6096D01*
G01X31568Y6060D01*
G01X31565Y6025D01*
G01X31560Y5991D01*
G01X31552Y5956D01*
G01X31543Y5922D01*
G01X31531Y5889D01*
G01X31518Y5857D01*
G01X31503Y5825D01*
G01X31485Y5795D01*
G01X31466Y5765D01*
G01X31445Y5737D01*
G01X31423Y5710D01*
G01X31373Y5660D01*
G01X31346Y5638D01*
G01X31318Y5617D01*
G01X31288Y5598D01*
G01X31258Y5580D01*
G01X31226Y5565D01*
G01X31194Y5552D01*
G01X31161Y5540D01*
G01X31127Y5531D01*
G01X31092Y5523D01*
G01X31058Y5518D01*
G01X31023Y5515D01*
G01X30988Y5514D01*
G01X30952Y5515D01*
G01X30918Y5518D01*
G01X30883Y5523D01*
G01X30849Y5531D01*
G01X30815Y5540D01*
G01X30782Y5551D01*
G01X30750Y5565D01*
G01X30719Y5580D01*
G01X30688Y5597D01*
G01X30659Y5616D01*
G01X30630Y5636D01*
G01X30603Y5659D01*
G01X30578Y5682D01*
G01X30566Y5693D01*
G01X30553Y5701D01*
G01X30538Y5707D01*
G01X30522Y5711D01*
G01X30506Y5712D01*
G01X30178Y5712D01*
G01X30164Y5711D01*
G01X30149Y5708D01*
G01X30136Y5703D01*
G01X30123Y5696D01*
G01X30112Y5687D01*
G01X30102Y5677D01*
G01X30092Y5665D01*
G01X30086Y5653D01*
G01X30081Y5639D01*
G01X30078Y5625D01*
G01X30077Y5610D01*
G01X30077Y4676D01*
G01X30078Y4661D01*
G01X30081Y4647D01*
G01X30086Y4633D01*
G01X30093Y4621D01*
G01X30102Y4609D01*
G01X30112Y4599D01*
G01X30123Y4590D01*
G01X30136Y4583D01*
G01X30150Y4578D01*
G01X30164Y4575D01*
G01X30178Y4574D01*
G01X30409Y4574D01*
G01X30424Y4575D01*
G01X30439Y4579D01*
G01X30453Y4584D01*
G01X30466Y4592D01*
G01X30478Y4601D01*
G01X30504Y4624D01*
G01X30532Y4646D01*
G01X30561Y4665D01*
G01X30591Y4683D01*
G01X30623Y4699D01*
G01X30655Y4713D01*
G01X30688Y4725D01*
G01X30722Y4735D01*
G01X30756Y4742D01*
G01X30790Y4747D01*
G01X30825Y4751D01*
G01X30861Y4752D01*
G01X30895Y4751D01*
G01X30930Y4748D01*
G01X30964Y4742D01*
G01X30998Y4735D01*
G01X31031Y4725D01*
G01X31063Y4714D01*
G01X31095Y4701D01*
G01X31126Y4685D01*
G01X31156Y4668D01*
G01X31185Y4649D01*
G01X31213Y4628D01*
G01X31239Y4605D01*
G01X31264Y4581D01*
G01X31287Y4555D01*
G01X31309Y4528D01*
G01X31329Y4500D01*
G01X31347Y4471D01*
G01X31363Y4440D01*
G01X31378Y4409D01*
G01X31390Y4376D01*
G01X31401Y4343D01*
G01X31406Y4330D01*
G01X31412Y4317D01*
G01X31421Y4305D01*
G01X31431Y4295D01*
G01X31443Y4286D01*
G01X31456Y4279D01*
G01X31470Y4274D01*
G01X31484Y4271D01*
G01X31498Y4270D01*
G01X31514Y4271D01*
G01X31530Y4275D01*
G01X31544Y4281D01*
G01X31558Y4289D01*
G01X31570Y4300D01*
G01X31986Y4716D01*
G01X32009Y4736D01*
G01X32032Y4755D01*
G01X32057Y4772D01*
G01X32083Y4786D01*
G01X32111Y4799D01*
G01X32139Y4809D01*
G01X32168Y4817D01*
G01X32198Y4823D01*
G01X32228Y4827D01*
G01X32258Y4828D01*
G01X32695Y4828D01*
G01X32710Y4829D01*
G01X32725Y4833D01*
G01X32739Y4838D01*
G01X32752Y4846D01*
G01X32764Y4855D01*
G01X32790Y4878D01*
G01X32818Y4900D01*
G01X32847Y4919D01*
G01X32877Y4937D01*
G01X32909Y4953D01*
G01X32941Y4967D01*
G01X32974Y4979D01*
G01X33008Y4989D01*
G01X33042Y4996D01*
G01X33076Y5001D01*
G01X33111Y5005D01*
G01X33147Y5006D01*
G01X33181Y5005D01*
G01X33214Y5002D01*
G01X33248Y4997D01*
G01X33281Y4990D01*
G01X33314Y4980D01*
G01X33346Y4969D01*
G01X33377Y4957D01*
G01X33408Y4941D01*
G01X33437Y4925D01*
G01X33466Y4906D01*
G01X33492Y4886D01*
G01X33519Y4865D01*
G01X33567Y4817D01*
G01X33588Y4790D01*
G01X33608Y4764D01*
G01X33627Y4735D01*
G01X33643Y4706D01*
G01X33659Y4675D01*
G01X33671Y4644D01*
G01X33682Y4612D01*
G01X33692Y4579D01*
G01X33699Y4546D01*
G01X33704Y4512D01*
G01X33707Y4479D01*
G01X33708Y4445D01*
G01X33707Y4410D01*
G01X33704Y4377D01*
G01X33699Y4343D01*
G01X33692Y4310D01*
G01X33682Y4277D01*
G01X33671Y4245D01*
G01X33659Y4214D01*
G01X33643Y4183D01*
G01X33627Y4154D01*
G01X33608Y4125D01*
G01X33588Y4099D01*
G01X33567Y4072D01*
G01X33519Y4024D01*
G01X33492Y4003D01*
G01X33466Y3983D01*
G01X33437Y3964D01*
G01X33408Y3948D01*
G01X33377Y3932D01*
G01X33346Y3920D01*
G01X33314Y3909D01*
G01X33281Y3899D01*
G01X33248Y3892D01*
G01X33214Y3887D01*
G01X33181Y3884D01*
G01X33147Y3883D01*
G01X33111Y3884D01*
G01X33076Y3888D01*
G01X33042Y3893D01*
G01X33008Y3900D01*
G01X32974Y3910D01*
G01X32941Y3922D01*
G01X32909Y3936D01*
G01X32877Y3952D01*
G01X32847Y3970D01*
G01X32818Y3989D01*
G01X32790Y4011D01*
G01X32764Y4034D01*
G01X32752Y4043D01*
G01X32739Y4051D01*
G01X32725Y4056D01*
G01X32710Y4060D01*
G01X32695Y4061D01*
G01X32459Y4061D01*
G01X32442Y4060D01*
G01X32427Y4056D01*
G01X32412Y4050D01*
G01X32399Y4042D01*
G01X32387Y4031D01*
G01X31513Y3157D01*
G01X31490Y3137D01*
G01X31467Y3118D01*
G01X31442Y3101D01*
G01X31416Y3087D01*
G01X31388Y3074D01*
G01X31360Y3064D01*
G01X31331Y3056D01*
G01X31301Y3050D01*
G01X31271Y3046D01*
G01X31242Y3045D01*
G01X26289Y3045D01*
G01X26259Y3046D01*
G01X26229Y3050D01*
G01X26199Y3056D01*
G01X26170Y3064D01*
G01X26142Y3074D01*
G01X26114Y3087D01*
G01X26088Y3101D01*
G01X26063Y3118D01*
G01X26040Y3137D01*
G01X26017Y3157D01*
G01X25410Y3764D01*
G01X25398Y3775D01*
G01X25384Y3783D01*
G01X25370Y3789D01*
G01X25354Y3793D01*
G01X25338Y3794D01*
G01X24630Y3794D01*
G01X24606Y3795D01*
G01X24583Y3799D01*
G01X24560Y3804D01*
G01X24537Y3812D01*
G01X24516Y3821D01*
G01X24495Y3833D01*
G01X24475Y3846D01*
G01X24457Y3861D01*
G01X24440Y3878D01*
G01X24425Y3896D01*
G01X24412Y3916D01*
G01X24400Y3937D01*
G01X24391Y3958D01*
G01X24383Y3981D01*
G01X24378Y4004D01*
G01X24374Y4027D01*
G01X24373Y4051D01*
G01X24373Y5282D01*
G01X24372Y5297D01*
G01X24369Y5311D01*
G01X24364Y5325D01*
G01X24357Y5338D01*
G01X24348Y5349D01*
G01X24338Y5359D01*
G01X24327Y5368D01*
G01X24314Y5375D01*
G01X24300Y5380D01*
G01X24286Y5383D01*
G01X24272Y5384D01*
G01X24256Y5383D01*
G01X24240Y5379D01*
G01X24226Y5373D01*
G01X24212Y5364D01*
G01X24200Y5354D01*
G01X23916Y5070D01*
G01X23905Y5058D01*
G01X23897Y5044D01*
G01X23891Y5029D01*
G01X23887Y5014D01*
G01X23886Y4998D01*
G01X23886Y4051D01*
G01X23885Y4027D01*
G01X23881Y4004D01*
G01X23876Y3981D01*
G01X23868Y3958D01*
G01X23859Y3937D01*
G01X23847Y3916D01*
G01X23834Y3896D01*
G01X23819Y3878D01*
G01X23802Y3861D01*
G01X23784Y3846D01*
G01X23764Y3833D01*
G01X23743Y3821D01*
G01X23722Y3812D01*
G01X23699Y3804D01*
G01X23676Y3799D01*
G01X23653Y3795D01*
G01X23629Y3794D01*
G01X22628Y3794D01*
G01X22604Y3795D01*
G01X22581Y3799D01*
G01X22558Y3804D01*
G01X22536Y3812D01*
G01X22514Y3821D01*
G01X22493Y3833D01*
G01X22474Y3846D01*
G01X22456Y3861D01*
G01X22439Y3878D01*
G01X22424Y3896D01*
G01X22410Y3916D01*
G01X22399Y3937D01*
G01X22389Y3958D01*
G01X22381Y3981D01*
G01X22376Y4004D01*
G01X22373Y4027D01*
G01X22372Y4051D01*
G01X22372Y5600D01*
G01X22373Y5625D01*
G01X22376Y5648D01*
G01X22382Y5672D01*
G01X22390Y5695D01*
G01X22400Y5717D01*
G01X22412Y5738D01*
G01X22426Y5758D01*
G01X22435Y5772D01*
G01X22442Y5787D01*
G01X22446Y5803D01*
G01X22447Y5820D01*
G01X22446Y5836D01*
G01X22442Y5852D01*
G01X22436Y5866D01*
G01X22428Y5880D01*
G01X22418Y5892D01*
G01X20795Y7514D01*
G01X20783Y7525D01*
G01X20770Y7533D01*
G01X20755Y7539D01*
G01X20739Y7543D01*
G01X20723Y7544D01*
G01X17881Y7544D01*
G01X17866Y7543D01*
G01X17852Y7540D01*
G01X17838Y7535D01*
G01X17826Y7528D01*
G01X17814Y7519D01*
G01X17804Y7509D01*
G01X17795Y7497D01*
G01X17788Y7484D01*
G01X17783Y7471D01*
G01X17780Y7457D01*
G01X17779Y7442D01*
G01X17781Y7426D01*
G01X17784Y7411D01*
G01X17790Y7396D01*
G01X17798Y7383D01*
G01X17809Y7371D01*
G01X18940Y6240D01*
G01X18960Y6217D01*
G01X18979Y6194D01*
G01X18996Y6169D01*
G01X19010Y6143D01*
G01X19023Y6115D01*
G01X19033Y6087D01*
G01X19041Y6058D01*
G01X19047Y6028D01*
G01X19051Y5998D01*
G01X19052Y5969D01*
G01X19052Y4138D01*
G01X19053Y4121D01*
G01X19057Y4106D01*
G01X19063Y4091D01*
G01X19071Y4078D01*
G01X19082Y4066D01*
G01X19702Y3446D01*
G01X19722Y3423D01*
G01X19741Y3400D01*
G01X19758Y3375D01*
G01X19772Y3349D01*
G01X19785Y3321D01*
G01X19795Y3293D01*
G01X19803Y3264D01*
G01X19809Y3234D01*
G01X19813Y3204D01*
G01X19814Y3175D01*
G01X19814Y2635D01*
G01X19815Y2621D01*
G01X19818Y2607D01*
G01X19823Y2593D01*
G01X19830Y2580D01*
G01X19839Y2568D01*
G01X19849Y2558D01*
G01X19861Y2550D01*
G01X19873Y2543D01*
G01X19887Y2537D01*
G01X19901Y2534D01*
G01X19916Y2533D01*
G01X19940Y2536D01*
G01X19990Y2548D01*
G01X20040Y2556D01*
G01X20091Y2562D01*
G01X20142Y2566D01*
G01X20193Y2567D01*
G01X20239Y2566D01*
G01X20286Y2563D01*
G01X20333Y2558D01*
G01X20379Y2551D01*
G01X20425Y2541D01*
G01X20470Y2530D01*
G01X20515Y2516D01*
G01X20559Y2501D01*
G01X20603Y2484D01*
G01X20646Y2464D01*
G01X20687Y2443D01*
G01X20728Y2420D01*
G01X20768Y2395D01*
G01X20806Y2368D01*
G01X20843Y2340D01*
G01X20879Y2310D01*
G01X20914Y2278D01*
G01X20947Y2245D01*
G01X20979Y2210D01*
G01X21009Y2174D01*
G01X21037Y2137D01*
G01X21064Y2099D01*
G01X21089Y2059D01*
G01X21112Y2018D01*
G01X21133Y1977D01*
G01X21153Y1934D01*
G01X21170Y1890D01*
G01X21185Y1846D01*
G01X21199Y1801D01*
G01X21210Y1756D01*
G01X21220Y1710D01*
G01X21227Y1664D01*
G01X21232Y1617D01*
G01X21235Y1570D01*
G01X21236Y1524D01*
G01X21235Y1477D01*
G01X21232Y1430D01*
G01X21227Y1383D01*
G01X21220Y1337D01*
G01X21210Y1291D01*
G01X21199Y1246D01*
G01X21185Y1201D01*
G01X21170Y1157D01*
G01X21153Y1113D01*
G01X21133Y1070D01*
G01X21112Y1029D01*
G01X21089Y988D01*
G01X21064Y948D01*
G01X21037Y910D01*
G01X21009Y873D01*
G01X20979Y837D01*
G01X20947Y802D01*
G01X20914Y769D01*
G01X20879Y737D01*
G01X20843Y707D01*
G01X20806Y679D01*
G01X20768Y652D01*
G01X20728Y627D01*
G01X20687Y604D01*
G01X20646Y583D01*
G01X20603Y563D01*
G01X20559Y546D01*
G01X20515Y531D01*
G01X20470Y517D01*
G01X20425Y506D01*
G01X20379Y496D01*
G01X20333Y489D01*
G01X20286Y484D01*
G01X20239Y481D01*
G01X20193Y480D01*
G01X20145Y481D01*
G01X20098Y484D01*
G01X20050Y489D01*
G01X20003Y497D01*
G01X19957Y506D01*
G01X19911Y518D01*
G01X19865Y532D01*
G01X19820Y548D01*
G01X19776Y566D01*
G01X19733Y586D01*
G01X19691Y608D01*
G01X19649Y632D01*
G01X19609Y658D01*
G01X19571Y685D01*
G01X19533Y714D01*
G01X19497Y745D01*
G01X19462Y778D01*
G01X19429Y812D01*
G01X19397Y847D01*
G01X19367Y884D01*
G01X19357Y896D01*
G01X19345Y905D01*
G01X19331Y913D01*
G01X19317Y919D01*
G01X19302Y923D01*
G01X19287Y924D01*
G01X19273Y923D01*
G01X19258Y919D01*
G01X19245Y915D01*
G01X19232Y908D01*
G01X19221Y899D01*
G01X19211Y889D01*
G01X19194Y871D01*
G01X18752Y429D01*
G01X18742Y418D01*
G01X18733Y404D01*
G01X18727Y389D01*
G01X18723Y373D01*
G01X18722Y358D01*
G01X18723Y343D01*
G01X18726Y329D01*
G01X18731Y315D01*
G01X18738Y303D01*
G01X18747Y291D01*
G01X18757Y281D01*
G01X18769Y272D01*
G01X18781Y265D01*
G01X18795Y260D01*
G01X18809Y257D01*
G01X18824Y256D01*
G01X42579Y256D01*
G01X42594Y257D01*
G01X42608Y260D01*
G01X42621Y265D01*
G01X42634Y272D01*
G01X42646Y281D01*
G01X42656Y291D01*
G01X42672Y315D01*
G01X42677Y329D01*
G01X42680Y343D01*
G01X42681Y358D01*
G01X42680Y372D01*
G01X42677Y387D01*
G01X42672Y400D01*
G01X42664Y413D01*
G01X42655Y425D01*
G01X42645Y435D01*
G01X42633Y444D01*
G01X42590Y472D01*
G01X42548Y502D01*
G01X42507Y533D01*
G01X42467Y567D01*
G01X42430Y601D01*
G01X42393Y638D01*
G01X42358Y676D01*
G01X42324Y715D01*
G01X42292Y755D01*
G01X42262Y797D01*
G01X42233Y840D01*
G01X42207Y884D01*
G01X42181Y929D01*
G01X42158Y975D01*
G01X42137Y1022D01*
G01X42118Y1070D01*
G01X42100Y1118D01*
G01X42085Y1167D01*
G01X42072Y1217D01*
G01X42060Y1267D01*
G01X42051Y1318D01*
G01X42043Y1369D01*
G01X42038Y1420D01*
G01X42035Y1472D01*
G01X42034Y1524D01*
G01X42035Y1575D01*
G01X42038Y1626D01*
G01X42043Y1677D01*
G01X42050Y1728D01*
G01X42060Y1778D01*
G01X42071Y1828D01*
G01X42084Y1878D01*
G01X42099Y1926D01*
G01X42117Y1975D01*
G01X42136Y2022D01*
G01X42157Y2069D01*
G01X42180Y2115D01*
G01X42205Y2160D01*
G01X42231Y2204D01*
G01X42259Y2246D01*
G01X42289Y2288D01*
G01X42321Y2328D01*
G01X42354Y2367D01*
G01X42389Y2405D01*
G01X42425Y2441D01*
G01X42463Y2476D01*
G01X42502Y2509D01*
G01X42542Y2541D01*
G01X42584Y2571D01*
G01X42626Y2599D01*
G01X42670Y2625D01*
G01X42715Y2650D01*
G01X42761Y2673D01*
G01X42808Y2694D01*
G01X42855Y2713D01*
G01X42904Y2731D01*
G01X42952Y2746D01*
G01X43002Y2759D01*
G01X43052Y2770D01*
G01X43102Y2780D01*
G01X43153Y2787D01*
G01X43204Y2792D01*
G01X43255Y2795D01*
G01X43307Y2796D01*
G01X43358Y2795D01*
G01X43410Y2792D01*
G01X43461Y2787D01*
G01X43512Y2779D01*
G01X43563Y2770D01*
G01X43613Y2758D01*
G01X43663Y2745D01*
G01X43712Y2730D01*
G01X43760Y2712D01*
G01X43808Y2693D01*
G01X43855Y2672D01*
G01X43901Y2649D01*
G01X43946Y2623D01*
G01X43990Y2597D01*
G01X44033Y2568D01*
G01X44075Y2538D01*
G01X44115Y2506D01*
G01X44154Y2472D01*
G01X44192Y2437D01*
G01X44229Y2400D01*
G01X44263Y2363D01*
G01X44297Y2323D01*
G01X44328Y2282D01*
G01X44358Y2240D01*
G01X44386Y2197D01*
G01X44395Y2185D01*
G01X44405Y2175D01*
G01X44417Y2166D01*
G01X44430Y2159D01*
G01X44443Y2153D01*
G01X44458Y2150D01*
G01X44472Y2149D01*
G01X44487Y2150D01*
G01X44501Y2153D01*
G01X44515Y2159D01*
G01X44527Y2166D01*
G01X44539Y2174D01*
G01X44549Y2184D01*
G01X44558Y2196D01*
G01X44565Y2209D01*
G01X44570Y2222D01*
G01X44573Y2236D01*
G01X44574Y2251D01*
G01X44574Y20862D01*
G01X44573Y20877D01*
G01X44570Y20891D01*
G01X44565Y20904D01*
G01X44558Y20917D01*
G01X44549Y20929D01*
G01X44539Y20939D01*
G01X44515Y20955D01*
G01X44501Y20960D01*
G01X44487Y20963D01*
G01X44472Y20964D01*
G01X44458Y20963D01*
G01X44443Y20960D01*
G01X44430Y20955D01*
G01X44417Y20947D01*
G01X44405Y20938D01*
G01X44395Y20928D01*
G01X44386Y20916D01*
G01X44358Y20873D01*
G01X44328Y20831D01*
G01X44297Y20790D01*
G01X44263Y20750D01*
G01X44229Y20713D01*
G01X44192Y20676D01*
G01X44154Y20641D01*
G01X44115Y20607D01*
G01X44075Y20575D01*
G01X44033Y20545D01*
G01X43990Y20516D01*
G01X43946Y20490D01*
G01X43901Y20464D01*
G01X43855Y20441D01*
G01X43808Y20420D01*
G01X43760Y20401D01*
G01X43712Y20383D01*
G01X43663Y20368D01*
G01X43613Y20355D01*
G01X43563Y20343D01*
G01X43512Y20334D01*
G01X43461Y20326D01*
G01X43410Y20321D01*
G01X43358Y20318D01*
G01X43307Y20317D01*
G01X43255Y20318D01*
G01X43204Y20321D01*
G01X43153Y20326D01*
G01X43102Y20333D01*
G01X43052Y20343D01*
G01X43002Y20354D01*
G01X42952Y20367D01*
G01X42904Y20382D01*
G01X42855Y20400D01*
G01X42808Y20419D01*
G01X42761Y20440D01*
G01X42715Y20463D01*
G01X42670Y20488D01*
G01X42626Y20514D01*
G01X42584Y20542D01*
G01X42542Y20572D01*
G01X42502Y20604D01*
G01X42463Y20637D01*
G01X42425Y20672D01*
G01X42389Y20708D01*
G01X42354Y20746D01*
G01X42321Y20785D01*
G01X42289Y20825D01*
G01X42259Y20867D01*
G01X42231Y20909D01*
G01X42205Y20953D01*
G01X42180Y20998D01*
G01X42157Y21044D01*
G01X42136Y21091D01*
G01X42117Y21138D01*
G01X42099Y21187D01*
G01X42084Y21235D01*
G01X42071Y21285D01*
G01X42060Y21335D01*
G01X42050Y21385D01*
G01X42043Y21436D01*
G01X42038Y21487D01*
G01X42035Y21538D01*
G01X42034Y21590D01*
G01X42035Y21641D01*
G01X42038Y21693D01*
G01X42043Y21744D01*
G01X42051Y21795D01*
G01X42060Y21846D01*
G01X42072Y21896D01*
G01X42085Y21946D01*
G01X42100Y21995D01*
G01X42118Y22043D01*
G01X42137Y22091D01*
G01X42158Y22138D01*
G01X42181Y22184D01*
G01X42207Y22229D01*
G01X42233Y22273D01*
G01X42262Y22316D01*
G01X42292Y22358D01*
G01X42324Y22398D01*
G01X42358Y22437D01*
G01X42393Y22475D01*
G01X42430Y22512D01*
G01X42467Y22546D01*
G01X42507Y22580D01*
G01X42548Y22611D01*
G01X42590Y22641D01*
G01X42633Y22669D01*
G01X42645Y22678D01*
G01X42655Y22688D01*
G01X42664Y22700D01*
G01X42672Y22713D01*
G01X42677Y22726D01*
G01X42680Y22741D01*
G01X42681Y22755D01*
G01X42680Y22770D01*
G01X42677Y22784D01*
G01X42672Y22798D01*
G01X42656Y22822D01*
G01X42646Y22832D01*
G01X42634Y22841D01*
G01X42621Y22848D01*
G01X42608Y22853D01*
G01X42594Y22856D01*
G01X42579Y22857D01*
G37*

%LPC*%
G36*
G01X22779Y2566D02*
G01X22733Y2567D01*
G01X22686Y2566D01*
G01X22639Y2563D01*
G01X22592Y2558D01*
G01X22546Y2551D01*
G01X22500Y2541D01*
G01X22455Y2530D01*
G01X22410Y2516D01*
G01X22366Y2501D01*
G01X22322Y2484D01*
G01X22279Y2464D01*
G01X22238Y2443D01*
G01X22197Y2420D01*
G01X22157Y2395D01*
G01X22119Y2368D01*
G01X22082Y2340D01*
G01X22046Y2310D01*
G01X22011Y2278D01*
G01X21978Y2245D01*
G01X21946Y2210D01*
G01X21916Y2174D01*
G01X21888Y2137D01*
G01X21861Y2099D01*
G01X21836Y2059D01*
G01X21813Y2018D01*
G01X21792Y1977D01*
G01X21772Y1934D01*
G01X21755Y1890D01*
G01X21740Y1846D01*
G01X21726Y1801D01*
G01X21715Y1756D01*
G01X21705Y1710D01*
G01X21698Y1664D01*
G01X21693Y1617D01*
G01X21690Y1570D01*
G01X21689Y1524D01*
G01X21690Y1477D01*
G01X21693Y1430D01*
G01X21698Y1383D01*
G01X21705Y1337D01*
G01X21715Y1291D01*
G01X21726Y1246D01*
G01X21740Y1201D01*
G01X21755Y1157D01*
G01X21772Y1113D01*
G01X21792Y1070D01*
G01X21813Y1029D01*
G01X21836Y988D01*
G01X21861Y948D01*
G01X21888Y910D01*
G01X21916Y873D01*
G01X21946Y837D01*
G01X21978Y802D01*
G01X22011Y769D01*
G01X22046Y737D01*
G01X22082Y707D01*
G01X22119Y679D01*
G01X22157Y652D01*
G01X22197Y627D01*
G01X22238Y604D01*
G01X22279Y583D01*
G01X22322Y563D01*
G01X22366Y546D01*
G01X22410Y531D01*
G01X22455Y517D01*
G01X22500Y506D01*
G01X22546Y496D01*
G01X22592Y489D01*
G01X22639Y484D01*
G01X22686Y481D01*
G01X22733Y480D01*
G01X22779Y481D01*
G01X22826Y484D01*
G01X22873Y489D01*
G01X22919Y496D01*
G01X22965Y506D01*
G01X23010Y517D01*
G01X23055Y531D01*
G01X23099Y546D01*
G01X23143Y563D01*
G01X23186Y583D01*
G01X23227Y604D01*
G01X23268Y627D01*
G01X23308Y652D01*
G01X23346Y679D01*
G01X23383Y707D01*
G01X23419Y737D01*
G01X23454Y769D01*
G01X23487Y802D01*
G01X23519Y837D01*
G01X23549Y873D01*
G01X23577Y910D01*
G01X23604Y948D01*
G01X23629Y988D01*
G01X23652Y1029D01*
G01X23673Y1070D01*
G01X23693Y1113D01*
G01X23710Y1157D01*
G01X23725Y1201D01*
G01X23739Y1246D01*
G01X23750Y1291D01*
G01X23760Y1337D01*
G01X23767Y1383D01*
G01X23772Y1430D01*
G01X23775Y1477D01*
G01X23776Y1524D01*
G01X23775Y1570D01*
G01X23772Y1617D01*
G01X23767Y1664D01*
G01X23760Y1710D01*
G01X23750Y1756D01*
G01X23739Y1801D01*
G01X23725Y1846D01*
G01X23710Y1890D01*
G01X23693Y1934D01*
G01X23673Y1977D01*
G01X23652Y2018D01*
G01X23629Y2059D01*
G01X23604Y2099D01*
G01X23577Y2137D01*
G01X23549Y2174D01*
G01X23519Y2210D01*
G01X23487Y2245D01*
G01X23454Y2278D01*
G01X23419Y2310D01*
G01X23383Y2340D01*
G01X23346Y2368D01*
G01X23308Y2395D01*
G01X23268Y2420D01*
G01X23227Y2443D01*
G01X23186Y2464D01*
G01X23143Y2484D01*
G01X23099Y2501D01*
G01X23055Y2516D01*
G01X23010Y2530D01*
G01X22965Y2541D01*
G01X22919Y2551D01*
G01X22873Y2558D01*
G01X22826Y2563D01*
G01X22779Y2566D01*
G37*
G36*
G01X30399Y2566D02*
G01X30353Y2567D01*
G01X30306Y2566D01*
G01X30259Y2563D01*
G01X30212Y2558D01*
G01X30166Y2551D01*
G01X30120Y2541D01*
G01X30075Y2530D01*
G01X30030Y2516D01*
G01X29986Y2501D01*
G01X29942Y2484D01*
G01X29899Y2464D01*
G01X29858Y2443D01*
G01X29817Y2420D01*
G01X29777Y2395D01*
G01X29739Y2368D01*
G01X29702Y2340D01*
G01X29666Y2310D01*
G01X29631Y2278D01*
G01X29598Y2245D01*
G01X29566Y2210D01*
G01X29536Y2174D01*
G01X29508Y2137D01*
G01X29481Y2099D01*
G01X29456Y2059D01*
G01X29433Y2018D01*
G01X29412Y1977D01*
G01X29392Y1934D01*
G01X29375Y1890D01*
G01X29360Y1846D01*
G01X29346Y1801D01*
G01X29335Y1756D01*
G01X29325Y1710D01*
G01X29318Y1664D01*
G01X29313Y1617D01*
G01X29310Y1570D01*
G01X29309Y1524D01*
G01X29310Y1477D01*
G01X29313Y1430D01*
G01X29318Y1383D01*
G01X29325Y1337D01*
G01X29335Y1291D01*
G01X29346Y1246D01*
G01X29360Y1201D01*
G01X29375Y1157D01*
G01X29392Y1113D01*
G01X29412Y1070D01*
G01X29433Y1029D01*
G01X29456Y988D01*
G01X29481Y948D01*
G01X29508Y910D01*
G01X29536Y873D01*
G01X29566Y837D01*
G01X29598Y802D01*
G01X29631Y769D01*
G01X29666Y737D01*
G01X29702Y707D01*
G01X29739Y679D01*
G01X29777Y652D01*
G01X29817Y627D01*
G01X29858Y604D01*
G01X29899Y583D01*
G01X29942Y563D01*
G01X29986Y546D01*
G01X30030Y531D01*
G01X30075Y517D01*
G01X30120Y506D01*
G01X30166Y496D01*
G01X30212Y489D01*
G01X30259Y484D01*
G01X30306Y481D01*
G01X30353Y480D01*
G01X30399Y481D01*
G01X30446Y484D01*
G01X30493Y489D01*
G01X30539Y496D01*
G01X30585Y506D01*
G01X30630Y517D01*
G01X30675Y531D01*
G01X30719Y546D01*
G01X30763Y563D01*
G01X30806Y583D01*
G01X30847Y604D01*
G01X30888Y627D01*
G01X30928Y652D01*
G01X30966Y679D01*
G01X31003Y707D01*
G01X31039Y737D01*
G01X31074Y769D01*
G01X31107Y802D01*
G01X31139Y837D01*
G01X31169Y873D01*
G01X31197Y910D01*
G01X31224Y948D01*
G01X31249Y988D01*
G01X31272Y1029D01*
G01X31293Y1070D01*
G01X31313Y1113D01*
G01X31330Y1157D01*
G01X31345Y1201D01*
G01X31359Y1246D01*
G01X31370Y1291D01*
G01X31380Y1337D01*
G01X31387Y1383D01*
G01X31392Y1430D01*
G01X31395Y1477D01*
G01X31396Y1524D01*
G01X31395Y1570D01*
G01X31392Y1617D01*
G01X31387Y1664D01*
G01X31380Y1710D01*
G01X31370Y1756D01*
G01X31359Y1801D01*
G01X31345Y1846D01*
G01X31330Y1890D01*
G01X31313Y1934D01*
G01X31293Y1977D01*
G01X31272Y2018D01*
G01X31249Y2059D01*
G01X31224Y2099D01*
G01X31197Y2137D01*
G01X31169Y2174D01*
G01X31139Y2210D01*
G01X31107Y2245D01*
G01X31074Y2278D01*
G01X31039Y2310D01*
G01X31003Y2340D01*
G01X30966Y2368D01*
G01X30928Y2395D01*
G01X30888Y2420D01*
G01X30847Y2443D01*
G01X30806Y2464D01*
G01X30763Y2484D01*
G01X30719Y2501D01*
G01X30675Y2516D01*
G01X30630Y2530D01*
G01X30585Y2541D01*
G01X30539Y2551D01*
G01X30493Y2558D01*
G01X30446Y2563D01*
G01X30399Y2566D01*
G37*
G36*
G01X25319Y2566D02*
G01X25273Y2567D01*
G01X25226Y2566D01*
G01X25179Y2563D01*
G01X25132Y2558D01*
G01X25086Y2551D01*
G01X25040Y2541D01*
G01X24995Y2530D01*
G01X24950Y2516D01*
G01X24906Y2501D01*
G01X24862Y2484D01*
G01X24819Y2464D01*
G01X24778Y2443D01*
G01X24737Y2420D01*
G01X24697Y2395D01*
G01X24659Y2368D01*
G01X24622Y2340D01*
G01X24586Y2310D01*
G01X24551Y2278D01*
G01X24518Y2245D01*
G01X24486Y2210D01*
G01X24456Y2174D01*
G01X24428Y2137D01*
G01X24401Y2099D01*
G01X24376Y2059D01*
G01X24353Y2018D01*
G01X24332Y1977D01*
G01X24312Y1934D01*
G01X24295Y1890D01*
G01X24280Y1846D01*
G01X24266Y1801D01*
G01X24255Y1756D01*
G01X24245Y1710D01*
G01X24238Y1664D01*
G01X24233Y1617D01*
G01X24230Y1570D01*
G01X24229Y1524D01*
G01X24230Y1477D01*
G01X24233Y1430D01*
G01X24238Y1383D01*
G01X24245Y1337D01*
G01X24255Y1291D01*
G01X24266Y1246D01*
G01X24280Y1201D01*
G01X24295Y1157D01*
G01X24312Y1113D01*
G01X24332Y1070D01*
G01X24353Y1029D01*
G01X24376Y988D01*
G01X24401Y948D01*
G01X24428Y910D01*
G01X24456Y873D01*
G01X24486Y837D01*
G01X24518Y802D01*
G01X24551Y769D01*
G01X24586Y737D01*
G01X24622Y707D01*
G01X24659Y679D01*
G01X24697Y652D01*
G01X24737Y627D01*
G01X24778Y604D01*
G01X24819Y583D01*
G01X24862Y563D01*
G01X24906Y546D01*
G01X24950Y531D01*
G01X24995Y517D01*
G01X25040Y506D01*
G01X25086Y496D01*
G01X25132Y489D01*
G01X25179Y484D01*
G01X25226Y481D01*
G01X25273Y480D01*
G01X25319Y481D01*
G01X25366Y484D01*
G01X25413Y489D01*
G01X25459Y496D01*
G01X25505Y506D01*
G01X25550Y517D01*
G01X25595Y531D01*
G01X25639Y546D01*
G01X25683Y563D01*
G01X25726Y583D01*
G01X25767Y604D01*
G01X25808Y627D01*
G01X25848Y652D01*
G01X25886Y679D01*
G01X25923Y707D01*
G01X25959Y737D01*
G01X25994Y769D01*
G01X26027Y802D01*
G01X26059Y837D01*
G01X26089Y873D01*
G01X26117Y910D01*
G01X26144Y948D01*
G01X26169Y988D01*
G01X26192Y1029D01*
G01X26213Y1070D01*
G01X26233Y1113D01*
G01X26250Y1157D01*
G01X26265Y1201D01*
G01X26279Y1246D01*
G01X26290Y1291D01*
G01X26300Y1337D01*
G01X26307Y1383D01*
G01X26312Y1430D01*
G01X26315Y1477D01*
G01X26316Y1524D01*
G01X26315Y1570D01*
G01X26312Y1617D01*
G01X26307Y1664D01*
G01X26300Y1710D01*
G01X26290Y1756D01*
G01X26279Y1801D01*
G01X26265Y1846D01*
G01X26250Y1890D01*
G01X26233Y1934D01*
G01X26213Y1977D01*
G01X26192Y2018D01*
G01X26169Y2059D01*
G01X26144Y2099D01*
G01X26117Y2137D01*
G01X26089Y2174D01*
G01X26059Y2210D01*
G01X26027Y2245D01*
G01X25994Y2278D01*
G01X25959Y2310D01*
G01X25923Y2340D01*
G01X25886Y2368D01*
G01X25848Y2395D01*
G01X25808Y2420D01*
G01X25767Y2443D01*
G01X25726Y2464D01*
G01X25683Y2484D01*
G01X25639Y2501D01*
G01X25595Y2516D01*
G01X25550Y2530D01*
G01X25505Y2541D01*
G01X25459Y2551D01*
G01X25413Y2558D01*
G01X25366Y2563D01*
G01X25319Y2566D01*
G37*
G36*
G01X27859Y2566D02*
G01X27813Y2567D01*
G01X27766Y2566D01*
G01X27719Y2563D01*
G01X27672Y2558D01*
G01X27626Y2551D01*
G01X27580Y2541D01*
G01X27535Y2530D01*
G01X27490Y2516D01*
G01X27446Y2501D01*
G01X27402Y2484D01*
G01X27359Y2464D01*
G01X27318Y2443D01*
G01X27277Y2420D01*
G01X27237Y2395D01*
G01X27199Y2368D01*
G01X27162Y2340D01*
G01X27126Y2310D01*
G01X27091Y2278D01*
G01X27058Y2245D01*
G01X27026Y2210D01*
G01X26996Y2174D01*
G01X26968Y2137D01*
G01X26941Y2099D01*
G01X26916Y2059D01*
G01X26893Y2018D01*
G01X26872Y1977D01*
G01X26852Y1934D01*
G01X26835Y1890D01*
G01X26820Y1846D01*
G01X26806Y1801D01*
G01X26795Y1756D01*
G01X26785Y1710D01*
G01X26778Y1664D01*
G01X26773Y1617D01*
G01X26770Y1570D01*
G01X26769Y1524D01*
G01X26770Y1477D01*
G01X26773Y1430D01*
G01X26778Y1383D01*
G01X26785Y1337D01*
G01X26795Y1291D01*
G01X26806Y1246D01*
G01X26820Y1201D01*
G01X26835Y1157D01*
G01X26852Y1113D01*
G01X26872Y1070D01*
G01X26893Y1029D01*
G01X26916Y988D01*
G01X26941Y948D01*
G01X26968Y910D01*
G01X26996Y873D01*
G01X27026Y837D01*
G01X27058Y802D01*
G01X27091Y769D01*
G01X27126Y737D01*
G01X27162Y707D01*
G01X27199Y679D01*
G01X27237Y652D01*
G01X27277Y627D01*
G01X27318Y604D01*
G01X27359Y583D01*
G01X27402Y563D01*
G01X27446Y546D01*
G01X27490Y531D01*
G01X27535Y517D01*
G01X27580Y506D01*
G01X27626Y496D01*
G01X27672Y489D01*
G01X27719Y484D01*
G01X27766Y481D01*
G01X27813Y480D01*
G01X27859Y481D01*
G01X27906Y484D01*
G01X27953Y489D01*
G01X27999Y496D01*
G01X28045Y506D01*
G01X28090Y517D01*
G01X28135Y531D01*
G01X28179Y546D01*
G01X28223Y563D01*
G01X28266Y583D01*
G01X28307Y604D01*
G01X28348Y627D01*
G01X28388Y652D01*
G01X28426Y679D01*
G01X28463Y707D01*
G01X28499Y737D01*
G01X28534Y769D01*
G01X28567Y802D01*
G01X28599Y837D01*
G01X28629Y873D01*
G01X28657Y910D01*
G01X28684Y948D01*
G01X28709Y988D01*
G01X28732Y1029D01*
G01X28753Y1070D01*
G01X28773Y1113D01*
G01X28790Y1157D01*
G01X28805Y1201D01*
G01X28819Y1246D01*
G01X28830Y1291D01*
G01X28840Y1337D01*
G01X28847Y1383D01*
G01X28852Y1430D01*
G01X28855Y1477D01*
G01X28856Y1524D01*
G01X28855Y1570D01*
G01X28852Y1617D01*
G01X28847Y1664D01*
G01X28840Y1710D01*
G01X28830Y1756D01*
G01X28819Y1801D01*
G01X28805Y1846D01*
G01X28790Y1890D01*
G01X28773Y1934D01*
G01X28753Y1977D01*
G01X28732Y2018D01*
G01X28709Y2059D01*
G01X28684Y2099D01*
G01X28657Y2137D01*
G01X28629Y2174D01*
G01X28599Y2210D01*
G01X28567Y2245D01*
G01X28534Y2278D01*
G01X28499Y2310D01*
G01X28463Y2340D01*
G01X28426Y2368D01*
G01X28388Y2395D01*
G01X28348Y2420D01*
G01X28307Y2443D01*
G01X28266Y2464D01*
G01X28223Y2484D01*
G01X28179Y2501D01*
G01X28135Y2516D01*
G01X28090Y2530D01*
G01X28045Y2541D01*
G01X27999Y2551D01*
G01X27953Y2558D01*
G01X27906Y2563D01*
G01X27859Y2566D01*
G37*
G36*
G01X40813Y7138D02*
G01X40767Y7139D01*
G01X40719Y7138D01*
G01X40672Y7135D01*
G01X40624Y7130D01*
G01X40577Y7122D01*
G01X40530Y7113D01*
G01X40438Y7087D01*
G01X40394Y7070D01*
G01X40349Y7053D01*
G01X40306Y7033D01*
G01X40264Y7010D01*
G01X40223Y6987D01*
G01X40183Y6961D01*
G01X40144Y6933D01*
G01X40106Y6904D01*
G01X40070Y6873D01*
G01X40035Y6840D01*
G01X40002Y6806D01*
G01X39970Y6771D01*
G01X39940Y6734D01*
G01X39912Y6695D01*
G01X39902Y6683D01*
G01X39890Y6672D01*
G01X39876Y6663D01*
G01X39861Y6657D01*
G01X39845Y6653D01*
G01X39829Y6652D01*
G01X39751Y6652D01*
G01X39717Y6651D01*
G01X39683Y6648D01*
G01X39650Y6643D01*
G01X39617Y6636D01*
G01X39585Y6627D01*
G01X39553Y6616D01*
G01X39522Y6603D01*
G01X39492Y6588D01*
G01X39462Y6572D01*
G01X39435Y6554D01*
G01X39407Y6533D01*
G01X39382Y6512D01*
G01X39357Y6489D01*
G01X36375Y3507D01*
G01X36363Y3497D01*
G01X36349Y3488D01*
G01X36334Y3482D01*
G01X36319Y3478D01*
G01X36303Y3477D01*
G01X34290Y3477D01*
G01X34256Y3476D01*
G01X34222Y3473D01*
G01X34189Y3468D01*
G01X34156Y3461D01*
G01X34124Y3452D01*
G01X34092Y3441D01*
G01X34061Y3428D01*
G01X34031Y3413D01*
G01X34001Y3397D01*
G01X33974Y3379D01*
G01X33946Y3358D01*
G01X33921Y3337D01*
G01X33896Y3314D01*
G01X33162Y2580D01*
G01X33150Y2569D01*
G01X33136Y2561D01*
G01X33122Y2555D01*
G01X33106Y2552D01*
G01X33090Y2550D01*
G01X33073Y2552D01*
G01X33013Y2560D01*
G01X32953Y2566D01*
G01X32893Y2567D01*
G01X32846Y2566D01*
G01X32799Y2563D01*
G01X32752Y2558D01*
G01X32706Y2551D01*
G01X32660Y2541D01*
G01X32615Y2530D01*
G01X32570Y2516D01*
G01X32526Y2501D01*
G01X32482Y2484D01*
G01X32439Y2464D01*
G01X32398Y2443D01*
G01X32357Y2420D01*
G01X32317Y2395D01*
G01X32279Y2368D01*
G01X32242Y2340D01*
G01X32206Y2310D01*
G01X32171Y2278D01*
G01X32138Y2245D01*
G01X32106Y2210D01*
G01X32076Y2174D01*
G01X32048Y2137D01*
G01X32021Y2099D01*
G01X31996Y2059D01*
G01X31973Y2018D01*
G01X31952Y1977D01*
G01X31932Y1934D01*
G01X31915Y1890D01*
G01X31900Y1846D01*
G01X31886Y1801D01*
G01X31875Y1756D01*
G01X31865Y1710D01*
G01X31858Y1664D01*
G01X31853Y1617D01*
G01X31850Y1570D01*
G01X31849Y1524D01*
G01X31850Y1477D01*
G01X31853Y1430D01*
G01X31858Y1383D01*
G01X31865Y1337D01*
G01X31875Y1291D01*
G01X31886Y1246D01*
G01X31900Y1201D01*
G01X31915Y1157D01*
G01X31932Y1113D01*
G01X31952Y1070D01*
G01X31973Y1029D01*
G01X31996Y988D01*
G01X32021Y948D01*
G01X32048Y910D01*
G01X32076Y873D01*
G01X32106Y837D01*
G01X32138Y802D01*
G01X32171Y769D01*
G01X32206Y737D01*
G01X32242Y707D01*
G01X32279Y679D01*
G01X32317Y652D01*
G01X32357Y627D01*
G01X32398Y604D01*
G01X32439Y583D01*
G01X32482Y563D01*
G01X32526Y546D01*
G01X32570Y531D01*
G01X32615Y517D01*
G01X32660Y506D01*
G01X32706Y496D01*
G01X32752Y489D01*
G01X32799Y484D01*
G01X32846Y481D01*
G01X32893Y480D01*
G01X32939Y481D01*
G01X32986Y484D01*
G01X33033Y489D01*
G01X33079Y496D01*
G01X33125Y506D01*
G01X33170Y517D01*
G01X33215Y531D01*
G01X33259Y546D01*
G01X33303Y563D01*
G01X33346Y583D01*
G01X33387Y604D01*
G01X33428Y627D01*
G01X33468Y652D01*
G01X33506Y679D01*
G01X33543Y707D01*
G01X33579Y737D01*
G01X33614Y769D01*
G01X33647Y802D01*
G01X33679Y837D01*
G01X33709Y873D01*
G01X33737Y910D01*
G01X33764Y948D01*
G01X33789Y988D01*
G01X33812Y1029D01*
G01X33833Y1070D01*
G01X33853Y1113D01*
G01X33870Y1157D01*
G01X33885Y1201D01*
G01X33899Y1246D01*
G01X33910Y1291D01*
G01X33920Y1337D01*
G01X33927Y1383D01*
G01X33932Y1430D01*
G01X33935Y1477D01*
G01X33936Y1524D01*
G01X33935Y1584D01*
G01X33929Y1644D01*
G01X33921Y1704D01*
G01X33919Y1721D01*
G01X33921Y1737D01*
G01X33924Y1753D01*
G01X33930Y1767D01*
G01X33938Y1781D01*
G01X33949Y1793D01*
G01X34463Y2307D01*
G01X34475Y2317D01*
G01X34489Y2325D01*
G01X34503Y2331D01*
G01X34519Y2335D01*
G01X34534Y2336D01*
G01X34549Y2335D01*
G01X34563Y2332D01*
G01X34577Y2327D01*
G01X34590Y2320D01*
G01X34601Y2311D01*
G01X34612Y2301D01*
G01X34620Y2290D01*
G01X34627Y2277D01*
G01X34632Y2264D01*
G01X34635Y2249D01*
G01X34636Y2235D01*
G01X34635Y2218D01*
G01X34630Y2201D01*
G01X34624Y2186D01*
G01X34614Y2172D01*
G01X34580Y2126D01*
G01X34549Y2079D01*
G01X34520Y2031D01*
G01X34494Y1981D01*
G01X34975Y1981D01*
G01X34975Y2262D01*
G01X34976Y2277D01*
G01X34979Y2291D01*
G01X34984Y2305D01*
G01X34992Y2318D01*
G01X35000Y2329D01*
G01X35010Y2339D01*
G01X35022Y2348D01*
G01X35035Y2355D01*
G01X35048Y2360D01*
G01X35063Y2363D01*
G01X35077Y2364D01*
G01X35788Y2364D01*
G01X35802Y2363D01*
G01X35817Y2360D01*
G01X35830Y2355D01*
G01X35843Y2348D01*
G01X35855Y2339D01*
G01X35865Y2329D01*
G01X35873Y2318D01*
G01X35881Y2305D01*
G01X35886Y2291D01*
G01X35889Y2277D01*
G01X35890Y2262D01*
G01X35890Y1981D01*
G01X36371Y1981D01*
G01X36347Y2026D01*
G01X36321Y2071D01*
G01X36293Y2115D01*
G01X36263Y2156D01*
G01X36230Y2197D01*
G01X36220Y2211D01*
G01X36212Y2228D01*
G01X36208Y2245D01*
G01X36206Y2262D01*
G01X36207Y2277D01*
G01X36210Y2291D01*
G01X36215Y2305D01*
G01X36222Y2318D01*
G01X36231Y2329D01*
G01X36241Y2339D01*
G01X36253Y2348D01*
G01X36266Y2355D01*
G01X36279Y2360D01*
G01X36294Y2363D01*
G01X36308Y2364D01*
G01X36576Y2364D01*
G01X36609Y2365D01*
G01X36643Y2368D01*
G01X36676Y2373D01*
G01X36709Y2380D01*
G01X36741Y2389D01*
G01X36773Y2400D01*
G01X36804Y2413D01*
G01X36834Y2428D01*
G01X36864Y2444D01*
G01X36891Y2462D01*
G01X36919Y2483D01*
G01X36944Y2504D01*
G01X36969Y2527D01*
G01X39843Y5401D01*
G01X39855Y5411D01*
G01X39869Y5420D01*
G01X39884Y5426D01*
G01X39899Y5430D01*
G01X39915Y5431D01*
G01X39932Y5430D01*
G01X39949Y5425D01*
G01X39964Y5418D01*
G01X39978Y5409D01*
G01X39990Y5397D01*
G01X40024Y5362D01*
G01X40059Y5328D01*
G01X40095Y5296D01*
G01X40133Y5265D01*
G01X40173Y5237D01*
G01X40213Y5210D01*
G01X40255Y5186D01*
G01X40298Y5163D01*
G01X40342Y5142D01*
G01X40387Y5123D01*
G01X40432Y5106D01*
G01X40478Y5092D01*
G01X40526Y5080D01*
G01X40573Y5070D01*
G01X40621Y5062D01*
G01X40669Y5056D01*
G01X40718Y5053D01*
G01X40767Y5052D01*
G01X40813Y5053D01*
G01X40860Y5056D01*
G01X40907Y5061D01*
G01X40953Y5068D01*
G01X40999Y5078D01*
G01X41044Y5089D01*
G01X41089Y5103D01*
G01X41133Y5118D01*
G01X41177Y5135D01*
G01X41220Y5155D01*
G01X41261Y5176D01*
G01X41302Y5199D01*
G01X41342Y5224D01*
G01X41380Y5251D01*
G01X41417Y5279D01*
G01X41453Y5309D01*
G01X41488Y5341D01*
G01X41521Y5374D01*
G01X41553Y5409D01*
G01X41583Y5445D01*
G01X41611Y5482D01*
G01X41638Y5520D01*
G01X41663Y5560D01*
G01X41686Y5601D01*
G01X41707Y5642D01*
G01X41727Y5685D01*
G01X41744Y5729D01*
G01X41759Y5773D01*
G01X41773Y5818D01*
G01X41784Y5863D01*
G01X41794Y5909D01*
G01X41801Y5955D01*
G01X41806Y6002D01*
G01X41809Y6049D01*
G01X41810Y6096D01*
G01X41809Y6142D01*
G01X41806Y6189D01*
G01X41801Y6236D01*
G01X41794Y6282D01*
G01X41784Y6328D01*
G01X41773Y6373D01*
G01X41759Y6418D01*
G01X41744Y6462D01*
G01X41727Y6506D01*
G01X41707Y6549D01*
G01X41686Y6590D01*
G01X41663Y6631D01*
G01X41638Y6671D01*
G01X41611Y6709D01*
G01X41583Y6746D01*
G01X41553Y6782D01*
G01X41521Y6817D01*
G01X41488Y6850D01*
G01X41453Y6882D01*
G01X41417Y6912D01*
G01X41380Y6940D01*
G01X41342Y6967D01*
G01X41302Y6992D01*
G01X41261Y7015D01*
G01X41220Y7036D01*
G01X41177Y7056D01*
G01X41133Y7073D01*
G01X41089Y7088D01*
G01X41044Y7102D01*
G01X40999Y7113D01*
G01X40953Y7123D01*
G01X40907Y7130D01*
G01X40860Y7135D01*
G01X40813Y7138D01*
G37*
G36*
G01X37515Y1066D02*
G01X37034Y1066D01*
G01X37055Y1025D01*
G01X37078Y985D01*
G01X37103Y946D01*
G01X37129Y908D01*
G01X37157Y871D01*
G01X37187Y836D01*
G01X37218Y802D01*
G01X37251Y769D01*
G01X37285Y738D01*
G01X37320Y708D01*
G01X37357Y680D01*
G01X37395Y654D01*
G01X37434Y629D01*
G01X37474Y606D01*
G01X37515Y585D01*
G01X37515Y1066D01*
G37*
G36*
G01X38911Y1066D02*
G01X38430Y1066D01*
G01X38430Y585D01*
G01X38471Y606D01*
G01X38511Y629D01*
G01X38550Y654D01*
G01X38588Y680D01*
G01X38625Y708D01*
G01X38660Y738D01*
G01X38694Y769D01*
G01X38727Y802D01*
G01X38758Y836D01*
G01X38788Y871D01*
G01X38816Y908D01*
G01X38842Y946D01*
G01X38867Y985D01*
G01X38890Y1025D01*
G01X38911Y1066D01*
G37*
G36*
G01X36371Y1066D02*
G01X35890Y1066D01*
G01X35890Y585D01*
G01X35931Y606D01*
G01X35971Y629D01*
G01X36010Y654D01*
G01X36048Y680D01*
G01X36085Y708D01*
G01X36120Y738D01*
G01X36154Y769D01*
G01X36187Y802D01*
G01X36218Y836D01*
G01X36248Y871D01*
G01X36276Y908D01*
G01X36302Y946D01*
G01X36327Y985D01*
G01X36350Y1025D01*
G01X36371Y1066D01*
G37*
G36*
G01X40055Y1066D02*
G01X39574Y1066D01*
G01X39595Y1025D01*
G01X39618Y985D01*
G01X39643Y946D01*
G01X39669Y908D01*
G01X39697Y871D01*
G01X39727Y836D01*
G01X39758Y802D01*
G01X39791Y769D01*
G01X39825Y738D01*
G01X39860Y708D01*
G01X39897Y680D01*
G01X39935Y654D01*
G01X39974Y629D01*
G01X40014Y606D01*
G01X40055Y585D01*
G01X40055Y1066D01*
G37*
G36*
G01X34975Y1066D02*
G01X34494Y1066D01*
G01X34515Y1025D01*
G01X34538Y985D01*
G01X34563Y946D01*
G01X34589Y908D01*
G01X34617Y871D01*
G01X34647Y836D01*
G01X34678Y802D01*
G01X34711Y769D01*
G01X34745Y738D01*
G01X34780Y708D01*
G01X34817Y680D01*
G01X34855Y654D01*
G01X34894Y629D01*
G01X34934Y606D01*
G01X34975Y585D01*
G01X34975Y1066D01*
G37*
G36*
G01X41451Y1066D02*
G01X40970Y1066D01*
G01X40970Y585D01*
G01X41011Y606D01*
G01X41051Y629D01*
G01X41090Y654D01*
G01X41128Y680D01*
G01X41165Y708D01*
G01X41200Y738D01*
G01X41234Y769D01*
G01X41267Y802D01*
G01X41298Y836D01*
G01X41328Y871D01*
G01X41356Y908D01*
G01X41382Y946D01*
G01X41407Y985D01*
G01X41430Y1025D01*
G01X41451Y1066D01*
G37*
G36*
G01X38471Y2441D02*
G01X38430Y2462D01*
G01X38430Y1981D01*
G01X38911Y1981D01*
G01X38890Y2022D01*
G01X38867Y2062D01*
G01X38842Y2101D01*
G01X38816Y2139D01*
G01X38788Y2176D01*
G01X38758Y2211D01*
G01X38727Y2245D01*
G01X38694Y2278D01*
G01X38660Y2309D01*
G01X38625Y2339D01*
G01X38588Y2367D01*
G01X38550Y2393D01*
G01X38511Y2418D01*
G01X38471Y2441D01*
G37*
G36*
G01X41011Y2441D02*
G01X40970Y2462D01*
G01X40970Y1981D01*
G01X41451Y1981D01*
G01X41430Y2022D01*
G01X41407Y2062D01*
G01X41382Y2101D01*
G01X41356Y2139D01*
G01X41328Y2176D01*
G01X41298Y2211D01*
G01X41267Y2245D01*
G01X41234Y2278D01*
G01X41200Y2309D01*
G01X41165Y2339D01*
G01X41128Y2367D01*
G01X41090Y2393D01*
G01X41051Y2418D01*
G01X41011Y2441D01*
G37*
G36*
G01X37515Y1981D02*
G01X37515Y2462D01*
G01X37474Y2441D01*
G01X37434Y2418D01*
G01X37395Y2393D01*
G01X37357Y2367D01*
G01X37320Y2339D01*
G01X37285Y2309D01*
G01X37251Y2278D01*
G01X37218Y2245D01*
G01X37187Y2211D01*
G01X37157Y2176D01*
G01X37129Y2139D01*
G01X37103Y2101D01*
G01X37078Y2062D01*
G01X37055Y2022D01*
G01X37034Y1981D01*
G01X37515Y1981D01*
G37*
G36*
G01X40055Y1981D02*
G01X40055Y2462D01*
G01X40014Y2441D01*
G01X39974Y2418D01*
G01X39935Y2393D01*
G01X39897Y2367D01*
G01X39860Y2339D01*
G01X39825Y2309D01*
G01X39791Y2278D01*
G01X39758Y2245D01*
G01X39727Y2211D01*
G01X39697Y2176D01*
G01X39669Y2139D01*
G01X39643Y2101D01*
G01X39618Y2062D01*
G01X39595Y2022D01*
G01X39574Y1981D01*
G01X40055Y1981D01*
G37*
G36*
G01X4387Y4598D02*
G01X3552Y4598D01*
G01X3552Y3763D01*
G01X3610Y3795D01*
G01X3668Y3829D01*
G01X3724Y3865D01*
G01X3779Y3903D01*
G01X3832Y3943D01*
G01X3884Y3984D01*
G01X3935Y4027D01*
G01X3984Y4071D01*
G01X4033Y4118D01*
G01X4079Y4166D01*
G01X4123Y4215D01*
G01X4166Y4266D01*
G01X4208Y4318D01*
G01X4247Y4371D01*
G01X4285Y4426D01*
G01X4321Y4483D01*
G01X4355Y4539D01*
G01X4387Y4598D01*
G37*
G36*
G01X1675Y4598D02*
G01X840Y4598D01*
G01X872Y4539D01*
G01X906Y4483D01*
G01X942Y4426D01*
G01X980Y4371D01*
G01X1020Y4318D01*
G01X1061Y4266D01*
G01X1104Y4215D01*
G01X1149Y4166D01*
G01X1195Y4118D01*
G01X1243Y4071D01*
G01X1292Y4027D01*
G01X1343Y3984D01*
G01X1395Y3943D01*
G01X1448Y3903D01*
G01X1503Y3865D01*
G01X1560Y3829D01*
G01X1616Y3795D01*
G01X1675Y3763D01*
G01X1675Y4598D01*
G37*
G36*
G01X5899Y4909D02*
G01X5319Y4909D01*
G01X5319Y4722D01*
G01X5320Y4699D01*
G01X5323Y4675D01*
G01X5329Y4652D01*
G01X5337Y4629D01*
G01X5346Y4608D01*
G01X5357Y4587D01*
G01X5371Y4567D01*
G01X5386Y4549D01*
G01X5403Y4532D01*
G01X5421Y4518D01*
G01X5441Y4504D01*
G01X5461Y4492D01*
G01X5483Y4483D01*
G01X5505Y4475D01*
G01X5529Y4470D01*
G01X5552Y4467D01*
G01X5576Y4465D01*
G01X5899Y4465D01*
G01X5899Y4909D01*
G37*
G36*
G01X7382Y4909D02*
G01X6801Y4909D01*
G01X6801Y4465D01*
G01X7125Y4465D01*
G01X7149Y4467D01*
G01X7172Y4470D01*
G01X7195Y4475D01*
G01X7218Y4483D01*
G01X7240Y4492D01*
G01X7260Y4504D01*
G01X7280Y4518D01*
G01X7298Y4532D01*
G01X7315Y4549D01*
G01X7329Y4567D01*
G01X7343Y4587D01*
G01X7355Y4608D01*
G01X7364Y4629D01*
G01X7372Y4652D01*
G01X7377Y4675D01*
G01X7380Y4699D01*
G01X7382Y4722D01*
G01X7382Y4909D01*
G37*
G36*
G01X44094Y7139D02*
G01X42519Y7139D01*
G01X42495Y7138D01*
G01X42472Y7135D01*
G01X42449Y7130D01*
G01X42427Y7122D01*
G01X42405Y7113D01*
G01X42384Y7101D01*
G01X42365Y7088D01*
G01X42346Y7072D01*
G01X42330Y7056D01*
G01X42314Y7037D01*
G01X42301Y7018D01*
G01X42289Y6997D01*
G01X42280Y6975D01*
G01X42272Y6953D01*
G01X42267Y6930D01*
G01X42264Y6907D01*
G01X42263Y6883D01*
G01X42263Y5308D01*
G01X42264Y5284D01*
G01X42267Y5261D01*
G01X42272Y5238D01*
G01X42280Y5216D01*
G01X42289Y5194D01*
G01X42301Y5173D01*
G01X42314Y5154D01*
G01X42330Y5135D01*
G01X42346Y5119D01*
G01X42365Y5103D01*
G01X42384Y5090D01*
G01X42405Y5078D01*
G01X42427Y5069D01*
G01X42449Y5061D01*
G01X42472Y5056D01*
G01X42495Y5053D01*
G01X42519Y5052D01*
G01X44094Y5052D01*
G01X44118Y5053D01*
G01X44141Y5056D01*
G01X44164Y5061D01*
G01X44186Y5069D01*
G01X44208Y5078D01*
G01X44229Y5090D01*
G01X44248Y5103D01*
G01X44267Y5119D01*
G01X44283Y5135D01*
G01X44299Y5154D01*
G01X44312Y5173D01*
G01X44324Y5194D01*
G01X44333Y5216D01*
G01X44341Y5238D01*
G01X44346Y5261D01*
G01X44349Y5284D01*
G01X44350Y5308D01*
G01X44350Y6883D01*
G01X44349Y6907D01*
G01X44346Y6930D01*
G01X44341Y6953D01*
G01X44333Y6975D01*
G01X44324Y6997D01*
G01X44312Y7018D01*
G01X44299Y7037D01*
G01X44283Y7056D01*
G01X44267Y7072D01*
G01X44248Y7088D01*
G01X44229Y7101D01*
G01X44208Y7113D01*
G01X44186Y7122D01*
G01X44164Y7130D01*
G01X44141Y7135D01*
G01X44118Y7138D01*
G01X44094Y7139D01*
G37*
G36*
G01X5899Y5979D02*
G01X5576Y5979D01*
G01X5552Y5978D01*
G01X5529Y5975D01*
G01X5505Y5970D01*
G01X5483Y5962D01*
G01X5461Y5953D01*
G01X5441Y5941D01*
G01X5421Y5927D01*
G01X5403Y5913D01*
G01X5386Y5896D01*
G01X5371Y5878D01*
G01X5357Y5858D01*
G01X5346Y5837D01*
G01X5337Y5816D01*
G01X5329Y5793D01*
G01X5323Y5770D01*
G01X5320Y5747D01*
G01X5319Y5723D01*
G01X5319Y5536D01*
G01X5899Y5536D01*
G01X5899Y5979D01*
G37*
G36*
G01X7125Y5979D02*
G01X6801Y5979D01*
G01X6801Y5536D01*
G01X7382Y5536D01*
G01X7382Y5723D01*
G01X7380Y5747D01*
G01X7377Y5770D01*
G01X7372Y5793D01*
G01X7364Y5816D01*
G01X7355Y5837D01*
G01X7343Y5858D01*
G01X7329Y5878D01*
G01X7315Y5896D01*
G01X7298Y5913D01*
G01X7280Y5927D01*
G01X7260Y5941D01*
G01X7240Y5953D01*
G01X7218Y5962D01*
G01X7195Y5970D01*
G01X7172Y5975D01*
G01X7149Y5978D01*
G01X7125Y5979D01*
G37*
G36*
G01X8591Y6885D02*
G01X8036Y6885D01*
G01X8036Y6659D01*
G01X8037Y6636D01*
G01X8041Y6612D01*
G01X8046Y6589D01*
G01X8053Y6567D01*
G01X8063Y6545D01*
G01X8075Y6524D01*
G01X8088Y6505D01*
G01X8103Y6487D01*
G01X8120Y6470D01*
G01X8138Y6455D01*
G01X8157Y6441D01*
G01X8178Y6430D01*
G01X8200Y6420D01*
G01X8222Y6412D01*
G01X8245Y6407D01*
G01X8269Y6404D01*
G01X8293Y6403D01*
G01X8591Y6403D01*
G01X8591Y6885D01*
G37*
G36*
G01X9997Y6885D02*
G01X9442Y6885D01*
G01X9442Y6403D01*
G01X9740Y6403D01*
G01X9764Y6404D01*
G01X9788Y6407D01*
G01X9811Y6412D01*
G01X9833Y6420D01*
G01X9855Y6430D01*
G01X9876Y6441D01*
G01X9895Y6455D01*
G01X9913Y6470D01*
G01X9930Y6487D01*
G01X9945Y6505D01*
G01X9958Y6524D01*
G01X9970Y6545D01*
G01X9980Y6567D01*
G01X9987Y6589D01*
G01X9992Y6612D01*
G01X9996Y6636D01*
G01X9997Y6659D01*
G01X9997Y6885D01*
G37*
G36*
G01X12072Y16652D02*
G01X11071Y16652D01*
G01X11047Y16651D01*
G01X11024Y16647D01*
G01X11001Y16642D01*
G01X10979Y16634D01*
G01X10957Y16625D01*
G01X10936Y16613D01*
G01X10917Y16600D01*
G01X10899Y16585D01*
G01X10882Y16568D01*
G01X10867Y16550D01*
G01X10853Y16530D01*
G01X10842Y16510D01*
G01X10832Y16488D01*
G01X10824Y16465D01*
G01X10819Y16442D01*
G01X10816Y16419D01*
G01X10815Y16395D01*
G01X10815Y16179D01*
G01X10814Y16164D01*
G01X10811Y16150D01*
G01X10806Y16137D01*
G01X10799Y16124D01*
G01X10790Y16112D01*
G01X10780Y16102D01*
G01X10768Y16093D01*
G01X10755Y16086D01*
G01X10742Y16081D01*
G01X10727Y16078D01*
G01X10713Y16077D01*
G01X7724Y16077D01*
G01X7691Y16076D01*
G01X7659Y16073D01*
G01X7627Y16067D01*
G01X7595Y16058D01*
G01X7564Y16048D01*
G01X7534Y16036D01*
G01X7505Y16021D01*
G01X7477Y16005D01*
G01X7450Y15986D01*
G01X7424Y15965D01*
G01X7401Y15943D01*
G01X5274Y13815D01*
G01X5262Y13804D01*
G01X5248Y13796D01*
G01X5233Y13790D01*
G01X5218Y13786D01*
G01X5202Y13785D01*
G01X5184Y13787D01*
G01X5165Y13792D01*
G01X5120Y13808D01*
G01X5073Y13823D01*
G01X5026Y13835D01*
G01X4978Y13845D01*
G01X4930Y13853D01*
G01X4881Y13859D01*
G01X4832Y13862D01*
G01X4783Y13863D01*
G01X4736Y13862D01*
G01X4689Y13859D01*
G01X4642Y13854D01*
G01X4595Y13846D01*
G01X4549Y13836D01*
G01X4502Y13825D01*
G01X4457Y13812D01*
G01X4412Y13796D01*
G01X4368Y13778D01*
G01X4325Y13758D01*
G01X4283Y13737D01*
G01X4242Y13713D01*
G01X4202Y13688D01*
G01X4163Y13661D01*
G01X4125Y13633D01*
G01X4088Y13602D01*
G01X4053Y13570D01*
G01X4020Y13537D01*
G01X3988Y13502D01*
G01X3957Y13465D01*
G01X3929Y13427D01*
G01X3902Y13388D01*
G01X3877Y13348D01*
G01X3853Y13307D01*
G01X3832Y13265D01*
G01X3812Y13222D01*
G01X3794Y13178D01*
G01X3779Y13133D01*
G01X3765Y13088D01*
G01X3754Y13041D01*
G01X3744Y12995D01*
G01X3736Y12948D01*
G01X3731Y12901D01*
G01X3728Y12854D01*
G01X3727Y12807D01*
G01X3728Y12759D01*
G01X3731Y12711D01*
G01X3737Y12664D01*
G01X3744Y12617D01*
G01X3754Y12570D01*
G01X3765Y12524D01*
G01X3779Y12479D01*
G01X3795Y12434D01*
G01X3813Y12390D01*
G01X3832Y12346D01*
G01X3854Y12304D01*
G01X3878Y12262D01*
G01X3903Y12222D01*
G01X3930Y12183D01*
G01X3959Y12145D01*
G01X3990Y12109D01*
G01X3999Y12097D01*
G01X4006Y12084D01*
G01X4011Y12071D01*
G01X4014Y12056D01*
G01X4015Y12042D01*
G01X4014Y12027D01*
G01X4011Y12013D01*
G01X4006Y11999D01*
G01X3999Y11987D01*
G01X3991Y11975D01*
G01X3980Y11965D01*
G01X3969Y11956D01*
G01X3956Y11949D01*
G01X3943Y11944D01*
G01X3928Y11941D01*
G01X3914Y11940D01*
G01X3683Y11940D01*
G01X3653Y11939D01*
G01X3623Y11935D01*
G01X3593Y11929D01*
G01X3564Y11921D01*
G01X3536Y11911D01*
G01X3508Y11898D01*
G01X3482Y11884D01*
G01X3457Y11867D01*
G01X3434Y11848D01*
G01X3411Y11828D01*
G01X2903Y11320D01*
G01X2883Y11297D01*
G01X2864Y11274D01*
G01X2847Y11249D01*
G01X2833Y11223D01*
G01X2820Y11195D01*
G01X2810Y11167D01*
G01X2802Y11138D01*
G01X2796Y11108D01*
G01X2792Y11078D01*
G01X2791Y11049D01*
G01X2791Y9525D01*
G01X2792Y9495D01*
G01X2796Y9465D01*
G01X2802Y9435D01*
G01X2810Y9406D01*
G01X2820Y9378D01*
G01X2833Y9350D01*
G01X2847Y9324D01*
G01X2864Y9299D01*
G01X2883Y9276D01*
G01X2903Y9253D01*
G01X3919Y8237D01*
G01X3942Y8217D01*
G01X3965Y8198D01*
G01X3990Y8181D01*
G01X4016Y8167D01*
G01X4044Y8154D01*
G01X4072Y8144D01*
G01X4101Y8136D01*
G01X4131Y8130D01*
G01X4161Y8126D01*
G01X4191Y8125D01*
G01X4863Y8125D01*
G01X4879Y8124D01*
G01X4895Y8120D01*
G01X4909Y8114D01*
G01X4923Y8106D01*
G01X4935Y8095D01*
G01X5288Y7742D01*
G01X5298Y7730D01*
G01X5307Y7717D01*
G01X5313Y7702D01*
G01X5316Y7687D01*
G01X5318Y7671D01*
G01X5318Y6722D01*
G01X5319Y6698D01*
G01X5322Y6675D01*
G01X5327Y6652D01*
G01X5335Y6629D01*
G01X5344Y6608D01*
G01X5356Y6587D01*
G01X5370Y6567D01*
G01X5384Y6549D01*
G01X5401Y6532D01*
G01X5419Y6518D01*
G01X5439Y6504D01*
G01X5459Y6492D01*
G01X5481Y6483D01*
G01X5504Y6475D01*
G01X5527Y6470D01*
G01X5550Y6467D01*
G01X5574Y6465D01*
G01X7124Y6465D01*
G01X7147Y6467D01*
G01X7170Y6470D01*
G01X7194Y6475D01*
G01X7216Y6483D01*
G01X7238Y6492D01*
G01X7258Y6504D01*
G01X7278Y6518D01*
G01X7296Y6532D01*
G01X7313Y6549D01*
G01X7328Y6567D01*
G01X7342Y6587D01*
G01X7353Y6608D01*
G01X7362Y6629D01*
G01X7370Y6652D01*
G01X7376Y6675D01*
G01X7379Y6698D01*
G01X7380Y6722D01*
G01X7380Y7723D01*
G01X7379Y7747D01*
G01X7376Y7770D01*
G01X7370Y7793D01*
G01X7362Y7816D01*
G01X7353Y7837D01*
G01X7342Y7858D01*
G01X7328Y7878D01*
G01X7313Y7896D01*
G01X7296Y7913D01*
G01X7278Y7927D01*
G01X7258Y7941D01*
G01X7238Y7953D01*
G01X7216Y7962D01*
G01X7194Y7970D01*
G01X7170Y7975D01*
G01X7147Y7978D01*
G01X7124Y7980D01*
G01X7124Y7979D01*
G01X6178Y7979D01*
G01X6162Y7981D01*
G01X6146Y7984D01*
G01X6132Y7990D01*
G01X6118Y7999D01*
G01X6106Y8009D01*
G01X5336Y8780D01*
G01X5313Y8800D01*
G01X5290Y8819D01*
G01X5264Y8836D01*
G01X5239Y8850D01*
G01X5211Y8863D01*
G01X5183Y8873D01*
G01X5154Y8881D01*
G01X5124Y8887D01*
G01X5094Y8891D01*
G01X5064Y8892D01*
G01X4392Y8892D01*
G01X4375Y8893D01*
G01X4360Y8897D01*
G01X4345Y8903D01*
G01X4332Y8911D01*
G01X4320Y8922D01*
G01X3588Y9654D01*
G01X3577Y9666D01*
G01X3569Y9679D01*
G01X3563Y9694D01*
G01X3559Y9709D01*
G01X3558Y9726D01*
G01X3558Y10847D01*
G01X3559Y10864D01*
G01X3563Y10879D01*
G01X3569Y10894D01*
G01X3577Y10907D01*
G01X3588Y10919D01*
G01X3812Y11143D01*
G01X3824Y11154D01*
G01X3837Y11162D01*
G01X3852Y11168D01*
G01X3867Y11172D01*
G01X3884Y11173D01*
G01X3914Y11173D01*
G01X3928Y11172D01*
G01X3943Y11169D01*
G01X3956Y11164D01*
G01X3969Y11157D01*
G01X3980Y11148D01*
G01X3991Y11138D01*
G01X3999Y11126D01*
G01X4006Y11114D01*
G01X4011Y11100D01*
G01X4014Y11086D01*
G01X4015Y11071D01*
G01X4014Y11057D01*
G01X4011Y11042D01*
G01X4006Y11029D01*
G01X3999Y11016D01*
G01X3990Y11004D01*
G01X3960Y10968D01*
G01X3931Y10931D01*
G01X3904Y10893D01*
G01X3879Y10852D01*
G01X3856Y10812D01*
G01X3834Y10770D01*
G01X4320Y10770D01*
G01X4320Y11071D01*
G01X4321Y11086D01*
G01X4324Y11100D01*
G01X4329Y11114D01*
G01X4336Y11126D01*
G01X4345Y11138D01*
G01X4355Y11148D01*
G01X4367Y11157D01*
G01X4379Y11164D01*
G01X4393Y11169D01*
G01X4407Y11172D01*
G01X4422Y11173D01*
G01X5146Y11173D01*
G01X5160Y11172D01*
G01X5174Y11169D01*
G01X5188Y11164D01*
G01X5200Y11157D01*
G01X5212Y11148D01*
G01X5222Y11138D01*
G01X5231Y11126D01*
G01X5238Y11114D01*
G01X5243Y11100D01*
G01X5246Y11086D01*
G01X5247Y11071D01*
G01X5247Y10770D01*
G01X5684Y10770D01*
G01X5698Y10769D01*
G01X5712Y10766D01*
G01X5726Y10761D01*
G01X5738Y10754D01*
G01X5750Y10745D01*
G01X5760Y10735D01*
G01X5769Y10723D01*
G01X5776Y10711D01*
G01X5781Y10697D01*
G01X5784Y10683D01*
G01X5785Y10669D01*
G01X5784Y10652D01*
G01X5780Y10637D01*
G01X5766Y10591D01*
G01X5754Y10544D01*
G01X5744Y10497D01*
G01X5737Y10450D01*
G01X5731Y10402D01*
G01X5728Y10355D01*
G01X5727Y10306D01*
G01X5728Y10259D01*
G01X5731Y10211D01*
G01X5737Y10163D01*
G01X5744Y10116D01*
G01X5754Y10069D01*
G01X5766Y10022D01*
G01X5780Y9976D01*
G01X5784Y9961D01*
G01X5785Y9945D01*
G01X5784Y9930D01*
G01X5781Y9916D01*
G01X5776Y9902D01*
G01X5769Y9890D01*
G01X5760Y9878D01*
G01X5750Y9868D01*
G01X5738Y9859D01*
G01X5726Y9852D01*
G01X5712Y9847D01*
G01X5698Y9844D01*
G01X5684Y9843D01*
G01X5247Y9843D01*
G01X5247Y9357D01*
G01X5289Y9379D01*
G01X5331Y9403D01*
G01X5371Y9428D01*
G01X5410Y9456D01*
G01X5448Y9485D01*
G01X5484Y9516D01*
G01X5519Y9548D01*
G01X5553Y9582D01*
G01X5585Y9618D01*
G01X5615Y9655D01*
G01X5644Y9693D01*
G01X5671Y9733D01*
G01X5696Y9773D01*
G01X5704Y9786D01*
G01X5715Y9797D01*
G01X5727Y9806D01*
G01X5739Y9814D01*
G01X5754Y9820D01*
G01X5768Y9823D01*
G01X5784Y9824D01*
G01X5799Y9823D01*
G01X5814Y9820D01*
G01X5827Y9814D01*
G01X5840Y9806D01*
G01X5852Y9797D01*
G01X5863Y9786D01*
G01X5871Y9773D01*
G01X5896Y9733D01*
G01X5923Y9693D01*
G01X5952Y9655D01*
G01X5982Y9618D01*
G01X6014Y9582D01*
G01X6048Y9548D01*
G01X6083Y9516D01*
G01X6119Y9485D01*
G01X6157Y9455D01*
G01X6197Y9428D01*
G01X6237Y9402D01*
G01X6278Y9379D01*
G01X6321Y9356D01*
G01X6365Y9337D01*
G01X6409Y9319D01*
G01X6454Y9303D01*
G01X6500Y9289D01*
G01X6546Y9277D01*
G01X6593Y9267D01*
G01X6641Y9260D01*
G01X6688Y9254D01*
G01X6736Y9251D01*
G01X6783Y9250D01*
G01X6831Y9251D01*
G01X6878Y9254D01*
G01X6925Y9259D01*
G01X6972Y9267D01*
G01X7019Y9277D01*
G01X7064Y9288D01*
G01X7109Y9301D01*
G01X7154Y9317D01*
G01X7198Y9335D01*
G01X7242Y9354D01*
G01X7284Y9376D01*
G01X7325Y9399D01*
G01X7365Y9424D01*
G01X7404Y9451D01*
G01X7418Y9459D01*
G01X7432Y9466D01*
G01X7448Y9470D01*
G01X7464Y9471D01*
G01X10563Y9471D01*
G01X10578Y9470D01*
G01X10592Y9467D01*
G01X10606Y9462D01*
G01X10630Y9446D01*
G01X10640Y9436D01*
G01X10649Y9424D01*
G01X10656Y9411D01*
G01X10661Y9398D01*
G01X10664Y9384D01*
G01X10665Y9369D01*
G01X10665Y9288D01*
G01X10666Y9264D01*
G01X10669Y9241D01*
G01X10675Y9218D01*
G01X10682Y9195D01*
G01X10692Y9174D01*
G01X10703Y9153D01*
G01X10717Y9133D01*
G01X10732Y9116D01*
G01X10749Y9099D01*
G01X10767Y9084D01*
G01X10786Y9070D01*
G01X10807Y9059D01*
G01X10829Y9049D01*
G01X10851Y9041D01*
G01X10874Y9036D01*
G01X10898Y9033D01*
G01X10922Y9032D01*
G01X14224Y9032D01*
G01X14247Y9033D01*
G01X14271Y9036D01*
G01X14294Y9041D01*
G01X14316Y9049D01*
G01X14338Y9059D01*
G01X14359Y9070D01*
G01X14378Y9084D01*
G01X14396Y9099D01*
G01X14413Y9116D01*
G01X14428Y9133D01*
G01X14441Y9153D01*
G01X14453Y9174D01*
G01X14463Y9195D01*
G01X14470Y9218D01*
G01X14475Y9241D01*
G01X14479Y9264D01*
G01X14480Y9288D01*
G01X14480Y11069D01*
G01X14479Y11092D01*
G01X14475Y11116D01*
G01X14470Y11139D01*
G01X14463Y11161D01*
G01X14453Y11183D01*
G01X14441Y11204D01*
G01X14428Y11223D01*
G01X14413Y11242D01*
G01X14396Y11258D01*
G01X14378Y11274D01*
G01X14359Y11287D01*
G01X14338Y11298D01*
G01X14316Y11308D01*
G01X14294Y11315D01*
G01X14271Y11321D01*
G01X14247Y11324D01*
G01X14224Y11325D01*
G01X10922Y11325D01*
G01X10898Y11324D01*
G01X10874Y11321D01*
G01X10851Y11315D01*
G01X10829Y11308D01*
G01X10807Y11298D01*
G01X10786Y11287D01*
G01X10767Y11274D01*
G01X10749Y11258D01*
G01X10732Y11242D01*
G01X10717Y11223D01*
G01X10703Y11204D01*
G01X10692Y11183D01*
G01X10682Y11161D01*
G01X10675Y11139D01*
G01X10669Y11116D01*
G01X10666Y11092D01*
G01X10665Y11069D01*
G01X10665Y10986D01*
G01X10664Y10971D01*
G01X10661Y10957D01*
G01X10656Y10943D01*
G01X10649Y10931D01*
G01X10640Y10919D01*
G01X10630Y10909D01*
G01X10618Y10900D01*
G01X10606Y10893D01*
G01X10592Y10888D01*
G01X10578Y10885D01*
G01X10563Y10884D01*
G01X7722Y10884D01*
G01X7706Y10885D01*
G01X7690Y10889D01*
G01X7675Y10895D01*
G01X7662Y10903D01*
G01X7650Y10914D01*
G01X7639Y10926D01*
G01X7609Y10966D01*
G01X7576Y11005D01*
G01X7567Y11017D01*
G01X7560Y11030D01*
G01X7555Y11043D01*
G01X7551Y11058D01*
G01X7550Y11072D01*
G01X7552Y11088D01*
G01X7555Y11102D01*
G01X7561Y11117D01*
G01X7568Y11130D01*
G01X7578Y11142D01*
G01X7589Y11152D01*
G01X7602Y11161D01*
G01X7615Y11167D01*
G01X7630Y11171D01*
G01X7645Y11174D01*
G01X7676Y11177D01*
G01X7706Y11183D01*
G01X7735Y11191D01*
G01X7764Y11201D01*
G01X7792Y11214D01*
G01X7819Y11229D01*
G01X7844Y11246D01*
G01X7868Y11264D01*
G01X7891Y11285D01*
G01X9095Y12490D01*
G01X9107Y12500D01*
G01X9120Y12508D01*
G01X9134Y12514D01*
G01X9149Y12518D01*
G01X9163Y12520D01*
G01X9198Y12522D01*
G01X9232Y12526D01*
G01X9266Y12533D01*
G01X9299Y12541D01*
G01X9332Y12552D01*
G01X9364Y12564D01*
G01X9395Y12579D01*
G01X9426Y12595D01*
G01X9455Y12614D01*
G01X9483Y12633D01*
G01X9510Y12655D01*
G01X9535Y12679D01*
G01X9559Y12703D01*
G01X9581Y12729D01*
G01X9602Y12757D01*
G01X9621Y12786D01*
G01X9638Y12816D01*
G01X9654Y12846D01*
G01X9667Y12878D01*
G01X9678Y12911D01*
G01X9688Y12944D01*
G01X9695Y12978D01*
G01X9701Y13012D01*
G01X9704Y13046D01*
G01X9705Y13081D01*
G01X9704Y13116D01*
G01X9700Y13151D01*
G01X9695Y13185D01*
G01X9688Y13219D01*
G01X9677Y13253D01*
G01X9674Y13268D01*
G01X9673Y13284D01*
G01X9674Y13299D01*
G01X9677Y13313D01*
G01X9682Y13326D01*
G01X9689Y13339D01*
G01X9698Y13351D01*
G01X9708Y13361D01*
G01X9720Y13370D01*
G01X9732Y13377D01*
G01X9745Y13382D01*
G01X9760Y13385D01*
G01X9774Y13386D01*
G01X10713Y13386D01*
G01X10727Y13385D01*
G01X10742Y13382D01*
G01X10755Y13377D01*
G01X10768Y13370D01*
G01X10780Y13361D01*
G01X10790Y13351D01*
G01X10799Y13339D01*
G01X10806Y13326D01*
G01X10811Y13313D01*
G01X10814Y13299D01*
G01X10815Y13284D01*
G01X10815Y12433D01*
G01X10816Y12409D01*
G01X10819Y12386D01*
G01X10824Y12363D01*
G01X10832Y12340D01*
G01X10842Y12319D01*
G01X10853Y12298D01*
G01X10867Y12278D01*
G01X10882Y12260D01*
G01X10899Y12243D01*
G01X10917Y12228D01*
G01X10936Y12215D01*
G01X10957Y12203D01*
G01X10979Y12194D01*
G01X11001Y12186D01*
G01X11024Y12181D01*
G01X11047Y12177D01*
G01X11071Y12176D01*
G01X12072Y12176D01*
G01X12096Y12177D01*
G01X12119Y12181D01*
G01X12142Y12186D01*
G01X12165Y12194D01*
G01X12186Y12203D01*
G01X12207Y12215D01*
G01X12227Y12228D01*
G01X12245Y12243D01*
G01X12262Y12260D01*
G01X12277Y12278D01*
G01X12290Y12298D01*
G01X12302Y12319D01*
G01X12311Y12340D01*
G01X12319Y12363D01*
G01X12324Y12386D01*
G01X12328Y12409D01*
G01X12329Y12433D01*
G01X12329Y13982D01*
G01X12328Y14006D01*
G01X12324Y14029D01*
G01X12319Y14052D01*
G01X12311Y14075D01*
G01X12302Y14097D01*
G01X12290Y14117D01*
G01X12277Y14137D01*
G01X12262Y14155D01*
G01X12245Y14172D01*
G01X12227Y14187D01*
G01X12207Y14200D01*
G01X12186Y14212D01*
G01X12165Y14221D01*
G01X12142Y14229D01*
G01X12119Y14234D01*
G01X12096Y14238D01*
G01X12072Y14239D01*
G01X11824Y14239D01*
G01X11808Y14240D01*
G01X11793Y14244D01*
G01X11778Y14250D01*
G01X11751Y14263D01*
G01X11722Y14274D01*
G01X11693Y14283D01*
G01X11663Y14290D01*
G01X11633Y14295D01*
G01X11602Y14298D01*
G01X11572Y14299D01*
G01X7947Y14299D01*
G01X7915Y14298D01*
G01X7882Y14295D01*
G01X7850Y14289D01*
G01X7819Y14280D01*
G01X7788Y14270D01*
G01X7758Y14258D01*
G01X7728Y14243D01*
G01X7700Y14227D01*
G01X7673Y14208D01*
G01X7648Y14187D01*
G01X7625Y14165D01*
G01X7274Y13815D01*
G01X7261Y13804D01*
G01X7248Y13796D01*
G01X7233Y13790D01*
G01X7218Y13786D01*
G01X7202Y13785D01*
G01X7183Y13787D01*
G01X7165Y13792D01*
G01X7114Y13810D01*
G01X7063Y13826D01*
G01X7010Y13838D01*
G01X6957Y13849D01*
G01X6903Y13856D01*
G01X6850Y13861D01*
G01X6835Y13863D01*
G01X6820Y13867D01*
G01X6806Y13874D01*
G01X6793Y13883D01*
G01X6782Y13893D01*
G01X6772Y13905D01*
G01X6765Y13918D01*
G01X6759Y13932D01*
G01X6755Y13947D01*
G01X6754Y13962D01*
G01X6755Y13978D01*
G01X6759Y13994D01*
G01X6766Y14009D01*
G01X6774Y14022D01*
G01X6784Y14034D01*
G01X7883Y15134D01*
G01X7895Y15145D01*
G01X7909Y15153D01*
G01X7924Y15159D01*
G01X7939Y15163D01*
G01X7955Y15164D01*
G01X10713Y15164D01*
G01X10727Y15163D01*
G01X10742Y15160D01*
G01X10755Y15155D01*
G01X10768Y15148D01*
G01X10780Y15139D01*
G01X10790Y15129D01*
G01X10799Y15117D01*
G01X10806Y15104D01*
G01X10811Y15091D01*
G01X10814Y15077D01*
G01X10815Y15062D01*
G01X10815Y14846D01*
G01X10816Y14822D01*
G01X10819Y14799D01*
G01X10824Y14776D01*
G01X10832Y14753D01*
G01X10842Y14732D01*
G01X10853Y14711D01*
G01X10867Y14691D01*
G01X10882Y14673D01*
G01X10899Y14656D01*
G01X10917Y14641D01*
G01X10936Y14628D01*
G01X10957Y14616D01*
G01X10979Y14607D01*
G01X11001Y14599D01*
G01X11024Y14594D01*
G01X11047Y14590D01*
G01X11071Y14589D01*
G01X12072Y14589D01*
G01X12096Y14590D01*
G01X12119Y14594D01*
G01X12142Y14599D01*
G01X12165Y14607D01*
G01X12186Y14616D01*
G01X12207Y14628D01*
G01X12227Y14641D01*
G01X12245Y14656D01*
G01X12262Y14673D01*
G01X12277Y14691D01*
G01X12290Y14711D01*
G01X12302Y14732D01*
G01X12311Y14753D01*
G01X12319Y14776D01*
G01X12324Y14799D01*
G01X12328Y14822D01*
G01X12329Y14846D01*
G01X12329Y16395D01*
G01X12328Y16419D01*
G01X12324Y16442D01*
G01X12319Y16465D01*
G01X12311Y16488D01*
G01X12302Y16510D01*
G01X12290Y16530D01*
G01X12277Y16550D01*
G01X12262Y16568D01*
G01X12245Y16585D01*
G01X12227Y16600D01*
G01X12207Y16613D01*
G01X12186Y16625D01*
G01X12165Y16634D01*
G01X12142Y16642D01*
G01X12119Y16647D01*
G01X12096Y16651D01*
G01X12072Y16652D01*
G37*
G36*
G01X3610Y7278D02*
G01X3552Y7310D01*
G01X3552Y6475D01*
G01X4387Y6475D01*
G01X4355Y6533D01*
G01X4321Y6591D01*
G01X4285Y6647D01*
G01X4247Y6702D01*
G01X4208Y6755D01*
G01X4166Y6807D01*
G01X4123Y6858D01*
G01X4079Y6907D01*
G01X4033Y6956D01*
G01X3984Y7002D01*
G01X3935Y7046D01*
G01X3884Y7089D01*
G01X3832Y7131D01*
G01X3779Y7170D01*
G01X3724Y7208D01*
G01X3668Y7244D01*
G01X3610Y7278D01*
G37*
G36*
G01X1675Y6475D02*
G01X1675Y7310D01*
G01X1616Y7278D01*
G01X1560Y7244D01*
G01X1503Y7208D01*
G01X1448Y7170D01*
G01X1395Y7131D01*
G01X1343Y7089D01*
G01X1292Y7046D01*
G01X1243Y7002D01*
G01X1195Y6956D01*
G01X1149Y6907D01*
G01X1104Y6858D01*
G01X1061Y6807D01*
G01X1020Y6755D01*
G01X980Y6702D01*
G01X942Y6647D01*
G01X906Y6591D01*
G01X872Y6533D01*
G01X840Y6475D01*
G01X1675Y6475D01*
G37*
G36*
G01X9740Y8074D02*
G01X9442Y8074D01*
G01X9442Y7592D01*
G01X9997Y7592D01*
G01X9997Y7818D01*
G01X9996Y7841D01*
G01X9992Y7865D01*
G01X9987Y7888D01*
G01X9980Y7910D01*
G01X9970Y7932D01*
G01X9958Y7953D01*
G01X9945Y7972D01*
G01X9930Y7990D01*
G01X9913Y8007D01*
G01X9895Y8022D01*
G01X9876Y8036D01*
G01X9855Y8047D01*
G01X9833Y8057D01*
G01X9811Y8065D01*
G01X9788Y8070D01*
G01X9764Y8073D01*
G01X9740Y8074D01*
G37*
G36*
G01X8591Y8074D02*
G01X8293Y8074D01*
G01X8269Y8073D01*
G01X8245Y8070D01*
G01X8222Y8065D01*
G01X8200Y8057D01*
G01X8178Y8047D01*
G01X8157Y8036D01*
G01X8138Y8022D01*
G01X8120Y8007D01*
G01X8103Y7990D01*
G01X8088Y7972D01*
G01X8075Y7953D01*
G01X8063Y7932D01*
G01X8053Y7910D01*
G01X8046Y7888D01*
G01X8041Y7865D01*
G01X8037Y7841D01*
G01X8036Y7818D01*
G01X8036Y7592D01*
G01X8591Y7592D01*
G01X8591Y8074D01*
G37*
G36*
G01X40813Y9678D02*
G01X40767Y9679D01*
G01X40720Y9678D01*
G01X40673Y9675D01*
G01X40626Y9670D01*
G01X40580Y9663D01*
G01X40534Y9653D01*
G01X40489Y9642D01*
G01X40444Y9628D01*
G01X40400Y9613D01*
G01X40356Y9596D01*
G01X40313Y9576D01*
G01X40272Y9555D01*
G01X40231Y9532D01*
G01X40191Y9507D01*
G01X40153Y9480D01*
G01X40116Y9452D01*
G01X40080Y9422D01*
G01X40045Y9390D01*
G01X40012Y9357D01*
G01X39980Y9322D01*
G01X39950Y9286D01*
G01X39922Y9249D01*
G01X39895Y9211D01*
G01X39870Y9171D01*
G01X39847Y9130D01*
G01X39826Y9089D01*
G01X39806Y9046D01*
G01X39789Y9002D01*
G01X39774Y8958D01*
G01X39760Y8913D01*
G01X39749Y8868D01*
G01X39739Y8822D01*
G01X39732Y8776D01*
G01X39727Y8729D01*
G01X39724Y8682D01*
G01X39723Y8636D01*
G01X39724Y8589D01*
G01X39727Y8542D01*
G01X39732Y8495D01*
G01X39739Y8449D01*
G01X39749Y8403D01*
G01X39760Y8358D01*
G01X39774Y8313D01*
G01X39789Y8269D01*
G01X39806Y8225D01*
G01X39826Y8182D01*
G01X39847Y8141D01*
G01X39870Y8100D01*
G01X39895Y8060D01*
G01X39922Y8022D01*
G01X39950Y7985D01*
G01X39980Y7949D01*
G01X40012Y7914D01*
G01X40045Y7881D01*
G01X40080Y7849D01*
G01X40116Y7819D01*
G01X40153Y7791D01*
G01X40191Y7764D01*
G01X40231Y7739D01*
G01X40272Y7716D01*
G01X40313Y7695D01*
G01X40356Y7675D01*
G01X40400Y7658D01*
G01X40444Y7643D01*
G01X40489Y7629D01*
G01X40534Y7618D01*
G01X40580Y7608D01*
G01X40626Y7601D01*
G01X40673Y7596D01*
G01X40720Y7593D01*
G01X40767Y7592D01*
G01X40813Y7593D01*
G01X40860Y7596D01*
G01X40907Y7601D01*
G01X40953Y7608D01*
G01X40999Y7618D01*
G01X41044Y7629D01*
G01X41089Y7643D01*
G01X41133Y7658D01*
G01X41177Y7675D01*
G01X41220Y7695D01*
G01X41261Y7716D01*
G01X41302Y7739D01*
G01X41342Y7764D01*
G01X41380Y7791D01*
G01X41417Y7819D01*
G01X41453Y7849D01*
G01X41488Y7881D01*
G01X41521Y7914D01*
G01X41553Y7949D01*
G01X41583Y7985D01*
G01X41611Y8022D01*
G01X41638Y8060D01*
G01X41663Y8100D01*
G01X41686Y8141D01*
G01X41707Y8182D01*
G01X41727Y8225D01*
G01X41744Y8269D01*
G01X41759Y8313D01*
G01X41773Y8358D01*
G01X41784Y8403D01*
G01X41794Y8449D01*
G01X41801Y8495D01*
G01X41806Y8542D01*
G01X41809Y8589D01*
G01X41810Y8636D01*
G01X41809Y8682D01*
G01X41806Y8729D01*
G01X41801Y8776D01*
G01X41794Y8822D01*
G01X41784Y8868D01*
G01X41773Y8913D01*
G01X41759Y8958D01*
G01X41744Y9002D01*
G01X41727Y9046D01*
G01X41707Y9089D01*
G01X41686Y9130D01*
G01X41663Y9171D01*
G01X41638Y9211D01*
G01X41611Y9249D01*
G01X41583Y9286D01*
G01X41553Y9322D01*
G01X41521Y9357D01*
G01X41488Y9390D01*
G01X41453Y9422D01*
G01X41417Y9452D01*
G01X41380Y9480D01*
G01X41342Y9507D01*
G01X41302Y9532D01*
G01X41261Y9555D01*
G01X41220Y9576D01*
G01X41177Y9596D01*
G01X41133Y9613D01*
G01X41089Y9628D01*
G01X41044Y9642D01*
G01X40999Y9653D01*
G01X40953Y9663D01*
G01X40907Y9670D01*
G01X40860Y9675D01*
G01X40813Y9678D01*
G37*
G36*
G01X43353Y9678D02*
G01X43307Y9679D01*
G01X43260Y9678D01*
G01X43213Y9675D01*
G01X43166Y9670D01*
G01X43120Y9663D01*
G01X43074Y9653D01*
G01X43029Y9642D01*
G01X42984Y9628D01*
G01X42940Y9613D01*
G01X42896Y9596D01*
G01X42853Y9576D01*
G01X42812Y9555D01*
G01X42771Y9532D01*
G01X42731Y9507D01*
G01X42693Y9480D01*
G01X42656Y9452D01*
G01X42620Y9422D01*
G01X42585Y9390D01*
G01X42552Y9357D01*
G01X42520Y9322D01*
G01X42490Y9286D01*
G01X42462Y9249D01*
G01X42435Y9211D01*
G01X42410Y9171D01*
G01X42387Y9130D01*
G01X42366Y9089D01*
G01X42346Y9046D01*
G01X42329Y9002D01*
G01X42314Y8958D01*
G01X42300Y8913D01*
G01X42289Y8868D01*
G01X42279Y8822D01*
G01X42272Y8776D01*
G01X42267Y8729D01*
G01X42264Y8682D01*
G01X42263Y8636D01*
G01X42264Y8589D01*
G01X42267Y8542D01*
G01X42272Y8495D01*
G01X42279Y8449D01*
G01X42289Y8403D01*
G01X42300Y8358D01*
G01X42314Y8313D01*
G01X42329Y8269D01*
G01X42346Y8225D01*
G01X42366Y8182D01*
G01X42387Y8141D01*
G01X42410Y8100D01*
G01X42435Y8060D01*
G01X42462Y8022D01*
G01X42490Y7985D01*
G01X42520Y7949D01*
G01X42552Y7914D01*
G01X42585Y7881D01*
G01X42620Y7849D01*
G01X42656Y7819D01*
G01X42693Y7791D01*
G01X42731Y7764D01*
G01X42771Y7739D01*
G01X42812Y7716D01*
G01X42853Y7695D01*
G01X42896Y7675D01*
G01X42940Y7658D01*
G01X42984Y7643D01*
G01X43029Y7629D01*
G01X43074Y7618D01*
G01X43120Y7608D01*
G01X43166Y7601D01*
G01X43213Y7596D01*
G01X43260Y7593D01*
G01X43307Y7592D01*
G01X43353Y7593D01*
G01X43400Y7596D01*
G01X43447Y7601D01*
G01X43493Y7608D01*
G01X43539Y7618D01*
G01X43584Y7629D01*
G01X43629Y7643D01*
G01X43673Y7658D01*
G01X43717Y7675D01*
G01X43760Y7695D01*
G01X43801Y7716D01*
G01X43842Y7739D01*
G01X43882Y7764D01*
G01X43920Y7791D01*
G01X43957Y7819D01*
G01X43993Y7849D01*
G01X44028Y7881D01*
G01X44061Y7914D01*
G01X44093Y7949D01*
G01X44123Y7985D01*
G01X44151Y8022D01*
G01X44178Y8060D01*
G01X44203Y8100D01*
G01X44226Y8141D01*
G01X44247Y8182D01*
G01X44267Y8225D01*
G01X44284Y8269D01*
G01X44299Y8313D01*
G01X44313Y8358D01*
G01X44324Y8403D01*
G01X44334Y8449D01*
G01X44341Y8495D01*
G01X44346Y8542D01*
G01X44349Y8589D01*
G01X44350Y8636D01*
G01X44349Y8682D01*
G01X44346Y8729D01*
G01X44341Y8776D01*
G01X44334Y8822D01*
G01X44324Y8868D01*
G01X44313Y8913D01*
G01X44299Y8958D01*
G01X44284Y9002D01*
G01X44267Y9046D01*
G01X44247Y9089D01*
G01X44226Y9130D01*
G01X44203Y9171D01*
G01X44178Y9211D01*
G01X44151Y9249D01*
G01X44123Y9286D01*
G01X44093Y9322D01*
G01X44061Y9357D01*
G01X44028Y9390D01*
G01X43993Y9422D01*
G01X43957Y9452D01*
G01X43920Y9480D01*
G01X43882Y9507D01*
G01X43842Y9532D01*
G01X43801Y9555D01*
G01X43760Y9576D01*
G01X43717Y9596D01*
G01X43673Y9613D01*
G01X43629Y9628D01*
G01X43584Y9642D01*
G01X43539Y9653D01*
G01X43493Y9663D01*
G01X43447Y9670D01*
G01X43400Y9675D01*
G01X43353Y9678D01*
G37*
G36*
G01X29822Y11064D02*
G01X28821Y11064D01*
G01X28797Y11063D01*
G01X28774Y11059D01*
G01X28751Y11054D01*
G01X28728Y11046D01*
G01X28707Y11037D01*
G01X28686Y11025D01*
G01X28666Y11012D01*
G01X28648Y10997D01*
G01X28631Y10980D01*
G01X28616Y10962D01*
G01X28603Y10942D01*
G01X28591Y10922D01*
G01X28582Y10900D01*
G01X28574Y10877D01*
G01X28569Y10854D01*
G01X28565Y10831D01*
G01X28564Y10807D01*
G01X28564Y9258D01*
G01X28565Y9234D01*
G01X28569Y9211D01*
G01X28574Y9188D01*
G01X28582Y9165D01*
G01X28591Y9144D01*
G01X28603Y9123D01*
G01X28616Y9103D01*
G01X28631Y9085D01*
G01X28648Y9068D01*
G01X28666Y9053D01*
G01X28686Y9040D01*
G01X28707Y9028D01*
G01X28728Y9019D01*
G01X28751Y9011D01*
G01X28774Y9006D01*
G01X28797Y9002D01*
G01X28821Y9001D01*
G01X29822Y9001D01*
G01X29846Y9002D01*
G01X29869Y9006D01*
G01X29892Y9011D01*
G01X29914Y9019D01*
G01X29936Y9028D01*
G01X29957Y9040D01*
G01X29976Y9053D01*
G01X29994Y9068D01*
G01X30011Y9085D01*
G01X30026Y9103D01*
G01X30040Y9123D01*
G01X30051Y9144D01*
G01X30061Y9165D01*
G01X30069Y9188D01*
G01X30074Y9211D01*
G01X30077Y9234D01*
G01X30078Y9258D01*
G01X30078Y9547D01*
G01X30079Y9562D01*
G01X30082Y9576D01*
G01X30087Y9590D01*
G01X30094Y9602D01*
G01X30103Y9614D01*
G01X30113Y9624D01*
G01X30125Y9633D01*
G01X30138Y9640D01*
G01X30151Y9645D01*
G01X30166Y9648D01*
G01X30180Y9649D01*
G01X32949Y9649D01*
G01X32964Y9648D01*
G01X32979Y9644D01*
G01X32993Y9639D01*
G01X33006Y9631D01*
G01X33018Y9622D01*
G01X33044Y9599D01*
G01X33072Y9577D01*
G01X33101Y9558D01*
G01X33131Y9540D01*
G01X33163Y9524D01*
G01X33195Y9510D01*
G01X33228Y9498D01*
G01X33262Y9488D01*
G01X33296Y9481D01*
G01X33330Y9476D01*
G01X33365Y9472D01*
G01X33401Y9471D01*
G01X33435Y9472D01*
G01X33468Y9475D01*
G01X33502Y9480D01*
G01X33535Y9487D01*
G01X33568Y9497D01*
G01X33600Y9508D01*
G01X33631Y9520D01*
G01X33662Y9536D01*
G01X33691Y9552D01*
G01X33720Y9571D01*
G01X33746Y9591D01*
G01X33773Y9612D01*
G01X33821Y9660D01*
G01X33842Y9687D01*
G01X33862Y9713D01*
G01X33881Y9742D01*
G01X33897Y9771D01*
G01X33913Y9802D01*
G01X33925Y9833D01*
G01X33936Y9865D01*
G01X33946Y9898D01*
G01X33953Y9931D01*
G01X33958Y9965D01*
G01X33961Y9998D01*
G01X33962Y10033D01*
G01X33961Y10067D01*
G01X33958Y10100D01*
G01X33953Y10134D01*
G01X33946Y10167D01*
G01X33936Y10200D01*
G01X33925Y10232D01*
G01X33913Y10263D01*
G01X33897Y10294D01*
G01X33881Y10323D01*
G01X33862Y10352D01*
G01X33842Y10378D01*
G01X33821Y10405D01*
G01X33773Y10453D01*
G01X33746Y10474D01*
G01X33720Y10494D01*
G01X33691Y10513D01*
G01X33662Y10529D01*
G01X33631Y10545D01*
G01X33600Y10557D01*
G01X33568Y10568D01*
G01X33535Y10578D01*
G01X33502Y10585D01*
G01X33468Y10590D01*
G01X33435Y10593D01*
G01X33401Y10594D01*
G01X33365Y10593D01*
G01X33330Y10589D01*
G01X33296Y10584D01*
G01X33262Y10577D01*
G01X33228Y10567D01*
G01X33195Y10555D01*
G01X33163Y10541D01*
G01X33131Y10525D01*
G01X33101Y10507D01*
G01X33072Y10488D01*
G01X33044Y10466D01*
G01X33018Y10443D01*
G01X33006Y10434D01*
G01X32993Y10426D01*
G01X32979Y10421D01*
G01X32964Y10417D01*
G01X32949Y10416D01*
G01X30180Y10416D01*
G01X30166Y10417D01*
G01X30151Y10420D01*
G01X30138Y10425D01*
G01X30125Y10432D01*
G01X30113Y10441D01*
G01X30103Y10451D01*
G01X30094Y10463D01*
G01X30087Y10475D01*
G01X30082Y10489D01*
G01X30079Y10503D01*
G01X30078Y10518D01*
G01X30078Y10807D01*
G01X30077Y10831D01*
G01X30074Y10854D01*
G01X30069Y10877D01*
G01X30061Y10900D01*
G01X30051Y10922D01*
G01X30040Y10942D01*
G01X30026Y10962D01*
G01X30011Y10980D01*
G01X29994Y10997D01*
G01X29976Y11012D01*
G01X29957Y11025D01*
G01X29936Y11037D01*
G01X29914Y11046D01*
G01X29892Y11054D01*
G01X29869Y11059D01*
G01X29846Y11063D01*
G01X29822Y11064D01*
G37*
G36*
G01X4320Y9843D02*
G01X3834Y9843D01*
G01X3855Y9801D01*
G01X3879Y9761D01*
G01X3903Y9722D01*
G01X3930Y9684D01*
G01X3959Y9646D01*
G01X3989Y9610D01*
G01X4020Y9576D01*
G01X4053Y9543D01*
G01X4087Y9512D01*
G01X4123Y9482D01*
G01X4161Y9453D01*
G01X4199Y9426D01*
G01X4238Y9402D01*
G01X4278Y9379D01*
G01X4320Y9357D01*
G01X4320Y9843D01*
G37*
G36*
G01X43353Y12218D02*
G01X43307Y12219D01*
G01X43260Y12218D01*
G01X43213Y12215D01*
G01X43166Y12210D01*
G01X43120Y12203D01*
G01X43074Y12193D01*
G01X43029Y12182D01*
G01X42984Y12168D01*
G01X42940Y12153D01*
G01X42896Y12136D01*
G01X42853Y12116D01*
G01X42812Y12095D01*
G01X42771Y12072D01*
G01X42731Y12047D01*
G01X42693Y12020D01*
G01X42656Y11992D01*
G01X42620Y11962D01*
G01X42585Y11930D01*
G01X42552Y11897D01*
G01X42520Y11862D01*
G01X42490Y11826D01*
G01X42462Y11789D01*
G01X42435Y11751D01*
G01X42410Y11711D01*
G01X42387Y11670D01*
G01X42366Y11629D01*
G01X42346Y11586D01*
G01X42329Y11542D01*
G01X42314Y11498D01*
G01X42300Y11453D01*
G01X42289Y11408D01*
G01X42279Y11362D01*
G01X42272Y11316D01*
G01X42267Y11269D01*
G01X42264Y11222D01*
G01X42263Y11176D01*
G01X42264Y11129D01*
G01X42267Y11082D01*
G01X42272Y11035D01*
G01X42279Y10989D01*
G01X42289Y10943D01*
G01X42300Y10898D01*
G01X42314Y10853D01*
G01X42329Y10809D01*
G01X42346Y10765D01*
G01X42366Y10722D01*
G01X42387Y10681D01*
G01X42410Y10640D01*
G01X42435Y10600D01*
G01X42462Y10562D01*
G01X42490Y10525D01*
G01X42520Y10489D01*
G01X42552Y10454D01*
G01X42585Y10421D01*
G01X42620Y10389D01*
G01X42656Y10359D01*
G01X42693Y10331D01*
G01X42731Y10304D01*
G01X42771Y10279D01*
G01X42812Y10256D01*
G01X42853Y10235D01*
G01X42896Y10215D01*
G01X42940Y10198D01*
G01X42984Y10183D01*
G01X43029Y10169D01*
G01X43074Y10158D01*
G01X43120Y10148D01*
G01X43166Y10141D01*
G01X43213Y10136D01*
G01X43260Y10133D01*
G01X43307Y10132D01*
G01X43353Y10133D01*
G01X43400Y10136D01*
G01X43447Y10141D01*
G01X43493Y10148D01*
G01X43539Y10158D01*
G01X43584Y10169D01*
G01X43629Y10183D01*
G01X43673Y10198D01*
G01X43717Y10215D01*
G01X43760Y10235D01*
G01X43801Y10256D01*
G01X43842Y10279D01*
G01X43882Y10304D01*
G01X43920Y10331D01*
G01X43957Y10359D01*
G01X43993Y10389D01*
G01X44028Y10421D01*
G01X44061Y10454D01*
G01X44093Y10489D01*
G01X44123Y10525D01*
G01X44151Y10562D01*
G01X44178Y10600D01*
G01X44203Y10640D01*
G01X44226Y10681D01*
G01X44247Y10722D01*
G01X44267Y10765D01*
G01X44284Y10809D01*
G01X44299Y10853D01*
G01X44313Y10898D01*
G01X44324Y10943D01*
G01X44334Y10989D01*
G01X44341Y11035D01*
G01X44346Y11082D01*
G01X44349Y11129D01*
G01X44350Y11176D01*
G01X44349Y11222D01*
G01X44346Y11269D01*
G01X44341Y11316D01*
G01X44334Y11362D01*
G01X44324Y11408D01*
G01X44313Y11453D01*
G01X44299Y11498D01*
G01X44284Y11542D01*
G01X44267Y11586D01*
G01X44247Y11629D01*
G01X44226Y11670D01*
G01X44203Y11711D01*
G01X44178Y11751D01*
G01X44151Y11789D01*
G01X44123Y11826D01*
G01X44093Y11862D01*
G01X44061Y11897D01*
G01X44028Y11930D01*
G01X43993Y11962D01*
G01X43957Y11992D01*
G01X43920Y12020D01*
G01X43882Y12047D01*
G01X43842Y12072D01*
G01X43801Y12095D01*
G01X43760Y12116D01*
G01X43717Y12136D01*
G01X43673Y12153D01*
G01X43629Y12168D01*
G01X43584Y12182D01*
G01X43539Y12193D01*
G01X43493Y12203D01*
G01X43447Y12210D01*
G01X43400Y12215D01*
G01X43353Y12218D01*
G37*
G36*
G01X40309Y10718D02*
G01X39828Y10718D01*
G01X39849Y10677D01*
G01X39872Y10637D01*
G01X39897Y10598D01*
G01X39923Y10560D01*
G01X39951Y10523D01*
G01X39981Y10488D01*
G01X40012Y10454D01*
G01X40045Y10421D01*
G01X40079Y10390D01*
G01X40114Y10360D01*
G01X40151Y10332D01*
G01X40189Y10306D01*
G01X40228Y10281D01*
G01X40268Y10258D01*
G01X40309Y10237D01*
G01X40309Y10718D01*
G37*
G36*
G01X41705Y10718D02*
G01X41224Y10718D01*
G01X41224Y10237D01*
G01X41265Y10258D01*
G01X41305Y10281D01*
G01X41344Y10306D01*
G01X41382Y10332D01*
G01X41419Y10360D01*
G01X41454Y10390D01*
G01X41488Y10421D01*
G01X41521Y10454D01*
G01X41552Y10488D01*
G01X41582Y10523D01*
G01X41610Y10560D01*
G01X41636Y10598D01*
G01X41661Y10637D01*
G01X41684Y10677D01*
G01X41705Y10718D01*
G37*
G36*
G01X22779Y22632D02*
G01X22733Y22633D01*
G01X22686Y22632D01*
G01X22639Y22629D01*
G01X22592Y22624D01*
G01X22546Y22617D01*
G01X22500Y22607D01*
G01X22455Y22596D01*
G01X22410Y22582D01*
G01X22366Y22567D01*
G01X22322Y22550D01*
G01X22279Y22530D01*
G01X22238Y22509D01*
G01X22197Y22486D01*
G01X22157Y22461D01*
G01X22119Y22434D01*
G01X22082Y22406D01*
G01X22046Y22376D01*
G01X22011Y22344D01*
G01X21978Y22311D01*
G01X21946Y22276D01*
G01X21916Y22240D01*
G01X21888Y22203D01*
G01X21861Y22165D01*
G01X21836Y22125D01*
G01X21813Y22084D01*
G01X21792Y22043D01*
G01X21772Y22000D01*
G01X21755Y21956D01*
G01X21740Y21912D01*
G01X21726Y21867D01*
G01X21715Y21822D01*
G01X21705Y21776D01*
G01X21698Y21730D01*
G01X21693Y21683D01*
G01X21690Y21636D01*
G01X21689Y21590D01*
G01X21690Y21541D01*
G01X21693Y21493D01*
G01X21699Y21445D01*
G01X21706Y21397D01*
G01X21717Y21350D01*
G01X21729Y21303D01*
G01X21743Y21257D01*
G01X21759Y21212D01*
G01X21778Y21167D01*
G01X21798Y21124D01*
G01X21821Y21081D01*
G01X21846Y21039D01*
G01X21871Y20999D01*
G01X21900Y20960D01*
G01X21930Y20922D01*
G01X21962Y20885D01*
G01X21995Y20851D01*
G01X22030Y20817D01*
G01X22067Y20786D01*
G01X22104Y20756D01*
G01X22116Y20745D01*
G01X22126Y20734D01*
G01X22134Y20720D01*
G01X22140Y20706D01*
G01X22144Y20690D01*
G01X22145Y20675D01*
G01X22144Y20660D01*
G01X22141Y20645D01*
G01X22135Y20631D01*
G01X22128Y20619D01*
G01X22119Y20607D01*
G01X22108Y20596D01*
G01X22096Y20588D01*
G01X22083Y20581D01*
G01X22069Y20577D01*
G01X22054Y20574D01*
G01X22026Y20569D01*
G01X21998Y20563D01*
G01X21971Y20555D01*
G01X21944Y20544D01*
G01X21918Y20531D01*
G01X21893Y20517D01*
G01X21870Y20501D01*
G01X21848Y20483D01*
G01X21826Y20464D01*
G01X21257Y19894D01*
G01X21245Y19884D01*
G01X21232Y19876D01*
G01X21218Y19870D01*
G01X21203Y19866D01*
G01X21189Y19864D01*
G01X21154Y19862D01*
G01X21120Y19858D01*
G01X21086Y19851D01*
G01X21053Y19843D01*
G01X21020Y19832D01*
G01X20988Y19820D01*
G01X20957Y19805D01*
G01X20926Y19789D01*
G01X20897Y19770D01*
G01X20869Y19751D01*
G01X20842Y19729D01*
G01X20817Y19705D01*
G01X20793Y19681D01*
G01X20771Y19655D01*
G01X20750Y19627D01*
G01X20731Y19598D01*
G01X20714Y19568D01*
G01X20698Y19538D01*
G01X20685Y19506D01*
G01X20674Y19473D01*
G01X20664Y19440D01*
G01X20657Y19406D01*
G01X20651Y19372D01*
G01X20648Y19338D01*
G01X20647Y19304D01*
G01X20648Y19268D01*
G01X20652Y19234D01*
G01X20657Y19199D01*
G01X20664Y19165D01*
G01X20674Y19132D01*
G01X20686Y19099D01*
G01X20699Y19067D01*
G01X20715Y19035D01*
G01X20733Y19005D01*
G01X20752Y18976D01*
G01X20774Y18948D01*
G01X20797Y18922D01*
G01X20821Y18897D01*
G01X20847Y18874D01*
G01X20875Y18852D01*
G01X20903Y18833D01*
G01X20933Y18814D01*
G01X20964Y18798D01*
G01X20996Y18784D01*
G01X21029Y18772D01*
G01X21062Y18761D01*
G01X21096Y18753D01*
G01X21131Y18748D01*
G01X21165Y18744D01*
G01X21200Y18742D01*
G01X21215Y18741D01*
G01X21230Y18738D01*
G01X21244Y18732D01*
G01X21256Y18724D01*
G01X21268Y18715D01*
G01X21278Y18704D01*
G01X21287Y18692D01*
G01X21293Y18679D01*
G01X21298Y18664D01*
G01X21307Y18631D01*
G01X21318Y18599D01*
G01X21330Y18568D01*
G01X21345Y18537D01*
G01X21362Y18507D01*
G01X21380Y18479D01*
G01X21400Y18451D01*
G01X21422Y18425D01*
G01X21445Y18400D01*
G01X21470Y18376D01*
G01X21496Y18355D01*
G01X21523Y18334D01*
G01X21552Y18316D01*
G01X21581Y18299D01*
G01X21612Y18284D01*
G01X21644Y18271D01*
G01X21676Y18260D01*
G01X21708Y18250D01*
G01X21742Y18243D01*
G01X21775Y18238D01*
G01X21809Y18235D01*
G01X21844Y18234D01*
G01X21878Y18235D01*
G01X21912Y18238D01*
G01X21946Y18244D01*
G01X21980Y18251D01*
G01X22013Y18261D01*
G01X22046Y18272D01*
G01X22078Y18285D01*
G01X22108Y18301D01*
G01X22138Y18318D01*
G01X22167Y18337D01*
G01X22195Y18358D01*
G01X22221Y18380D01*
G01X22245Y18404D01*
G01X22269Y18429D01*
G01X22291Y18456D01*
G01X22310Y18484D01*
G01X22329Y18513D01*
G01X22345Y18544D01*
G01X22360Y18575D01*
G01X22372Y18607D01*
G01X22383Y18640D01*
G01X22391Y18673D01*
G01X22398Y18707D01*
G01X22402Y18741D01*
G01X22404Y18776D01*
G01X22406Y18790D01*
G01X22410Y18805D01*
G01X22416Y18819D01*
G01X22424Y18832D01*
G01X22434Y18844D01*
G01X22862Y19271D01*
G01X22874Y19282D01*
G01X22887Y19290D01*
G01X22902Y19296D01*
G01X22917Y19300D01*
G01X22934Y19301D01*
G01X23593Y19301D01*
G01X23608Y19300D01*
G01X23622Y19297D01*
G01X23636Y19292D01*
G01X23648Y19285D01*
G01X23660Y19276D01*
G01X23670Y19266D01*
G01X23679Y19254D01*
G01X23686Y19242D01*
G01X23691Y19228D01*
G01X23694Y19214D01*
G01X23695Y19199D01*
G01X23694Y19184D01*
G01X23690Y19168D01*
G01X23684Y19153D01*
G01X23675Y19139D01*
G01X23665Y19128D01*
G01X20495Y15957D01*
G01X20483Y15947D01*
G01X20470Y15939D01*
G01X20456Y15933D01*
G01X20441Y15929D01*
G01X20427Y15927D01*
G01X20392Y15925D01*
G01X20358Y15921D01*
G01X20324Y15914D01*
G01X20291Y15906D01*
G01X20258Y15895D01*
G01X20226Y15883D01*
G01X20195Y15868D01*
G01X20164Y15852D01*
G01X20135Y15833D01*
G01X20107Y15814D01*
G01X20080Y15792D01*
G01X20055Y15768D01*
G01X20031Y15744D01*
G01X20009Y15718D01*
G01X19988Y15690D01*
G01X19969Y15661D01*
G01X19952Y15631D01*
G01X19936Y15601D01*
G01X19923Y15569D01*
G01X19912Y15536D01*
G01X19902Y15503D01*
G01X19895Y15469D01*
G01X19889Y15435D01*
G01X19886Y15401D01*
G01X19885Y15367D01*
G01X19886Y15332D01*
G01X19889Y15299D01*
G01X19894Y15265D01*
G01X19901Y15232D01*
G01X19911Y15199D01*
G01X19922Y15167D01*
G01X19934Y15136D01*
G01X19950Y15105D01*
G01X19966Y15076D01*
G01X19985Y15047D01*
G01X20005Y15021D01*
G01X20026Y14994D01*
G01X20074Y14946D01*
G01X20101Y14925D01*
G01X20127Y14905D01*
G01X20156Y14886D01*
G01X20185Y14870D01*
G01X20216Y14854D01*
G01X20247Y14842D01*
G01X20279Y14831D01*
G01X20312Y14821D01*
G01X20345Y14814D01*
G01X20379Y14809D01*
G01X20412Y14806D01*
G01X20447Y14805D01*
G01X20481Y14806D01*
G01X20515Y14809D01*
G01X20549Y14815D01*
G01X20583Y14822D01*
G01X20616Y14832D01*
G01X20649Y14843D01*
G01X20681Y14856D01*
G01X20711Y14872D01*
G01X20741Y14889D01*
G01X20770Y14908D01*
G01X20798Y14929D01*
G01X20824Y14951D01*
G01X20848Y14975D01*
G01X20872Y15000D01*
G01X20894Y15027D01*
G01X20913Y15055D01*
G01X20932Y15084D01*
G01X20948Y15115D01*
G01X20963Y15146D01*
G01X20975Y15178D01*
G01X20986Y15211D01*
G01X20994Y15244D01*
G01X21001Y15278D01*
G01X21005Y15312D01*
G01X21007Y15347D01*
G01X21009Y15361D01*
G01X21013Y15376D01*
G01X21019Y15390D01*
G01X21027Y15403D01*
G01X21037Y15415D01*
G01X24259Y18636D01*
G01X24271Y18647D01*
G01X24284Y18655D01*
G01X24299Y18661D01*
G01X24314Y18665D01*
G01X24331Y18666D01*
G01X29313Y18666D01*
G01X29327Y18665D01*
G01X29341Y18662D01*
G01X29355Y18657D01*
G01X29367Y18650D01*
G01X29379Y18641D01*
G01X29389Y18631D01*
G01X29398Y18619D01*
G01X29405Y18607D01*
G01X29410Y18593D01*
G01X29413Y18579D01*
G01X29414Y18564D01*
G01X29413Y18549D01*
G01X29410Y18534D01*
G01X29404Y18520D01*
G01X29396Y18507D01*
G01X29387Y18495D01*
G01X29376Y18485D01*
G01X29345Y18457D01*
G01X25956Y15068D01*
G01X25944Y15058D01*
G01X25931Y15050D01*
G01X25917Y15044D01*
G01X25902Y15040D01*
G01X25888Y15038D01*
G01X25853Y15036D01*
G01X25819Y15032D01*
G01X25785Y15025D01*
G01X25752Y15017D01*
G01X25719Y15006D01*
G01X25687Y14994D01*
G01X25656Y14979D01*
G01X25625Y14963D01*
G01X25596Y14944D01*
G01X25568Y14925D01*
G01X25541Y14903D01*
G01X25516Y14879D01*
G01X25492Y14855D01*
G01X25470Y14829D01*
G01X25449Y14801D01*
G01X25430Y14772D01*
G01X25413Y14742D01*
G01X25397Y14712D01*
G01X25384Y14680D01*
G01X25373Y14647D01*
G01X25363Y14614D01*
G01X25356Y14580D01*
G01X25350Y14546D01*
G01X25347Y14512D01*
G01X25346Y14478D01*
G01X25347Y14443D01*
G01X25350Y14410D01*
G01X25355Y14376D01*
G01X25362Y14343D01*
G01X25372Y14310D01*
G01X25383Y14278D01*
G01X25395Y14247D01*
G01X25411Y14216D01*
G01X25427Y14187D01*
G01X25446Y14158D01*
G01X25466Y14132D01*
G01X25487Y14105D01*
G01X25535Y14057D01*
G01X25562Y14036D01*
G01X25588Y14016D01*
G01X25617Y13997D01*
G01X25646Y13981D01*
G01X25677Y13965D01*
G01X25708Y13953D01*
G01X25740Y13942D01*
G01X25773Y13932D01*
G01X25806Y13925D01*
G01X25840Y13920D01*
G01X25873Y13917D01*
G01X25908Y13916D01*
G01X25942Y13917D01*
G01X25976Y13920D01*
G01X26010Y13926D01*
G01X26044Y13933D01*
G01X26077Y13943D01*
G01X26110Y13954D01*
G01X26142Y13967D01*
G01X26172Y13983D01*
G01X26202Y14000D01*
G01X26231Y14019D01*
G01X26259Y14040D01*
G01X26285Y14062D01*
G01X26309Y14086D01*
G01X26333Y14111D01*
G01X26355Y14138D01*
G01X26374Y14166D01*
G01X26393Y14195D01*
G01X26409Y14226D01*
G01X26424Y14257D01*
G01X26436Y14289D01*
G01X26447Y14322D01*
G01X26455Y14355D01*
G01X26462Y14389D01*
G01X26466Y14423D01*
G01X26468Y14458D01*
G01X26470Y14472D01*
G01X26474Y14487D01*
G01X26480Y14501D01*
G01X26488Y14514D01*
G01X26498Y14526D01*
G01X29745Y17772D01*
G01X29757Y17783D01*
G01X29771Y17791D01*
G01X29786Y17797D01*
G01X29801Y17801D01*
G01X29817Y17802D01*
G01X31552Y17802D01*
G01X31567Y17801D01*
G01X31582Y17798D01*
G01X31596Y17792D01*
G01X31609Y17785D01*
G01X31621Y17775D01*
G01X31647Y17752D01*
G01X31675Y17731D01*
G01X31704Y17711D01*
G01X31734Y17693D01*
G01X31766Y17677D01*
G01X31798Y17664D01*
G01X31831Y17651D01*
G01X31865Y17642D01*
G01X31899Y17634D01*
G01X31933Y17629D01*
G01X31968Y17626D01*
G01X32004Y17625D01*
G01X32037Y17626D01*
G01X32071Y17629D01*
G01X32104Y17634D01*
G01X32137Y17641D01*
G01X32170Y17650D01*
G01X32202Y17661D01*
G01X32233Y17674D01*
G01X32264Y17689D01*
G01X32293Y17705D01*
G01X32322Y17723D01*
G01X32348Y17743D01*
G01X32374Y17765D01*
G01X32399Y17788D01*
G01X32423Y17812D01*
G01X32444Y17838D01*
G01X32464Y17865D01*
G01X32483Y17893D01*
G01X32515Y17953D01*
G01X32527Y17984D01*
G01X32538Y18016D01*
G01X32545Y18031D01*
G01X32553Y18045D01*
G01X32563Y18057D01*
G01X32576Y18068D01*
G01X32589Y18076D01*
G01X32604Y18082D01*
G01X32619Y18086D01*
G01X32635Y18087D01*
G01X32651Y18086D01*
G01X32667Y18082D01*
G01X32682Y18076D01*
G01X32695Y18068D01*
G01X32707Y18057D01*
G01X38321Y12443D01*
G01X38332Y12431D01*
G01X38340Y12418D01*
G01X38346Y12403D01*
G01X38350Y12388D01*
G01X38351Y12371D01*
G01X38351Y11627D01*
G01X38350Y11612D01*
G01X38346Y11597D01*
G01X38341Y11583D01*
G01X38333Y11570D01*
G01X38324Y11558D01*
G01X38301Y11532D01*
G01X38279Y11504D01*
G01X38260Y11475D01*
G01X38242Y11445D01*
G01X38226Y11413D01*
G01X38212Y11381D01*
G01X38200Y11348D01*
G01X38190Y11314D01*
G01X38183Y11280D01*
G01X38178Y11246D01*
G01X38174Y11211D01*
G01X38173Y11176D01*
G01X38174Y11141D01*
G01X38177Y11108D01*
G01X38182Y11074D01*
G01X38189Y11041D01*
G01X38199Y11008D01*
G01X38210Y10976D01*
G01X38222Y10945D01*
G01X38238Y10914D01*
G01X38254Y10885D01*
G01X38273Y10856D01*
G01X38293Y10830D01*
G01X38314Y10803D01*
G01X38362Y10755D01*
G01X38389Y10734D01*
G01X38415Y10714D01*
G01X38444Y10695D01*
G01X38473Y10679D01*
G01X38504Y10663D01*
G01X38535Y10651D01*
G01X38567Y10640D01*
G01X38600Y10630D01*
G01X38633Y10623D01*
G01X38667Y10618D01*
G01X38700Y10615D01*
G01X38735Y10614D01*
G01X38769Y10615D01*
G01X38802Y10618D01*
G01X38836Y10623D01*
G01X38869Y10630D01*
G01X38902Y10640D01*
G01X38934Y10651D01*
G01X38965Y10663D01*
G01X38996Y10679D01*
G01X39025Y10695D01*
G01X39054Y10714D01*
G01X39080Y10734D01*
G01X39107Y10755D01*
G01X39155Y10803D01*
G01X39176Y10830D01*
G01X39196Y10856D01*
G01X39215Y10885D01*
G01X39231Y10914D01*
G01X39247Y10945D01*
G01X39259Y10976D01*
G01X39270Y11008D01*
G01X39280Y11041D01*
G01X39287Y11074D01*
G01X39292Y11108D01*
G01X39295Y11141D01*
G01X39296Y11176D01*
G01X39295Y11211D01*
G01X39291Y11246D01*
G01X39286Y11280D01*
G01X39279Y11314D01*
G01X39269Y11348D01*
G01X39257Y11381D01*
G01X39243Y11413D01*
G01X39227Y11445D01*
G01X39209Y11475D01*
G01X39190Y11504D01*
G01X39168Y11532D01*
G01X39145Y11558D01*
G01X39136Y11570D01*
G01X39128Y11583D01*
G01X39123Y11597D01*
G01X39119Y11612D01*
G01X39118Y11627D01*
G01X39118Y12573D01*
G01X39117Y12602D01*
G01X39113Y12632D01*
G01X39107Y12662D01*
G01X39099Y12691D01*
G01X39089Y12719D01*
G01X39076Y12747D01*
G01X39062Y12773D01*
G01X39045Y12798D01*
G01X39026Y12821D01*
G01X39006Y12844D01*
G01X32722Y19128D01*
G01X32712Y19139D01*
G01X32703Y19153D01*
G01X32697Y19168D01*
G01X32693Y19184D01*
G01X32692Y19199D01*
G01X32693Y19214D01*
G01X32696Y19228D01*
G01X32701Y19242D01*
G01X32708Y19254D01*
G01X32717Y19266D01*
G01X32727Y19276D01*
G01X32739Y19285D01*
G01X32751Y19292D01*
G01X32765Y19297D01*
G01X32779Y19300D01*
G01X32794Y19301D01*
G01X38608Y19301D01*
G01X38637Y19302D01*
G01X38667Y19306D01*
G01X38697Y19312D01*
G01X38726Y19320D01*
G01X38754Y19330D01*
G01X38782Y19343D01*
G01X38808Y19357D01*
G01X38833Y19374D01*
G01X38856Y19393D01*
G01X38879Y19413D01*
G01X40050Y20585D01*
G01X40062Y20595D01*
G01X40076Y20603D01*
G01X40090Y20609D01*
G01X40106Y20613D01*
G01X40122Y20614D01*
G01X40139Y20613D01*
G01X40156Y20608D01*
G01X40206Y20592D01*
G01X40255Y20578D01*
G01X40306Y20566D01*
G01X40358Y20557D01*
G01X40409Y20551D01*
G01X40461Y20547D01*
G01X40513Y20546D01*
G01X40559Y20547D01*
G01X40606Y20550D01*
G01X40653Y20555D01*
G01X40699Y20562D01*
G01X40745Y20572D01*
G01X40790Y20583D01*
G01X40835Y20597D01*
G01X40879Y20612D01*
G01X40923Y20629D01*
G01X40966Y20649D01*
G01X41007Y20670D01*
G01X41048Y20693D01*
G01X41088Y20718D01*
G01X41126Y20745D01*
G01X41163Y20773D01*
G01X41199Y20803D01*
G01X41234Y20835D01*
G01X41267Y20868D01*
G01X41299Y20903D01*
G01X41329Y20939D01*
G01X41357Y20976D01*
G01X41384Y21014D01*
G01X41409Y21054D01*
G01X41432Y21095D01*
G01X41453Y21136D01*
G01X41473Y21179D01*
G01X41490Y21223D01*
G01X41505Y21267D01*
G01X41519Y21312D01*
G01X41530Y21357D01*
G01X41540Y21403D01*
G01X41547Y21449D01*
G01X41552Y21496D01*
G01X41555Y21543D01*
G01X41556Y21590D01*
G01X41555Y21636D01*
G01X41552Y21683D01*
G01X41547Y21730D01*
G01X41540Y21776D01*
G01X41530Y21822D01*
G01X41519Y21867D01*
G01X41505Y21912D01*
G01X41490Y21956D01*
G01X41473Y22000D01*
G01X41453Y22043D01*
G01X41432Y22084D01*
G01X41409Y22125D01*
G01X41384Y22165D01*
G01X41357Y22203D01*
G01X41329Y22240D01*
G01X41299Y22276D01*
G01X41267Y22311D01*
G01X41234Y22344D01*
G01X41199Y22376D01*
G01X41163Y22406D01*
G01X41126Y22434D01*
G01X41088Y22461D01*
G01X41048Y22486D01*
G01X41007Y22509D01*
G01X40966Y22530D01*
G01X40923Y22550D01*
G01X40879Y22567D01*
G01X40835Y22582D01*
G01X40790Y22596D01*
G01X40745Y22607D01*
G01X40699Y22617D01*
G01X40653Y22624D01*
G01X40606Y22629D01*
G01X40559Y22632D01*
G01X40513Y22633D01*
G01X40466Y22632D01*
G01X40419Y22629D01*
G01X40372Y22624D01*
G01X40326Y22617D01*
G01X40280Y22607D01*
G01X40235Y22596D01*
G01X40190Y22582D01*
G01X40146Y22567D01*
G01X40102Y22550D01*
G01X40059Y22530D01*
G01X40018Y22509D01*
G01X39977Y22486D01*
G01X39937Y22461D01*
G01X39899Y22434D01*
G01X39862Y22406D01*
G01X39826Y22376D01*
G01X39791Y22344D01*
G01X39758Y22311D01*
G01X39726Y22276D01*
G01X39696Y22240D01*
G01X39668Y22203D01*
G01X39641Y22165D01*
G01X39616Y22125D01*
G01X39593Y22084D01*
G01X39572Y22043D01*
G01X39552Y22000D01*
G01X39535Y21956D01*
G01X39520Y21912D01*
G01X39506Y21867D01*
G01X39495Y21822D01*
G01X39485Y21776D01*
G01X39478Y21730D01*
G01X39473Y21683D01*
G01X39470Y21636D01*
G01X39469Y21590D01*
G01X39470Y21538D01*
G01X39474Y21486D01*
G01X39480Y21435D01*
G01X39489Y21383D01*
G01X39501Y21332D01*
G01X39515Y21283D01*
G01X39531Y21233D01*
G01X39536Y21216D01*
G01X39537Y21199D01*
G01X39536Y21183D01*
G01X39532Y21167D01*
G01X39526Y21153D01*
G01X39518Y21139D01*
G01X39508Y21127D01*
G01X38478Y20098D01*
G01X38466Y20087D01*
G01X38453Y20079D01*
G01X38438Y20073D01*
G01X38423Y20069D01*
G01X38406Y20068D01*
G01X37239Y20068D01*
G01X37224Y20069D01*
G01X37210Y20072D01*
G01X37196Y20077D01*
G01X37184Y20084D01*
G01X37172Y20093D01*
G01X37162Y20103D01*
G01X37153Y20115D01*
G01X37146Y20127D01*
G01X37141Y20141D01*
G01X37138Y20155D01*
G01X37137Y20170D01*
G01X37138Y20185D01*
G01X37142Y20201D01*
G01X37148Y20216D01*
G01X37157Y20230D01*
G01X37167Y20241D01*
G01X37510Y20585D01*
G01X37522Y20595D01*
G01X37536Y20603D01*
G01X37550Y20609D01*
G01X37566Y20613D01*
G01X37582Y20614D01*
G01X37599Y20613D01*
G01X37616Y20608D01*
G01X37666Y20592D01*
G01X37715Y20578D01*
G01X37766Y20566D01*
G01X37818Y20557D01*
G01X37869Y20551D01*
G01X37921Y20547D01*
G01X37973Y20546D01*
G01X38019Y20547D01*
G01X38066Y20550D01*
G01X38113Y20555D01*
G01X38159Y20562D01*
G01X38205Y20572D01*
G01X38250Y20583D01*
G01X38295Y20597D01*
G01X38339Y20612D01*
G01X38383Y20629D01*
G01X38426Y20649D01*
G01X38467Y20670D01*
G01X38508Y20693D01*
G01X38548Y20718D01*
G01X38586Y20745D01*
G01X38623Y20773D01*
G01X38659Y20803D01*
G01X38694Y20835D01*
G01X38727Y20868D01*
G01X38759Y20903D01*
G01X38789Y20939D01*
G01X38817Y20976D01*
G01X38844Y21014D01*
G01X38869Y21054D01*
G01X38892Y21095D01*
G01X38913Y21136D01*
G01X38933Y21179D01*
G01X38950Y21223D01*
G01X38965Y21267D01*
G01X38979Y21312D01*
G01X38990Y21357D01*
G01X39000Y21403D01*
G01X39007Y21449D01*
G01X39012Y21496D01*
G01X39015Y21543D01*
G01X39016Y21590D01*
G01X39015Y21636D01*
G01X39012Y21683D01*
G01X39007Y21730D01*
G01X39000Y21776D01*
G01X38990Y21822D01*
G01X38979Y21867D01*
G01X38965Y21912D01*
G01X38950Y21956D01*
G01X38933Y22000D01*
G01X38913Y22043D01*
G01X38892Y22084D01*
G01X38869Y22125D01*
G01X38844Y22165D01*
G01X38817Y22203D01*
G01X38789Y22240D01*
G01X38759Y22276D01*
G01X38727Y22311D01*
G01X38694Y22344D01*
G01X38659Y22376D01*
G01X38623Y22406D01*
G01X38586Y22434D01*
G01X38548Y22461D01*
G01X38508Y22486D01*
G01X38467Y22509D01*
G01X38426Y22530D01*
G01X38383Y22550D01*
G01X38339Y22567D01*
G01X38295Y22582D01*
G01X38250Y22596D01*
G01X38205Y22607D01*
G01X38159Y22617D01*
G01X38113Y22624D01*
G01X38066Y22629D01*
G01X38019Y22632D01*
G01X37973Y22633D01*
G01X37926Y22632D01*
G01X37879Y22629D01*
G01X37832Y22624D01*
G01X37786Y22617D01*
G01X37740Y22607D01*
G01X37695Y22596D01*
G01X37650Y22582D01*
G01X37606Y22567D01*
G01X37562Y22550D01*
G01X37519Y22530D01*
G01X37478Y22509D01*
G01X37437Y22486D01*
G01X37397Y22461D01*
G01X37359Y22434D01*
G01X37322Y22406D01*
G01X37286Y22376D01*
G01X37251Y22344D01*
G01X37218Y22311D01*
G01X37186Y22276D01*
G01X37156Y22240D01*
G01X37128Y22203D01*
G01X37101Y22165D01*
G01X37076Y22125D01*
G01X37053Y22084D01*
G01X37032Y22043D01*
G01X37012Y22000D01*
G01X36995Y21956D01*
G01X36980Y21912D01*
G01X36966Y21867D01*
G01X36955Y21822D01*
G01X36945Y21776D01*
G01X36938Y21730D01*
G01X36933Y21683D01*
G01X36930Y21636D01*
G01X36929Y21590D01*
G01X36930Y21538D01*
G01X36934Y21486D01*
G01X36940Y21435D01*
G01X36949Y21383D01*
G01X36961Y21332D01*
G01X36975Y21283D01*
G01X36991Y21233D01*
G01X36996Y21216D01*
G01X36997Y21199D01*
G01X36996Y21183D01*
G01X36992Y21167D01*
G01X36986Y21153D01*
G01X36978Y21139D01*
G01X36968Y21127D01*
G01X36446Y20606D01*
G01X36434Y20595D01*
G01X36421Y20587D01*
G01X36406Y20581D01*
G01X36391Y20577D01*
G01X36374Y20576D01*
G01X36126Y20576D01*
G01X36111Y20577D01*
G01X36097Y20580D01*
G01X36084Y20585D01*
G01X36071Y20592D01*
G01X36059Y20601D01*
G01X36049Y20611D01*
G01X36033Y20635D01*
G01X36028Y20649D01*
G01X36025Y20663D01*
G01X36024Y20678D01*
G01X36025Y20693D01*
G01X36029Y20708D01*
G01X36035Y20723D01*
G01X36043Y20736D01*
G01X36053Y20748D01*
G01X36064Y20758D01*
G01X36102Y20788D01*
G01X36138Y20820D01*
G01X36173Y20853D01*
G01X36206Y20888D01*
G01X36237Y20925D01*
G01X36267Y20962D01*
G01X36295Y21001D01*
G01X36321Y21042D01*
G01X36345Y21083D01*
G01X36368Y21126D01*
G01X36388Y21169D01*
G01X36406Y21214D01*
G01X36423Y21259D01*
G01X36437Y21305D01*
G01X36449Y21351D01*
G01X36459Y21398D01*
G01X36466Y21446D01*
G01X36472Y21493D01*
G01X36475Y21541D01*
G01X36476Y21590D01*
G01X36475Y21636D01*
G01X36472Y21683D01*
G01X36467Y21730D01*
G01X36460Y21776D01*
G01X36450Y21822D01*
G01X36439Y21867D01*
G01X36425Y21912D01*
G01X36410Y21956D01*
G01X36393Y22000D01*
G01X36373Y22043D01*
G01X36352Y22084D01*
G01X36329Y22125D01*
G01X36304Y22165D01*
G01X36277Y22203D01*
G01X36249Y22240D01*
G01X36219Y22276D01*
G01X36187Y22311D01*
G01X36154Y22344D01*
G01X36119Y22376D01*
G01X36083Y22406D01*
G01X36046Y22434D01*
G01X36008Y22461D01*
G01X35968Y22486D01*
G01X35927Y22509D01*
G01X35886Y22530D01*
G01X35843Y22550D01*
G01X35799Y22567D01*
G01X35755Y22582D01*
G01X35710Y22596D01*
G01X35665Y22607D01*
G01X35619Y22617D01*
G01X35573Y22624D01*
G01X35526Y22629D01*
G01X35479Y22632D01*
G01X35433Y22633D01*
G01X35386Y22632D01*
G01X35339Y22629D01*
G01X35292Y22624D01*
G01X35246Y22617D01*
G01X35200Y22607D01*
G01X35155Y22596D01*
G01X35110Y22582D01*
G01X35066Y22567D01*
G01X35022Y22550D01*
G01X34979Y22530D01*
G01X34938Y22509D01*
G01X34897Y22486D01*
G01X34857Y22461D01*
G01X34819Y22434D01*
G01X34782Y22406D01*
G01X34746Y22376D01*
G01X34711Y22344D01*
G01X34678Y22311D01*
G01X34646Y22276D01*
G01X34616Y22240D01*
G01X34588Y22203D01*
G01X34561Y22165D01*
G01X34536Y22125D01*
G01X34513Y22084D01*
G01X34492Y22043D01*
G01X34472Y22000D01*
G01X34455Y21956D01*
G01X34440Y21912D01*
G01X34426Y21867D01*
G01X34415Y21822D01*
G01X34405Y21776D01*
G01X34398Y21730D01*
G01X34393Y21683D01*
G01X34390Y21636D01*
G01X34389Y21590D01*
G01X34390Y21541D01*
G01X34393Y21493D01*
G01X34399Y21446D01*
G01X34406Y21398D01*
G01X34416Y21351D01*
G01X34428Y21305D01*
G01X34442Y21259D01*
G01X34459Y21214D01*
G01X34477Y21169D01*
G01X34497Y21126D01*
G01X34520Y21083D01*
G01X34544Y21042D01*
G01X34570Y21001D01*
G01X34598Y20962D01*
G01X34628Y20925D01*
G01X34659Y20888D01*
G01X34692Y20853D01*
G01X34727Y20820D01*
G01X34763Y20788D01*
G01X34801Y20758D01*
G01X34812Y20748D01*
G01X34822Y20736D01*
G01X34830Y20723D01*
G01X34836Y20708D01*
G01X34840Y20693D01*
G01X34841Y20678D01*
G01X34840Y20663D01*
G01X34837Y20649D01*
G01X34832Y20635D01*
G01X34816Y20611D01*
G01X34806Y20601D01*
G01X34794Y20592D01*
G01X34781Y20585D01*
G01X34768Y20580D01*
G01X34754Y20577D01*
G01X34739Y20576D01*
G01X33586Y20576D01*
G01X33571Y20577D01*
G01X33557Y20580D01*
G01X33544Y20585D01*
G01X33531Y20592D01*
G01X33519Y20601D01*
G01X33509Y20611D01*
G01X33493Y20635D01*
G01X33488Y20649D01*
G01X33485Y20663D01*
G01X33484Y20678D01*
G01X33485Y20693D01*
G01X33489Y20708D01*
G01X33495Y20723D01*
G01X33503Y20736D01*
G01X33513Y20748D01*
G01X33524Y20758D01*
G01X33563Y20789D01*
G01X33599Y20821D01*
G01X33634Y20855D01*
G01X33668Y20890D01*
G01X33700Y20928D01*
G01X33730Y20966D01*
G01X33758Y21006D01*
G01X33784Y21047D01*
G01X33808Y21089D01*
G01X33831Y21132D01*
G01X33350Y21132D01*
G01X33350Y20678D01*
G01X33349Y20663D01*
G01X33346Y20649D01*
G01X33341Y20635D01*
G01X33325Y20611D01*
G01X33315Y20601D01*
G01X33303Y20592D01*
G01X33290Y20585D01*
G01X33277Y20580D01*
G01X33262Y20577D01*
G01X33248Y20576D01*
G01X32537Y20576D01*
G01X32523Y20577D01*
G01X32508Y20580D01*
G01X32495Y20585D01*
G01X32482Y20592D01*
G01X32470Y20601D01*
G01X32460Y20611D01*
G01X32444Y20635D01*
G01X32439Y20649D01*
G01X32436Y20663D01*
G01X32435Y20678D01*
G01X32435Y21132D01*
G01X31954Y21132D01*
G01X31977Y21089D01*
G01X32001Y21047D01*
G01X32027Y21006D01*
G01X32055Y20966D01*
G01X32085Y20928D01*
G01X32117Y20890D01*
G01X32151Y20855D01*
G01X32186Y20821D01*
G01X32222Y20789D01*
G01X32261Y20758D01*
G01X32272Y20748D01*
G01X32282Y20736D01*
G01X32290Y20723D01*
G01X32296Y20708D01*
G01X32300Y20693D01*
G01X32301Y20678D01*
G01X32300Y20663D01*
G01X32297Y20649D01*
G01X32292Y20635D01*
G01X32276Y20611D01*
G01X32266Y20601D01*
G01X32254Y20592D01*
G01X32241Y20585D01*
G01X32228Y20580D01*
G01X32214Y20577D01*
G01X32199Y20576D01*
G01X31046Y20576D01*
G01X31031Y20577D01*
G01X31017Y20580D01*
G01X31004Y20585D01*
G01X30991Y20592D01*
G01X30979Y20601D01*
G01X30969Y20611D01*
G01X30953Y20635D01*
G01X30948Y20649D01*
G01X30945Y20663D01*
G01X30944Y20678D01*
G01X30945Y20693D01*
G01X30949Y20708D01*
G01X30955Y20723D01*
G01X30963Y20736D01*
G01X30973Y20748D01*
G01X30984Y20758D01*
G01X31022Y20788D01*
G01X31058Y20820D01*
G01X31093Y20853D01*
G01X31126Y20888D01*
G01X31157Y20925D01*
G01X31187Y20962D01*
G01X31215Y21001D01*
G01X31241Y21042D01*
G01X31265Y21083D01*
G01X31288Y21126D01*
G01X31308Y21169D01*
G01X31326Y21214D01*
G01X31343Y21259D01*
G01X31357Y21305D01*
G01X31369Y21351D01*
G01X31379Y21398D01*
G01X31386Y21446D01*
G01X31392Y21493D01*
G01X31395Y21541D01*
G01X31396Y21590D01*
G01X31395Y21636D01*
G01X31392Y21683D01*
G01X31387Y21730D01*
G01X31380Y21776D01*
G01X31370Y21822D01*
G01X31359Y21867D01*
G01X31345Y21912D01*
G01X31330Y21956D01*
G01X31313Y22000D01*
G01X31293Y22043D01*
G01X31272Y22084D01*
G01X31249Y22125D01*
G01X31224Y22165D01*
G01X31197Y22203D01*
G01X31169Y22240D01*
G01X31139Y22276D01*
G01X31107Y22311D01*
G01X31074Y22344D01*
G01X31039Y22376D01*
G01X31003Y22406D01*
G01X30966Y22434D01*
G01X30928Y22461D01*
G01X30888Y22486D01*
G01X30847Y22509D01*
G01X30806Y22530D01*
G01X30763Y22550D01*
G01X30719Y22567D01*
G01X30675Y22582D01*
G01X30630Y22596D01*
G01X30585Y22607D01*
G01X30539Y22617D01*
G01X30493Y22624D01*
G01X30446Y22629D01*
G01X30399Y22632D01*
G01X30353Y22633D01*
G01X30306Y22632D01*
G01X30259Y22629D01*
G01X30212Y22624D01*
G01X30166Y22617D01*
G01X30120Y22607D01*
G01X30075Y22596D01*
G01X30030Y22582D01*
G01X29986Y22567D01*
G01X29942Y22550D01*
G01X29899Y22530D01*
G01X29858Y22509D01*
G01X29817Y22486D01*
G01X29777Y22461D01*
G01X29739Y22434D01*
G01X29702Y22406D01*
G01X29666Y22376D01*
G01X29631Y22344D01*
G01X29598Y22311D01*
G01X29566Y22276D01*
G01X29536Y22240D01*
G01X29508Y22203D01*
G01X29481Y22165D01*
G01X29456Y22125D01*
G01X29433Y22084D01*
G01X29412Y22043D01*
G01X29392Y22000D01*
G01X29375Y21956D01*
G01X29360Y21912D01*
G01X29346Y21867D01*
G01X29335Y21822D01*
G01X29325Y21776D01*
G01X29318Y21730D01*
G01X29313Y21683D01*
G01X29310Y21636D01*
G01X29309Y21590D01*
G01X29310Y21541D01*
G01X29313Y21493D01*
G01X29319Y21446D01*
G01X29326Y21398D01*
G01X29336Y21351D01*
G01X29348Y21305D01*
G01X29362Y21259D01*
G01X29379Y21214D01*
G01X29397Y21169D01*
G01X29417Y21126D01*
G01X29440Y21083D01*
G01X29464Y21042D01*
G01X29490Y21001D01*
G01X29518Y20962D01*
G01X29548Y20925D01*
G01X29579Y20888D01*
G01X29612Y20853D01*
G01X29647Y20820D01*
G01X29683Y20788D01*
G01X29721Y20758D01*
G01X29732Y20748D01*
G01X29742Y20736D01*
G01X29750Y20723D01*
G01X29756Y20708D01*
G01X29760Y20693D01*
G01X29761Y20678D01*
G01X29760Y20663D01*
G01X29757Y20649D01*
G01X29752Y20635D01*
G01X29736Y20611D01*
G01X29726Y20601D01*
G01X29714Y20592D01*
G01X29701Y20585D01*
G01X29688Y20580D01*
G01X29674Y20577D01*
G01X29659Y20576D01*
G01X28506Y20576D01*
G01X28491Y20577D01*
G01X28477Y20580D01*
G01X28464Y20585D01*
G01X28451Y20592D01*
G01X28439Y20601D01*
G01X28429Y20611D01*
G01X28413Y20635D01*
G01X28408Y20649D01*
G01X28405Y20663D01*
G01X28404Y20678D01*
G01X28405Y20693D01*
G01X28409Y20708D01*
G01X28415Y20723D01*
G01X28423Y20736D01*
G01X28433Y20748D01*
G01X28444Y20758D01*
G01X28482Y20788D01*
G01X28518Y20820D01*
G01X28553Y20853D01*
G01X28586Y20888D01*
G01X28617Y20925D01*
G01X28647Y20962D01*
G01X28675Y21001D01*
G01X28701Y21042D01*
G01X28725Y21083D01*
G01X28748Y21126D01*
G01X28768Y21169D01*
G01X28786Y21214D01*
G01X28803Y21259D01*
G01X28817Y21305D01*
G01X28829Y21351D01*
G01X28839Y21398D01*
G01X28846Y21446D01*
G01X28852Y21493D01*
G01X28855Y21541D01*
G01X28856Y21590D01*
G01X28855Y21636D01*
G01X28852Y21683D01*
G01X28847Y21730D01*
G01X28840Y21776D01*
G01X28830Y21822D01*
G01X28819Y21867D01*
G01X28805Y21912D01*
G01X28790Y21956D01*
G01X28773Y22000D01*
G01X28753Y22043D01*
G01X28732Y22084D01*
G01X28709Y22125D01*
G01X28684Y22165D01*
G01X28657Y22203D01*
G01X28629Y22240D01*
G01X28599Y22276D01*
G01X28567Y22311D01*
G01X28534Y22344D01*
G01X28499Y22376D01*
G01X28463Y22406D01*
G01X28426Y22434D01*
G01X28388Y22461D01*
G01X28348Y22486D01*
G01X28307Y22509D01*
G01X28266Y22530D01*
G01X28223Y22550D01*
G01X28179Y22567D01*
G01X28135Y22582D01*
G01X28090Y22596D01*
G01X28045Y22607D01*
G01X27999Y22617D01*
G01X27953Y22624D01*
G01X27906Y22629D01*
G01X27859Y22632D01*
G01X27813Y22633D01*
G01X27766Y22632D01*
G01X27719Y22629D01*
G01X27672Y22624D01*
G01X27626Y22617D01*
G01X27580Y22607D01*
G01X27535Y22596D01*
G01X27490Y22582D01*
G01X27446Y22567D01*
G01X27402Y22550D01*
G01X27359Y22530D01*
G01X27318Y22509D01*
G01X27277Y22486D01*
G01X27237Y22461D01*
G01X27199Y22434D01*
G01X27162Y22406D01*
G01X27126Y22376D01*
G01X27091Y22344D01*
G01X27058Y22311D01*
G01X27026Y22276D01*
G01X26996Y22240D01*
G01X26968Y22203D01*
G01X26941Y22165D01*
G01X26916Y22125D01*
G01X26893Y22084D01*
G01X26872Y22043D01*
G01X26852Y22000D01*
G01X26835Y21956D01*
G01X26820Y21912D01*
G01X26806Y21867D01*
G01X26795Y21822D01*
G01X26785Y21776D01*
G01X26778Y21730D01*
G01X26773Y21683D01*
G01X26770Y21636D01*
G01X26769Y21590D01*
G01X26770Y21541D01*
G01X26773Y21493D01*
G01X26779Y21446D01*
G01X26786Y21398D01*
G01X26796Y21351D01*
G01X26808Y21305D01*
G01X26822Y21259D01*
G01X26839Y21214D01*
G01X26857Y21169D01*
G01X26877Y21126D01*
G01X26900Y21083D01*
G01X26924Y21042D01*
G01X26950Y21001D01*
G01X26978Y20962D01*
G01X27008Y20925D01*
G01X27039Y20888D01*
G01X27072Y20853D01*
G01X27107Y20820D01*
G01X27143Y20788D01*
G01X27181Y20758D01*
G01X27192Y20748D01*
G01X27202Y20736D01*
G01X27210Y20723D01*
G01X27216Y20708D01*
G01X27220Y20693D01*
G01X27221Y20678D01*
G01X27220Y20663D01*
G01X27217Y20649D01*
G01X27212Y20635D01*
G01X27196Y20611D01*
G01X27186Y20601D01*
G01X27174Y20592D01*
G01X27161Y20585D01*
G01X27148Y20580D01*
G01X27134Y20577D01*
G01X27119Y20576D01*
G01X25966Y20576D01*
G01X25951Y20577D01*
G01X25937Y20580D01*
G01X25924Y20585D01*
G01X25911Y20592D01*
G01X25899Y20601D01*
G01X25889Y20611D01*
G01X25873Y20635D01*
G01X25868Y20649D01*
G01X25865Y20663D01*
G01X25864Y20678D01*
G01X25865Y20693D01*
G01X25869Y20708D01*
G01X25875Y20723D01*
G01X25883Y20736D01*
G01X25893Y20748D01*
G01X25904Y20758D01*
G01X25942Y20788D01*
G01X25978Y20820D01*
G01X26013Y20853D01*
G01X26046Y20888D01*
G01X26077Y20925D01*
G01X26107Y20962D01*
G01X26135Y21001D01*
G01X26161Y21042D01*
G01X26185Y21083D01*
G01X26208Y21126D01*
G01X26228Y21169D01*
G01X26246Y21214D01*
G01X26263Y21259D01*
G01X26277Y21305D01*
G01X26289Y21351D01*
G01X26299Y21398D01*
G01X26306Y21446D01*
G01X26312Y21493D01*
G01X26315Y21541D01*
G01X26316Y21590D01*
G01X26315Y21636D01*
G01X26312Y21683D01*
G01X26307Y21730D01*
G01X26300Y21776D01*
G01X26290Y21822D01*
G01X26279Y21867D01*
G01X26265Y21912D01*
G01X26250Y21956D01*
G01X26233Y22000D01*
G01X26213Y22043D01*
G01X26192Y22084D01*
G01X26169Y22125D01*
G01X26144Y22165D01*
G01X26117Y22203D01*
G01X26089Y22240D01*
G01X26059Y22276D01*
G01X26027Y22311D01*
G01X25994Y22344D01*
G01X25959Y22376D01*
G01X25923Y22406D01*
G01X25886Y22434D01*
G01X25848Y22461D01*
G01X25808Y22486D01*
G01X25767Y22509D01*
G01X25726Y22530D01*
G01X25683Y22550D01*
G01X25639Y22567D01*
G01X25595Y22582D01*
G01X25550Y22596D01*
G01X25505Y22607D01*
G01X25459Y22617D01*
G01X25413Y22624D01*
G01X25366Y22629D01*
G01X25319Y22632D01*
G01X25273Y22633D01*
G01X25226Y22632D01*
G01X25179Y22629D01*
G01X25132Y22624D01*
G01X25086Y22617D01*
G01X25040Y22607D01*
G01X24995Y22596D01*
G01X24950Y22582D01*
G01X24906Y22567D01*
G01X24862Y22550D01*
G01X24819Y22530D01*
G01X24778Y22509D01*
G01X24737Y22486D01*
G01X24697Y22461D01*
G01X24659Y22434D01*
G01X24622Y22406D01*
G01X24586Y22376D01*
G01X24551Y22344D01*
G01X24518Y22311D01*
G01X24486Y22276D01*
G01X24456Y22240D01*
G01X24428Y22203D01*
G01X24401Y22165D01*
G01X24376Y22125D01*
G01X24353Y22084D01*
G01X24332Y22043D01*
G01X24312Y22000D01*
G01X24295Y21956D01*
G01X24280Y21912D01*
G01X24266Y21867D01*
G01X24255Y21822D01*
G01X24245Y21776D01*
G01X24238Y21730D01*
G01X24233Y21683D01*
G01X24230Y21636D01*
G01X24229Y21590D01*
G01X24230Y21541D01*
G01X24233Y21493D01*
G01X24239Y21446D01*
G01X24246Y21398D01*
G01X24256Y21351D01*
G01X24268Y21305D01*
G01X24282Y21259D01*
G01X24299Y21214D01*
G01X24317Y21169D01*
G01X24337Y21126D01*
G01X24360Y21083D01*
G01X24384Y21042D01*
G01X24410Y21001D01*
G01X24438Y20962D01*
G01X24468Y20925D01*
G01X24499Y20888D01*
G01X24532Y20853D01*
G01X24567Y20820D01*
G01X24603Y20788D01*
G01X24641Y20758D01*
G01X24652Y20748D01*
G01X24662Y20736D01*
G01X24670Y20723D01*
G01X24676Y20708D01*
G01X24680Y20693D01*
G01X24681Y20678D01*
G01X24680Y20663D01*
G01X24677Y20649D01*
G01X24672Y20635D01*
G01X24656Y20611D01*
G01X24646Y20601D01*
G01X24634Y20592D01*
G01X24621Y20585D01*
G01X24608Y20580D01*
G01X24594Y20577D01*
G01X24579Y20576D01*
G01X23426Y20576D01*
G01X23411Y20577D01*
G01X23397Y20580D01*
G01X23384Y20585D01*
G01X23371Y20592D01*
G01X23359Y20601D01*
G01X23349Y20611D01*
G01X23333Y20635D01*
G01X23328Y20649D01*
G01X23325Y20663D01*
G01X23324Y20678D01*
G01X23325Y20693D01*
G01X23329Y20708D01*
G01X23335Y20723D01*
G01X23343Y20736D01*
G01X23353Y20748D01*
G01X23364Y20758D01*
G01X23402Y20788D01*
G01X23438Y20820D01*
G01X23473Y20853D01*
G01X23506Y20888D01*
G01X23537Y20925D01*
G01X23567Y20962D01*
G01X23595Y21001D01*
G01X23621Y21042D01*
G01X23645Y21083D01*
G01X23668Y21126D01*
G01X23688Y21169D01*
G01X23706Y21214D01*
G01X23723Y21259D01*
G01X23737Y21305D01*
G01X23749Y21351D01*
G01X23759Y21398D01*
G01X23766Y21446D01*
G01X23772Y21493D01*
G01X23775Y21541D01*
G01X23776Y21590D01*
G01X23775Y21636D01*
G01X23772Y21683D01*
G01X23767Y21730D01*
G01X23760Y21776D01*
G01X23750Y21822D01*
G01X23739Y21867D01*
G01X23725Y21912D01*
G01X23710Y21956D01*
G01X23693Y22000D01*
G01X23673Y22043D01*
G01X23652Y22084D01*
G01X23629Y22125D01*
G01X23604Y22165D01*
G01X23577Y22203D01*
G01X23549Y22240D01*
G01X23519Y22276D01*
G01X23487Y22311D01*
G01X23454Y22344D01*
G01X23419Y22376D01*
G01X23383Y22406D01*
G01X23346Y22434D01*
G01X23308Y22461D01*
G01X23268Y22486D01*
G01X23227Y22509D01*
G01X23186Y22530D01*
G01X23143Y22550D01*
G01X23099Y22567D01*
G01X23055Y22582D01*
G01X23010Y22596D01*
G01X22965Y22607D01*
G01X22919Y22617D01*
G01X22873Y22624D01*
G01X22826Y22629D01*
G01X22779Y22632D01*
G37*
G36*
G01X41265Y12093D02*
G01X41224Y12114D01*
G01X41224Y11633D01*
G01X41705Y11633D01*
G01X41684Y11674D01*
G01X41661Y11714D01*
G01X41636Y11753D01*
G01X41610Y11791D01*
G01X41582Y11828D01*
G01X41552Y11863D01*
G01X41521Y11897D01*
G01X41488Y11930D01*
G01X41454Y11961D01*
G01X41419Y11991D01*
G01X41382Y12019D01*
G01X41344Y12045D01*
G01X41305Y12070D01*
G01X41265Y12093D01*
G37*
G36*
G01X40309Y11633D02*
G01X40309Y12114D01*
G01X40268Y12093D01*
G01X40228Y12070D01*
G01X40189Y12045D01*
G01X40151Y12019D01*
G01X40114Y11991D01*
G01X40079Y11961D01*
G01X40045Y11930D01*
G01X40012Y11897D01*
G01X39981Y11863D01*
G01X39951Y11828D01*
G01X39923Y11791D01*
G01X39897Y11753D01*
G01X39872Y11714D01*
G01X39849Y11674D01*
G01X39828Y11633D01*
G01X40309Y11633D01*
G37*
G36*
G01X29822Y13731D02*
G01X28821Y13731D01*
G01X28797Y13730D01*
G01X28774Y13726D01*
G01X28751Y13721D01*
G01X28728Y13713D01*
G01X28707Y13704D01*
G01X28686Y13692D01*
G01X28666Y13679D01*
G01X28648Y13664D01*
G01X28631Y13647D01*
G01X28616Y13629D01*
G01X28603Y13609D01*
G01X28591Y13589D01*
G01X28582Y13567D01*
G01X28574Y13544D01*
G01X28569Y13521D01*
G01X28565Y13498D01*
G01X28564Y13474D01*
G01X28564Y11925D01*
G01X28565Y11901D01*
G01X28569Y11878D01*
G01X28574Y11855D01*
G01X28582Y11832D01*
G01X28591Y11811D01*
G01X28603Y11790D01*
G01X28616Y11770D01*
G01X28631Y11752D01*
G01X28648Y11735D01*
G01X28666Y11720D01*
G01X28686Y11707D01*
G01X28707Y11695D01*
G01X28728Y11686D01*
G01X28751Y11678D01*
G01X28774Y11673D01*
G01X28797Y11669D01*
G01X28821Y11668D01*
G01X29822Y11668D01*
G01X29846Y11669D01*
G01X29869Y11673D01*
G01X29892Y11678D01*
G01X29914Y11686D01*
G01X29936Y11695D01*
G01X29957Y11707D01*
G01X29976Y11720D01*
G01X29994Y11735D01*
G01X30011Y11752D01*
G01X30026Y11770D01*
G01X30040Y11790D01*
G01X30051Y11811D01*
G01X30061Y11832D01*
G01X30069Y11855D01*
G01X30074Y11878D01*
G01X30077Y11901D01*
G01X30078Y11925D01*
G01X30078Y12214D01*
G01X30079Y12229D01*
G01X30082Y12243D01*
G01X30087Y12257D01*
G01X30094Y12269D01*
G01X30103Y12281D01*
G01X30113Y12291D01*
G01X30125Y12300D01*
G01X30138Y12307D01*
G01X30151Y12312D01*
G01X30166Y12315D01*
G01X30180Y12316D01*
G01X32949Y12316D01*
G01X32964Y12315D01*
G01X32979Y12311D01*
G01X32993Y12306D01*
G01X33006Y12298D01*
G01X33018Y12289D01*
G01X33044Y12266D01*
G01X33072Y12244D01*
G01X33101Y12225D01*
G01X33131Y12207D01*
G01X33163Y12191D01*
G01X33195Y12177D01*
G01X33228Y12165D01*
G01X33262Y12155D01*
G01X33296Y12148D01*
G01X33330Y12143D01*
G01X33365Y12139D01*
G01X33401Y12138D01*
G01X33435Y12139D01*
G01X33468Y12142D01*
G01X33502Y12147D01*
G01X33535Y12154D01*
G01X33568Y12164D01*
G01X33600Y12175D01*
G01X33631Y12187D01*
G01X33662Y12203D01*
G01X33691Y12219D01*
G01X33720Y12238D01*
G01X33746Y12258D01*
G01X33773Y12279D01*
G01X33821Y12327D01*
G01X33842Y12354D01*
G01X33862Y12380D01*
G01X33881Y12409D01*
G01X33897Y12438D01*
G01X33913Y12469D01*
G01X33925Y12500D01*
G01X33936Y12532D01*
G01X33946Y12565D01*
G01X33953Y12598D01*
G01X33958Y12632D01*
G01X33961Y12665D01*
G01X33962Y12700D01*
G01X33961Y12734D01*
G01X33958Y12767D01*
G01X33953Y12801D01*
G01X33946Y12834D01*
G01X33936Y12867D01*
G01X33925Y12899D01*
G01X33913Y12930D01*
G01X33897Y12961D01*
G01X33881Y12990D01*
G01X33862Y13019D01*
G01X33842Y13045D01*
G01X33821Y13072D01*
G01X33773Y13120D01*
G01X33746Y13141D01*
G01X33720Y13161D01*
G01X33691Y13180D01*
G01X33662Y13196D01*
G01X33631Y13212D01*
G01X33600Y13224D01*
G01X33568Y13235D01*
G01X33535Y13245D01*
G01X33502Y13252D01*
G01X33468Y13257D01*
G01X33435Y13260D01*
G01X33401Y13261D01*
G01X33365Y13260D01*
G01X33330Y13256D01*
G01X33296Y13251D01*
G01X33262Y13244D01*
G01X33228Y13234D01*
G01X33195Y13222D01*
G01X33163Y13208D01*
G01X33131Y13192D01*
G01X33101Y13174D01*
G01X33072Y13155D01*
G01X33044Y13133D01*
G01X33018Y13110D01*
G01X33006Y13101D01*
G01X32993Y13093D01*
G01X32979Y13088D01*
G01X32964Y13084D01*
G01X32949Y13083D01*
G01X30180Y13083D01*
G01X30166Y13084D01*
G01X30151Y13087D01*
G01X30138Y13092D01*
G01X30125Y13099D01*
G01X30113Y13108D01*
G01X30103Y13118D01*
G01X30094Y13130D01*
G01X30087Y13142D01*
G01X30082Y13156D01*
G01X30079Y13170D01*
G01X30078Y13185D01*
G01X30078Y13474D01*
G01X30077Y13498D01*
G01X30074Y13521D01*
G01X30069Y13544D01*
G01X30061Y13567D01*
G01X30051Y13589D01*
G01X30040Y13609D01*
G01X30026Y13629D01*
G01X30011Y13647D01*
G01X29994Y13664D01*
G01X29976Y13679D01*
G01X29957Y13692D01*
G01X29936Y13704D01*
G01X29914Y13713D01*
G01X29892Y13721D01*
G01X29869Y13726D01*
G01X29846Y13730D01*
G01X29822Y13731D01*
G37*
G36*
G01X1675Y16638D02*
G01X840Y16638D01*
G01X872Y16580D01*
G01X906Y16522D01*
G01X942Y16466D01*
G01X980Y16411D01*
G01X1020Y16358D01*
G01X1061Y16306D01*
G01X1104Y16255D01*
G01X1149Y16206D01*
G01X1195Y16157D01*
G01X1243Y16111D01*
G01X1292Y16067D01*
G01X1343Y16024D01*
G01X1395Y15982D01*
G01X1448Y15943D01*
G01X1503Y15905D01*
G01X1560Y15869D01*
G01X1616Y15835D01*
G01X1675Y15803D01*
G01X1675Y16638D01*
G37*
G36*
G01X4387Y16638D02*
G01X3552Y16638D01*
G01X3552Y15803D01*
G01X3610Y15835D01*
G01X3668Y15869D01*
G01X3724Y15905D01*
G01X3779Y15943D01*
G01X3832Y15982D01*
G01X3884Y16024D01*
G01X3935Y16067D01*
G01X3984Y16111D01*
G01X4033Y16157D01*
G01X4079Y16206D01*
G01X4123Y16255D01*
G01X4166Y16306D01*
G01X4208Y16358D01*
G01X4247Y16411D01*
G01X4285Y16466D01*
G01X4321Y16522D01*
G01X4355Y16580D01*
G01X4387Y16638D01*
G37*
G36*
G01X1675Y18515D02*
G01X1675Y19350D01*
G01X1616Y19318D01*
G01X1560Y19284D01*
G01X1503Y19248D01*
G01X1448Y19210D01*
G01X1395Y19170D01*
G01X1343Y19129D01*
G01X1292Y19086D01*
G01X1243Y19042D01*
G01X1195Y18995D01*
G01X1149Y18947D01*
G01X1104Y18898D01*
G01X1061Y18847D01*
G01X1020Y18795D01*
G01X980Y18742D01*
G01X942Y18687D01*
G01X906Y18630D01*
G01X872Y18574D01*
G01X840Y18515D01*
G01X1675Y18515D01*
G37*
G36*
G01X3610Y19318D02*
G01X3552Y19350D01*
G01X3552Y18515D01*
G01X4387Y18515D01*
G01X4355Y18574D01*
G01X4321Y18630D01*
G01X4285Y18687D01*
G01X4247Y18742D01*
G01X4208Y18795D01*
G01X4166Y18847D01*
G01X4123Y18898D01*
G01X4079Y18947D01*
G01X4033Y18995D01*
G01X3984Y19042D01*
G01X3935Y19086D01*
G01X3884Y19129D01*
G01X3832Y19170D01*
G01X3779Y19210D01*
G01X3724Y19248D01*
G01X3668Y19284D01*
G01X3610Y19318D01*
G37*
G36*
G01X15159Y22632D02*
G01X15113Y22633D01*
G01X15066Y22632D01*
G01X15019Y22629D01*
G01X14972Y22624D01*
G01X14926Y22617D01*
G01X14880Y22607D01*
G01X14835Y22596D01*
G01X14790Y22582D01*
G01X14746Y22567D01*
G01X14702Y22550D01*
G01X14659Y22530D01*
G01X14618Y22509D01*
G01X14577Y22486D01*
G01X14537Y22461D01*
G01X14499Y22434D01*
G01X14462Y22406D01*
G01X14426Y22376D01*
G01X14391Y22344D01*
G01X14358Y22311D01*
G01X14326Y22276D01*
G01X14296Y22240D01*
G01X14268Y22203D01*
G01X14241Y22165D01*
G01X14216Y22125D01*
G01X14193Y22084D01*
G01X14172Y22043D01*
G01X14152Y22000D01*
G01X14135Y21956D01*
G01X14120Y21912D01*
G01X14106Y21867D01*
G01X14095Y21822D01*
G01X14085Y21776D01*
G01X14078Y21730D01*
G01X14073Y21683D01*
G01X14070Y21636D01*
G01X14069Y21590D01*
G01X14070Y21543D01*
G01X14073Y21496D01*
G01X14078Y21449D01*
G01X14085Y21403D01*
G01X14095Y21357D01*
G01X14106Y21312D01*
G01X14120Y21267D01*
G01X14135Y21223D01*
G01X14152Y21179D01*
G01X14172Y21136D01*
G01X14193Y21095D01*
G01X14216Y21054D01*
G01X14241Y21014D01*
G01X14268Y20976D01*
G01X14296Y20939D01*
G01X14326Y20903D01*
G01X14358Y20868D01*
G01X14391Y20835D01*
G01X14426Y20803D01*
G01X14462Y20773D01*
G01X14499Y20745D01*
G01X14537Y20718D01*
G01X14577Y20693D01*
G01X14618Y20670D01*
G01X14659Y20649D01*
G01X14702Y20629D01*
G01X14746Y20612D01*
G01X14790Y20597D01*
G01X14835Y20583D01*
G01X14880Y20572D01*
G01X14926Y20562D01*
G01X14972Y20555D01*
G01X15019Y20550D01*
G01X15066Y20547D01*
G01X15113Y20546D01*
G01X15159Y20547D01*
G01X15206Y20550D01*
G01X15253Y20555D01*
G01X15299Y20562D01*
G01X15345Y20572D01*
G01X15390Y20583D01*
G01X15435Y20597D01*
G01X15479Y20612D01*
G01X15523Y20629D01*
G01X15566Y20649D01*
G01X15607Y20670D01*
G01X15648Y20693D01*
G01X15688Y20718D01*
G01X15726Y20745D01*
G01X15763Y20773D01*
G01X15799Y20803D01*
G01X15834Y20835D01*
G01X15867Y20868D01*
G01X15899Y20903D01*
G01X15929Y20939D01*
G01X15957Y20976D01*
G01X15984Y21014D01*
G01X16009Y21054D01*
G01X16032Y21095D01*
G01X16053Y21136D01*
G01X16073Y21179D01*
G01X16090Y21223D01*
G01X16105Y21267D01*
G01X16119Y21312D01*
G01X16130Y21357D01*
G01X16140Y21403D01*
G01X16147Y21449D01*
G01X16152Y21496D01*
G01X16155Y21543D01*
G01X16156Y21590D01*
G01X16155Y21636D01*
G01X16152Y21683D01*
G01X16147Y21730D01*
G01X16140Y21776D01*
G01X16130Y21822D01*
G01X16119Y21867D01*
G01X16105Y21912D01*
G01X16090Y21956D01*
G01X16073Y22000D01*
G01X16053Y22043D01*
G01X16032Y22084D01*
G01X16009Y22125D01*
G01X15984Y22165D01*
G01X15957Y22203D01*
G01X15929Y22240D01*
G01X15899Y22276D01*
G01X15867Y22311D01*
G01X15834Y22344D01*
G01X15799Y22376D01*
G01X15763Y22406D01*
G01X15726Y22434D01*
G01X15688Y22461D01*
G01X15648Y22486D01*
G01X15607Y22509D01*
G01X15566Y22530D01*
G01X15523Y22550D01*
G01X15479Y22567D01*
G01X15435Y22582D01*
G01X15390Y22596D01*
G01X15345Y22607D01*
G01X15299Y22617D01*
G01X15253Y22624D01*
G01X15206Y22629D01*
G01X15159Y22632D01*
G37*
G36*
G01X20239Y22632D02*
G01X20193Y22633D01*
G01X20146Y22632D01*
G01X20099Y22629D01*
G01X20052Y22624D01*
G01X20006Y22617D01*
G01X19960Y22607D01*
G01X19915Y22596D01*
G01X19870Y22582D01*
G01X19826Y22567D01*
G01X19782Y22550D01*
G01X19739Y22530D01*
G01X19698Y22509D01*
G01X19657Y22486D01*
G01X19617Y22461D01*
G01X19579Y22434D01*
G01X19542Y22406D01*
G01X19506Y22376D01*
G01X19471Y22344D01*
G01X19438Y22311D01*
G01X19406Y22276D01*
G01X19376Y22240D01*
G01X19348Y22203D01*
G01X19321Y22165D01*
G01X19296Y22125D01*
G01X19273Y22084D01*
G01X19252Y22043D01*
G01X19232Y22000D01*
G01X19215Y21956D01*
G01X19200Y21912D01*
G01X19186Y21867D01*
G01X19175Y21822D01*
G01X19165Y21776D01*
G01X19158Y21730D01*
G01X19153Y21683D01*
G01X19150Y21636D01*
G01X19149Y21590D01*
G01X19150Y21543D01*
G01X19153Y21496D01*
G01X19158Y21449D01*
G01X19165Y21403D01*
G01X19175Y21357D01*
G01X19186Y21312D01*
G01X19200Y21267D01*
G01X19215Y21223D01*
G01X19232Y21179D01*
G01X19252Y21136D01*
G01X19273Y21095D01*
G01X19296Y21054D01*
G01X19321Y21014D01*
G01X19348Y20976D01*
G01X19376Y20939D01*
G01X19406Y20903D01*
G01X19438Y20868D01*
G01X19471Y20835D01*
G01X19506Y20803D01*
G01X19542Y20773D01*
G01X19579Y20745D01*
G01X19617Y20718D01*
G01X19657Y20693D01*
G01X19698Y20670D01*
G01X19739Y20649D01*
G01X19782Y20629D01*
G01X19826Y20612D01*
G01X19870Y20597D01*
G01X19915Y20583D01*
G01X19960Y20572D01*
G01X20006Y20562D01*
G01X20052Y20555D01*
G01X20099Y20550D01*
G01X20146Y20547D01*
G01X20193Y20546D01*
G01X20239Y20547D01*
G01X20286Y20550D01*
G01X20333Y20555D01*
G01X20379Y20562D01*
G01X20425Y20572D01*
G01X20470Y20583D01*
G01X20515Y20597D01*
G01X20559Y20612D01*
G01X20603Y20629D01*
G01X20646Y20649D01*
G01X20687Y20670D01*
G01X20728Y20693D01*
G01X20768Y20718D01*
G01X20806Y20745D01*
G01X20843Y20773D01*
G01X20879Y20803D01*
G01X20914Y20835D01*
G01X20947Y20868D01*
G01X20979Y20903D01*
G01X21009Y20939D01*
G01X21037Y20976D01*
G01X21064Y21014D01*
G01X21089Y21054D01*
G01X21112Y21095D01*
G01X21133Y21136D01*
G01X21153Y21179D01*
G01X21170Y21223D01*
G01X21185Y21267D01*
G01X21199Y21312D01*
G01X21210Y21357D01*
G01X21220Y21403D01*
G01X21227Y21449D01*
G01X21232Y21496D01*
G01X21235Y21543D01*
G01X21236Y21590D01*
G01X21235Y21636D01*
G01X21232Y21683D01*
G01X21227Y21730D01*
G01X21220Y21776D01*
G01X21210Y21822D01*
G01X21199Y21867D01*
G01X21185Y21912D01*
G01X21170Y21956D01*
G01X21153Y22000D01*
G01X21133Y22043D01*
G01X21112Y22084D01*
G01X21089Y22125D01*
G01X21064Y22165D01*
G01X21037Y22203D01*
G01X21009Y22240D01*
G01X20979Y22276D01*
G01X20947Y22311D01*
G01X20914Y22344D01*
G01X20879Y22376D01*
G01X20843Y22406D01*
G01X20806Y22434D01*
G01X20768Y22461D01*
G01X20728Y22486D01*
G01X20687Y22509D01*
G01X20646Y22530D01*
G01X20603Y22550D01*
G01X20559Y22567D01*
G01X20515Y22582D01*
G01X20470Y22596D01*
G01X20425Y22607D01*
G01X20379Y22617D01*
G01X20333Y22624D01*
G01X20286Y22629D01*
G01X20239Y22632D01*
G37*
G36*
G01X5740Y22633D02*
G01X4165Y22633D01*
G01X4141Y22632D01*
G01X4118Y22629D01*
G01X4095Y22624D01*
G01X4073Y22616D01*
G01X4051Y22607D01*
G01X4030Y22595D01*
G01X4011Y22582D01*
G01X3992Y22566D01*
G01X3976Y22550D01*
G01X3960Y22531D01*
G01X3947Y22512D01*
G01X3935Y22491D01*
G01X3926Y22469D01*
G01X3918Y22447D01*
G01X3913Y22424D01*
G01X3910Y22401D01*
G01X3909Y22377D01*
G01X3909Y20802D01*
G01X3910Y20778D01*
G01X3913Y20755D01*
G01X3918Y20732D01*
G01X3926Y20710D01*
G01X3935Y20688D01*
G01X3947Y20667D01*
G01X3960Y20648D01*
G01X3976Y20629D01*
G01X3992Y20613D01*
G01X4011Y20597D01*
G01X4030Y20584D01*
G01X4051Y20572D01*
G01X4073Y20563D01*
G01X4095Y20555D01*
G01X4118Y20550D01*
G01X4141Y20547D01*
G01X4165Y20546D01*
G01X5740Y20546D01*
G01X5764Y20547D01*
G01X5787Y20550D01*
G01X5810Y20555D01*
G01X5832Y20563D01*
G01X5854Y20572D01*
G01X5875Y20584D01*
G01X5894Y20597D01*
G01X5913Y20613D01*
G01X5929Y20629D01*
G01X5945Y20648D01*
G01X5958Y20667D01*
G01X5970Y20688D01*
G01X5979Y20710D01*
G01X5987Y20732D01*
G01X5992Y20755D01*
G01X5995Y20778D01*
G01X5996Y20802D01*
G01X5996Y22377D01*
G01X5995Y22401D01*
G01X5992Y22424D01*
G01X5987Y22447D01*
G01X5979Y22469D01*
G01X5970Y22491D01*
G01X5958Y22512D01*
G01X5945Y22531D01*
G01X5929Y22550D01*
G01X5913Y22566D01*
G01X5894Y22582D01*
G01X5875Y22595D01*
G01X5854Y22607D01*
G01X5832Y22616D01*
G01X5810Y22624D01*
G01X5787Y22629D01*
G01X5764Y22632D01*
G01X5740Y22633D01*
G37*
G36*
G01X33391Y22507D02*
G01X33350Y22528D01*
G01X33350Y22047D01*
G01X33831Y22047D01*
G01X33810Y22088D01*
G01X33787Y22128D01*
G01X33762Y22167D01*
G01X33736Y22205D01*
G01X33708Y22242D01*
G01X33678Y22277D01*
G01X33647Y22311D01*
G01X33614Y22344D01*
G01X33580Y22375D01*
G01X33545Y22405D01*
G01X33508Y22433D01*
G01X33470Y22459D01*
G01X33431Y22484D01*
G01X33391Y22507D01*
G37*
G36*
G01X32435Y22047D02*
G01X32435Y22528D01*
G01X32394Y22507D01*
G01X32354Y22484D01*
G01X32315Y22459D01*
G01X32277Y22433D01*
G01X32240Y22405D01*
G01X32205Y22375D01*
G01X32171Y22344D01*
G01X32138Y22311D01*
G01X32107Y22277D01*
G01X32077Y22242D01*
G01X32049Y22205D01*
G01X32023Y22167D01*
G01X31998Y22128D01*
G01X31975Y22088D01*
G01X31954Y22047D01*
G01X32435Y22047D01*
G37*

%LPD*%
G54D11*
G01X17018Y8255D02*
G01X17145Y8001D01*
G01X20955Y8001D01*
G01X23129Y5826D01*
G01X23129Y4826D01*
G54D28*
G01X12573Y10178D02*
G01X7039Y10178D01*
G01X6911Y10306D01*
G54D10*
G01X25908Y6858D02*
G01X26670Y6096D01*
G01X30988Y6096D01*
G01X27320Y4826D02*
G01X27051Y4826D01*
G01X24638Y7239D01*
G01X23495Y7239D01*
G01X19685Y11049D01*
G01X18796Y11049D01*
G01X17018Y11811D02*
G01X17018Y11684D01*
G01X19685Y11684D01*
G01X23622Y7747D01*
G01X25019Y7747D01*
G01X25273Y7493D01*
G01X27193Y7493D01*
G54D11*
G01X14986Y8636D02*
G01X16002Y9652D01*
G54D10*
G01X18542Y8763D02*
G01X17780Y8763D01*
G01X13573Y12969D01*
G01X13573Y13208D01*
G01X19304Y8890D02*
G01X18796Y9398D01*
G01X17780Y9398D01*
G01X14732Y12446D01*
G01X14732Y14224D01*
G01X13573Y15382D01*
G01X13573Y15621D01*
G01X7493Y21590D02*
G01X8890Y20193D01*
G01X14097Y20193D01*
G01X15748Y18542D01*
G01X15748Y13589D01*
G01X16891Y12446D01*
G01X19177Y12446D01*
G01X19177Y12319D01*
G01X18415Y10287D02*
G01X17780Y10922D01*
G01X17145Y10922D01*
G54D11*
G01X14478Y4191D02*
G01X14986Y4699D01*
G01X14986Y8636D01*
G54D14*
G01X12573Y5570D02*
G01X12573Y4318D01*
G01X13589Y3302D01*
G01X16637Y3302D01*
G01X17272Y3937D01*
G54D10*
G01X4784Y10306D02*
G01X6327Y8763D01*
G01X9398Y8763D01*
G01X17653Y1524D02*
G01X16891Y1524D01*
G01X15748Y2667D01*
G01X13081Y2667D01*
G01X12192Y3556D01*
G54D12*
G01X9398Y8763D02*
G01X9017Y8382D01*
G01X9017Y7239D01*
G54D10*
G01X37973Y1524D02*
G01X40513Y1524D01*
G01X38735Y7747D02*
G01X39116Y7366D01*
G01X41529Y7366D01*
G01X41910Y6985D01*
G01X41910Y4445D01*
G01X40513Y3048D01*
G01X40513Y1524D01*
G01X38735Y7747D02*
G01X38735Y9144D01*
G01X40767Y11176D01*
G01X17653Y21590D02*
G01X17272Y21209D01*
G01X17272Y15113D01*
G01X17653Y14732D01*
G01X17653Y14478D01*
G01X19558Y14224D02*
G01X19558Y17907D01*
G01X17907Y19558D01*
G54D11*
G01X27321Y12700D02*
G01X19939Y12700D01*
G01X19304Y13335D01*
G01X17272Y13335D01*
G01X16637Y13970D01*
G01X16637Y16510D01*
G01X19304Y13335D02*
G01X21717Y13335D01*
G01X21844Y13462D01*
G54D10*
G01X27194Y10033D02*
G01X26178Y11049D01*
G01X21209Y11049D01*
G01X10033Y1524D02*
G01X10414Y1524D01*
G01X11557Y381D01*
G01X18161Y381D01*
G01X18923Y1143D01*
G01X18923Y2540D01*
G01X18161Y3302D01*
G01X18161Y5334D01*
G01X17018Y6477D01*
G01X16256Y6477D01*
G01X16256Y6604D01*
G01X20193Y1524D02*
G01X19431Y2286D01*
G01X19431Y3175D01*
G01X18669Y3937D01*
G01X18669Y5969D01*
G01X17272Y7366D01*
G01X16002Y7366D01*
G01X25654Y8255D02*
G01X23495Y10414D01*
G01X22225Y10414D01*
G01X29320Y4826D02*
G01X29955Y4191D01*
G01X30861Y4191D01*
G01X23130Y4826D02*
G01X23987Y5683D01*
G01X23987Y6607D01*
G01X21336Y11049D02*
G01X19939Y12446D01*
G01X19939Y12700D01*
G01X6350Y7222D02*
G01X5063Y8509D01*
G01X4191Y8509D01*
G01X3175Y9525D01*
G01X3175Y11049D01*
G01X3683Y11557D01*
G01X7620Y11557D01*
G01X9144Y13081D01*
G01X20447Y15367D02*
G01X24130Y19050D01*
G01X32258Y19050D01*
G01X38735Y12573D01*
G01X38735Y11176D01*
G01X25130Y4826D02*
G01X25130Y4587D01*
G01X26289Y3429D01*
G01X31242Y3429D01*
G01X32258Y4445D01*
G01X33147Y4445D01*
G01X32004Y18186D02*
G01X29616Y18186D01*
G01X25908Y14478D01*
G01X29320Y12700D02*
G01X33401Y12700D01*
G01X29320Y10033D02*
G01X33401Y10033D01*
G01X29320Y7493D02*
G01X33401Y7493D01*
G01X33782Y7112D01*
G01X40513Y21590D02*
G01X38608Y19685D01*
G01X22733Y19685D01*
G01X21844Y18796D01*
G01X37973Y21590D02*
G01X36576Y20193D01*
G01X22098Y20193D01*
G01X21209Y19304D01*
G01X9017Y5207D02*
G01X9017Y4699D01*
G01X7239Y2921D01*
G01X6858Y2921D01*
G01X6223Y2286D01*
G01X6223Y762D01*
G01X6604Y381D01*
G01X8890Y381D01*
G01X10033Y1524D01*
G54D11*
G01X6911Y12806D02*
G01X7947Y13843D01*
G01X11572Y13843D01*
G01X11572Y13208D01*
G01X11573Y15621D02*
G01X7725Y15621D01*
G01X4911Y12806D01*
G54D14*
G01X12573Y5569D02*
G01X12573Y5461D01*
G01X10160Y3048D01*
G01X9017Y3048D01*
G01X7493Y1524D01*
G01X40259Y6096D02*
G01X39751Y6096D01*
G01X36576Y2921D01*
G01X34290Y2921D01*
G01X32893Y1524D01*
G36*
G01X10922Y11068D02*
G01X10922Y9288D01*
G01X14223Y9288D01*
G01X14223Y11068D01*
G01X10922Y11068D01*
G37*
G36*
G01X10922Y6459D02*
G01X10922Y4679D01*
G01X14223Y4679D01*
G01X14223Y6459D01*
G01X10922Y6459D01*
G37*
G36*
G01X9741Y4626D02*
G01X9741Y5787D01*
G01X8292Y5787D01*
G01X8292Y4626D01*
G01X9741Y4626D01*
G37*
G36*
G01X9741Y6658D02*
G01X9741Y7819D01*
G01X8292Y7819D01*
G01X8292Y6658D01*
G01X9741Y6658D01*
G37*
G36*
G01X13072Y14845D02*
G01X14072Y14845D01*
G01X14072Y16396D01*
G01X13072Y16396D01*
G01X13072Y14845D01*
G37*
G36*
G01X11073Y14845D02*
G01X12073Y14845D01*
G01X12073Y16396D01*
G01X11073Y16396D01*
G01X11073Y14845D01*
G37*
G36*
G01X13072Y12432D02*
G01X14072Y12432D01*
G01X14072Y13983D01*
G01X13072Y13983D01*
G01X13072Y12432D01*
G37*
G36*
G01X11073Y12432D02*
G01X12073Y12432D01*
G01X12073Y13983D01*
G01X11073Y13983D01*
G01X11073Y12432D01*
G37*
G36*
G01X27821Y5601D02*
G01X26821Y5601D01*
G01X26821Y4050D01*
G01X27821Y4050D01*
G01X27821Y5601D01*
G37*
G36*
G01X29820Y5601D02*
G01X28820Y5601D01*
G01X28820Y4050D01*
G01X29820Y4050D01*
G01X29820Y5601D01*
G37*
G36*
G01X5574Y5723D02*
G01X5574Y4723D01*
G01X7125Y4723D01*
G01X7125Y5723D01*
G01X5574Y5723D01*
G37*
G36*
G01X5574Y7722D02*
G01X5574Y6722D01*
G01X7125Y6722D01*
G01X7125Y7722D01*
G01X5574Y7722D01*
G37*
G36*
G01X28820Y6717D02*
G01X29820Y6717D01*
G01X29820Y8268D01*
G01X28820Y8268D01*
G01X28820Y6717D01*
G37*
G36*
G01X26821Y6717D02*
G01X27821Y6717D01*
G01X27821Y8268D01*
G01X26821Y8268D01*
G01X26821Y6717D01*
G37*
G36*
G01X24629Y4050D02*
G01X25629Y4050D01*
G01X25629Y5601D01*
G01X24629Y5601D01*
G01X24629Y4050D01*
G37*
G36*
G01X22630Y4050D02*
G01X23630Y4050D01*
G01X23630Y5601D01*
G01X22630Y5601D01*
G01X22630Y4050D01*
G37*
G36*
G01X28820Y9257D02*
G01X29820Y9257D01*
G01X29820Y10808D01*
G01X28820Y10808D01*
G01X28820Y9257D01*
G37*
G36*
G01X26821Y9257D02*
G01X27821Y9257D01*
G01X27821Y10808D01*
G01X26821Y10808D01*
G01X26821Y9257D01*
G37*
G36*
G01X28820Y11924D02*
G01X29820Y11924D01*
G01X29820Y13475D01*
G01X28820Y13475D01*
G01X28820Y11924D01*
G37*
G36*
G01X26821Y11924D02*
G01X27821Y11924D01*
G01X27821Y13475D01*
G01X26821Y13475D01*
G01X26821Y11924D01*
G37*
G54D24*
G01X40513Y21590D03*
G01X37973Y21590D03*
G01X35433Y21590D03*
G01X32893Y21590D03*
G01X30353Y21590D03*
G01X27813Y21590D03*
G01X25273Y21590D03*
G01X22733Y21590D03*
G01X20193Y21590D03*
G01X17653Y21590D03*
G01X15113Y21590D03*
G01X12573Y21590D03*
G01X10033Y21590D03*
G01X7493Y21590D03*
G36*
G01X4165Y22377D02*
G01X5740Y22377D01*
G01X5740Y20802D01*
G01X4165Y20802D01*
G01X4165Y22377D01*
G37*
G01X40513Y1524D03*
G01X37973Y1524D03*
G01X35433Y1524D03*
G01X32893Y1524D03*
G01X30353Y1524D03*
G01X27813Y1524D03*
G01X25273Y1524D03*
G01X22733Y1524D03*
G01X20193Y1524D03*
G01X17653Y1524D03*
G01X15113Y1524D03*
G01X12573Y1524D03*
G01X10033Y1524D03*
G01X7493Y1524D03*
G36*
G01X4165Y2311D02*
G01X5740Y2311D01*
G01X5740Y736D01*
G01X4165Y736D01*
G01X4165Y2311D01*
G37*
G01X40767Y11176D03*
G01X43307Y11176D03*
G01X40767Y8636D03*
G01X43307Y8636D03*
G01X40767Y6096D03*
G54D25*
G01X43307Y6096D03*
G54D26*
G01X2614Y5536D03*
G01X2614Y17576D03*
G54D27*
G01X4784Y10306D03*
G01X4784Y12806D03*
G01X6784Y12806D03*
G01X6784Y10306D03*
G54D15*
G01X17653Y14478D03*
G01X19177Y12319D03*
G01X21209Y19304D03*
G01X21844Y18796D03*
G01X17018Y8255D03*
G01X16637Y16510D03*
G01X21844Y13462D03*
G01X33782Y7112D03*
G01X33401Y10033D03*
G01X33401Y12700D03*
G01X32004Y18186D03*
G01X25908Y14478D03*
G01X12192Y3556D03*
G01X16256Y6604D03*
G01X33147Y4445D03*
G01X17145Y11811D03*
G01X19304Y8890D03*
G01X18542Y8763D03*
G01X20447Y15367D03*
G01X38735Y11176D03*
G01X9144Y13081D03*
G01X21336Y11049D03*
G01X23987Y6607D03*
G01X30861Y4191D03*
G01X16002Y7366D03*
G01X18796Y11049D03*
G01X25654Y8255D03*
G01X22225Y10414D03*
G54D16*
G01X19558Y14224D03*
G54D17*
G01X17907Y19558D03*
G01X38735Y7747D03*
G01X9398Y8763D03*
G01X17272Y3937D03*
G01X14478Y4191D03*
G01X14986Y8636D03*
G01X18415Y10287D03*
G01X17145Y10922D03*
G01X16002Y9652D03*
G01X25908Y6858D03*
G01X30988Y6096D03*
M00*
M02*
